<?xml version="1.0" standalone="no"?>
<!DOCTYPE svg PUBLIC "-//W3C//DTD SVG 20010904//EN"
 "http://www.w3.org/TR/2001/REC-SVG-20010904/DTD/svg10.dtd">
<svg version="1.0" xmlns="http://www.w3.org/2000/svg"
 width="329.000000pt" height="329.000000pt" viewBox="0 0 329.000000 329.000000"
 preserveAspectRatio="xMidYMid meet">
<metadata>
Created by potrace 1.14, written by Peter Selinger 2001-2017
</metadata>
<g transform="translate(0.000000,329.000000) scale(0.100000,-0.100000)"
fill="#000000" stroke="none">
<path d="M1359 2559 c-121 -18 -248 -90 -369 -211 -288 -290 -425 -748 -325
-1092 59 -205 166 -338 339 -421 137 -66 275 -70 407 -11 109 48 250 181 320
303 l23 40 19 -39 c11 -22 38 -52 60 -66 36 -24 50 -27 126 -27 74 0 94 4 144
29 32 15 87 55 122 87 54 51 68 59 101 59 52 0 132 39 188 90 80 74 179 253
153 279 -27 27 -47 11 -82 -64 -44 -91 -127 -184 -197 -219 -28 -14 -53 -24
-55 -22 -3 2 9 31 26 64 67 133 97 337 59 407 -57 106 -228 163 -357 120 -95
-31 -184 -141 -198 -242 -10 -81 -91 -269 -167 -388 -113 -177 -263 -290 -430
-325 -201 -41 -375 97 -431 343 -33 147 -28 293 16 470 87 347 382 723 606
771 42 10 86 -14 103 -54 18 -45 6 -177 -25 -275 -74 -229 -270 -535 -343
-535 -26 0 -42 20 -42 51 0 40 -10 59 -31 59 -22 0 -23 -10 -8 -80 13 -59 45
-102 108 -142 78 -49 128 -34 228 68 71 73 126 156 183 278 88 184 116 341 86
471 -21 87 -53 137 -114 176 -72 45 -152 62 -243 48z m829 -746 c43 -38 55
-158 27 -268 -19 -74 -83 -243 -95 -250 -13 -8 -70 18 -107 49 l-33 28 32 46
c17 26 51 69 75 96 24 26 43 55 43 63 0 28 -20 52 -54 63 -39 12 -54 7 -115
-39 l-34 -26 7 30 c18 75 94 172 159 204 51 26 69 26 95 4z m-212 -513 c5 -5
33 -22 62 -38 l53 -29 -39 -50 c-22 -27 -54 -56 -72 -63 -31 -13 -34 -12 -51
9 -23 29 -24 64 -2 130 16 50 29 61 49 41z"/>
</g>
</svg>
