<?xml version="1.0" standalone="no"?>
<!DOCTYPE svg PUBLIC "-//W3C//DTD SVG 1.1//EN" "http://www.w3.org/Graphics/SVG/1.1/DTD/svg11.dtd" >
<svg xmlns="http://www.w3.org/2000/svg" xmlns:xlink="http://www.w3.org/1999/xlink" version="1.1">
<metadata>
Created by FontForge 20170731 at Thu Feb 23 18:25:35 2023
 By Aleksey,,,
2022 (C) Copyright by Mans Greback AB 
</metadata>
<defs>
<font id="BlestiveScriptPERSONALUSE-Regular" horiz-adv-x="0" >
  <font-face 
    font-family="Blestive Script PERSONAL USE"
    font-weight="400"
    font-style="italic"
    font-stretch="normal"
    units-per-em="2048"
    panose-1="0 0 0 0 0 0 0 0 0 0"
    ascent="1638"
    descent="-410"
    x-height="664"
    cap-height="1296"
    bbox="-3439.96 -813.432 8556.56 2096.38"
    underline-thickness="102"
    underline-position="-358"
    slope="-16"
    unicode-range="U+000A-FF5D"
  />
<missing-glyph horiz-adv-x="1079" 
d="M977 1434v-1434h-875v1434h875zM145 100l369 617l-369 614v-1231zM160 1393l379 -633l381 633h-760zM162 43h758l-379 631zM565 717l371 -621v1239z" />
    <glyph glyph-name="uniF01C" unicode="ss" horiz-adv-x="1052" 
d="M1096 451q4 -1 6 -2t6.5 -3t6.5 -4.5t1 -5.5q-1 -4 -61.5 -34.5t-152 -75t-130.5 -64.5q120 -59 80 -141q-31 -64 -124.5 -114t-172.5 -48q-41 0 -68 21.5t-30 56.5q-5 44 34 97t127 102q-137 55 -163 141l-136 -111q40 -25 66 -59q12 -18 15 -35.5t1.5 -23.5t-6.5 -21
q-27 -85 -92 -142t-140 -76t-143 -3q-45 15 -57 31q-13 19 -6 51q22 64 255 259q2 2 3 2.5t2.5 2t3 2.5t2.5 2q-18 16 -52 38t-65.5 40.5t-65.5 43.5t-57.5 49t-34.5 54.5t-3 61.5q10 40 51.5 87t101 84.5t130 52t139.5 -10.5q45 -17 59 -60.5t2 -88t-28 -79.5t-25 -43
q-35 -26 -70 -19t-57 32q-3 3 -3 5.5t1 3.5t4.5 4t5.5 5q133 131 119 194q-8 36 -59 29h-3q-48 -8 -105.5 -47.5t-98.5 -97.5q-80 -119 36 -213q18 -15 38.5 -28.5t50.5 -31.5l40 -24q15 12 79.5 64t99.5 83q12 55 67 117q94 106 234 182q42 22 64 28.5t54 2.5q30 -5 39 -14
q18 -3 39 -15q4 -3 6.5 -5t3.5 -4t2 -3t0 -3.5t-1.5 -3t-2 -3.5t-2.5 -4q-37 -61 -53.5 -104.5t-18 -59.5t-3.5 -18q-13 -14 -66.5 -4.5t-62.5 28.5v14q10 42 39 99q-91 -64 -150.5 -137.5t-52.5 -143.5q1 -17 5 -30t12 -22.5t14.5 -16t19.5 -12.5t20.5 -9t25 -8.5
t24.5 -7.5q42 23 91.5 47t111.5 53t98 47q6 3 16 9t14.5 8t13 4.5t18.5 1t24 -5.5zM-2 -45q-1 -8 9 -16.5t20 -10.5l20 2q31 5 66 23q52 26 89.5 75t50.5 86t13 58q0 27 -8 43q-252 -211 -260 -260zM500 29q0 -50 61 -30q61 21 118 80q36 37 44 68q5 21 -11 40t-40 20
q-172 -96 -172 -178z" />
    <glyph glyph-name="uniF01D" unicode="ll" horiz-adv-x="753" 
d="M780 428q13 -3 17.5 -7t3.5 -6t-4 -7q-82 -229 -170 -336q-47 -56 -84 -66q-13 -4 -30.5 -4.5t-42 3t-47 17.5t-42 36.5t-31 63.5t-10.5 95q-50 -97 -88 -145q-47 -56 -84 -66q-12 -4 -29.5 -5t-41.5 3.5t-46.5 15.5t-42 35.5t-31.5 59.5t-12 91.5t15 127.5
q38 187 111.5 410t123.5 327q1 2 3 5.5t3 5t3 4t3.5 3.5t5 2t7.5 2t10 1q19 2 46 -4.5t42 -16.5q4 -3 6 -6t3.5 -4.5t0.5 -5t-1.5 -4.5l-3 -6l-3.5 -7q-72 -164 -151 -421.5t-93 -419.5q-4 -46 2 -76t17.5 -41.5t26.5 -13.5t27.5 3t20.5 13q20 19 39.5 45.5t36.5 56t31.5 57
t28.5 59t22 50.5t17 42.5t10 25.5q46 187 124.5 412.5t123.5 314.5l3 6t2.5 5.5t2.5 4t4 3t5 2t7 1.5h10q20 2 47 -4t41 -16q11 -11 10.5 -14.5t-7.5 -16.5q-76 -173 -170 -466t-107 -453q-4 -46 2 -76t18 -41.5t27 -13.5t27 3t20 13q30 29 60.5 74.5t52 90.5t38.5 85
t27 66.5t11 27.5q7 5 26 0z" />
    <glyph glyph-name="uniF01E" unicode="tt" horiz-adv-x="733" 
d="M977 895q5 -7 6.5 -12t1.5 -7.5t-2.5 -4.5t-5 -2.5t-7 0t-7 1l-7.5 1.5l-4 1q-176 19 -325 23q-75 -212 -136.5 -430.5t-72.5 -339.5q-4 -46 2 -76.5t17.5 -42t26.5 -13.5t27.5 2.5t20.5 12.5q47 46 101 152t88 191l34 85q8 6 25 0q20 -4 22 -9.5t-4 -10.5
q-37 -103 -96.5 -231t-108.5 -187q-16 -19 -25 -28.5t-26 -22t-33 -17.5q-15 -4 -36.5 -5t-51 8t-53.5 28.5t-42 61.5t-19 102q-19 -27 -33 -43q-41 -56 -82 -68q-13 -4 -30.5 -5t-41.5 4t-46 16t-42 35.5t-31.5 60t-11.5 92t15 127.5q47 226 159 543q-181 -16 -274 -60
q-9 -5 -13 -7t-19 4t-34 26q-25 25 -20 41q1 3 22 10q117 41 363 55q60 151 82 201q1 2 3 5.5t3 5t3 4t3.5 3.5t5 2t7.5 2t10 1q21 2 47 -4.5t41 -16.5q5 -4 8 -6.5t3 -6t-0.5 -5.5t-3 -7t-3.5 -8q-45 -103 -68 -165q104 0 203 -3q38 104 68 166q1 2 2.5 5.5t2.5 4.5t2 3.5
t2.5 3.5t3.5 2t4.5 1.5t6 1.5t8.5 1q49 4 90 -21q5 -4 7.5 -6.5t2.5 -5.5t-0.5 -5t-3 -7t-3.5 -8q-6 -13 -58 -142q167 -10 246 -20q5 -1 16 -2t15.5 -1.5t13 -2.5t13.5 -5.5t12 -10t14 -15.5zM100 209q-4 -46 2 -76.5t18 -42t26.5 -13.5t26.5 2.5t20 12.5q54 54 106 156
q2 4 2 12q49 237 188 639q-136 0 -204 -4q-166 -463 -185 -686z" />
    <glyph glyph-name="uniF01F" unicode="ee" horiz-adv-x="1024" 
d="M1053 442q7 -6 11 -10.5t4.5 -9t0 -6t-2.5 -6.5l-3 -4q-45 -90 -115 -187q-156 -218 -286 -211q-102 7 -147.5 81.5t-39.5 186.5q-21 -34 -47 -67q-154 -208 -283 -201q-93 6 -140 70.5t-42.5 156t36 186t93 170.5t129.5 99q94 33 152 -14q56 -45 37 -131
q-28 -122 -192 -242q-47 -35 -105 -67q-5 -68 12 -107.5t59 -38.5q49 3 99 37.5t92.5 88.5t70 98.5t52.5 91.5q32 114 97 205.5t142 119.5q95 34 154 -15q57 -46 39 -136q-25 -128 -187 -254q-53 -41 -116 -78q-5 -71 12.5 -113t60.5 -39q30 2 60 15t56.5 34t51.5 47.5
t45.5 56t39 58t32.5 55t24 46.5t15 32l6 13q7 5 23 -11zM129 328q111 69 188 184q58 85 48 119q-4 12 -17 12q-64 0 -126.5 -96.5t-92.5 -218.5zM643 346q112 73 191 193q59 90 50 127q-4 14 -18 14q-43 0 -88.5 -51t-80 -126t-54.5 -157z" />
    <glyph glyph-name="uniF020" unicode="tl" horiz-adv-x="755" 
d="M782 442q19 -4 21 -9.5t-2 -10.5q-88 -234 -170 -334q-16 -19 -25 -28.5t-26 -22t-33 -17.5q-13 -4 -30.5 -4.5t-42 3t-47 17.5t-42 36.5t-31 63.5t-10.5 95q-47 -92 -90 -143q-41 -56 -84 -68q-12 -4 -29.5 -5t-41.5 4t-46 16t-41.5 35.5t-31 60t-11.5 92t15 127.5
q44 220 131 469q-33 -2 -83.5 -4.5t-62.5 -3.5q-20 0 -28 -4q-29 9 -48 46q-17 33 0 36h3q2 -4 10 -4q11 -1 237 12q23 61 56 129l3 6t2.5 5.5t2.5 4t3.5 3.5t4.5 2t7 1.5t9 0.5q50 4 91 -21q6 -4 8 -8.5t2 -6t-3.5 -8t-4.5 -8.5q-37 -89 -41 -100q27 0 63 -4q20 0 29 -6
q37 -24 49 -65q8 -27 -8 -26q-6 1 -13 5q-34 19 -149 22q-135 -376 -156 -608q-4 -46 2.5 -77t18.5 -42t27 -13.5t27 2.5t20 13q18 17 35.5 40.5t32 46.5t29.5 51.5t25.5 50.5t22 49.5t17.5 42.5t13.5 35.5t8.5 21.5q47 185 126 410t124 317q1 2 2.5 5.5t2 5t2 4t3.5 3t5 2
t7 2.5t10 1q21 2 48 -4.5t41 -18.5q5 -3 8 -5.5t3 -5t-0.5 -4.5t-3 -7t-3.5 -8q-75 -166 -169 -462t-108 -456q-4 -46 2 -77t17.5 -42t26.5 -13.5t27.5 2.5t20.5 13q47 46 92 131t70.5 148.5t26.5 64.5q7 4 24 0z" />
    <glyph glyph-name="uniF021" unicode="oo" horiz-adv-x="847" 
d="M690 680q78 -30 103.5 -118.5t4.5 -189.5t-71 -199t-113 -150q-37 -33 -67 -38t-72 19q-71 47 -86 115q-19 69 21 176q-12 1 -34.5 4t-33.5 4q-35 -145 -137 -252q-57 -54 -106 -61t-109 37q-59 45 -74 102q-17 60 13 135t81 137q-42 34 -51 80q-10 52 27 108.5t90 80.5
q44 22 86.5 15.5t78.5 -31.5t62 -64q62 -88 49 -217q30 -4 86 -8q4 8 10 19.5t7 12.5q-20 27 -21 55t12 58q30 84 84 133q76 66 160 37zM16 102q-1 -37 38 -41q54 -6 121 54q23 21 44 47q57 70 80 147q-112 20 -166 43l-2 2q0 -2 -4 -2q-44 -50 -77.5 -120t-33.5 -130z
M63 457q77 0 95 -47q68 -20 159 -33q20 128 -34 207q-25 38 -61.5 39t-68.5 -26t-57.5 -65.5t-32.5 -74.5zM492 141q-5 -32 -1.5 -50.5t10.5 -27t19.5 -8.5t25 4t26.5 12t24 15.5l18 13.5l7 6q45 45 81 123t53 154.5t15.5 142.5t-25.5 90q-34 34 -98 -24q-53 -46 -88 -127
q20 -13 29 -35q6 -16 -17 -74q9 -2 21 -14q19 -19 14 -31q3 -9 -4.5 -13.5t-19.5 -6.5q-4 0 -19 -1t-24 -1q-38 -87 -47 -148z" />
    <glyph glyph-name="uniF022" unicode="ol" horiz-adv-x="946" 
d="M969 436q11 -4 15.5 -7.5t5 -5.5t-2.5 -6.5t-4 -6.5q-46 -131 -90 -217.5t-86.5 -130.5t-80 -60t-81.5 -14q-56 2 -92 22t-49.5 56t-14 82t14 104.5t34 117.5t47 128t52.5 129t50 127t40 116q27 91 22.5 146.5t-29.5 79.5t-69 24q-75 0 -179 -62.5t-180 -150t-75 -151.5
q25 25 37 35q25 18 43.5 18t28.5 -8q21 -6 41 -35q11 -11 8 -21q-3 -4 -8 -4q3 -5 -1 -10t-23 -23t-38 -40q56 -22 87 -44.5t51 -67.5t20 -116q0 -159 -94 -288q-21 -30 -36 -48.5t-38.5 -40.5t-50 -30t-56.5 -2q-50 9 -92 35t-73 66.5t-40.5 98.5t2 126t57 155t122.5 180
q-44 110 61 247q89 116 232 189q158 82 271 53q132 -35 134 -218v-9q0 -24 -4.5 -52.5t-8 -43t-15 -52.5t-13.5 -44q-7 -22 -43.5 -123.5t-63 -185.5t-52 -180t-22.5 -152.5t38 -57.5q43 -1 86 37t74.5 93t56.5 110t38 94l13 39q8 4 23 0zM94 231q-6 -59 10 -86t42 -23.5
t52 20t42 38.5q54 68 86.5 167.5t29.5 162.5v1q3 49 -67 76q-11 4 -23 7q-157 -204 -172 -363z" />
    <glyph glyph-name="uniF023" unicode="ot" horiz-adv-x="1005" 
d="M1034 438q8 -2 12.5 -4t6.5 -3.5t2 -4t-0.5 -3.5t-2.5 -4.5t-3 -4.5q-202 -411 -383 -404q-49 1 -83 16.5t-51 43.5t-23.5 64.5t0 83.5t18 95.5t31 106.5t39.5 111t43 113q12 31 18.5 48t16.5 42.5t17 45.5q-83 -15 -127 -26q-19 0 -28 -9q-31 6 -55 42q-21 30 -3 34h2
q2 -2 11 -2q12 1 45.5 7.5t88 17.5t95.5 18q2 5 5 15.5t5 15.5q63 215 -42 244q-80 22 -219 -64q-123 -76 -197 -175q-53 -71 -52 -122q25 25 37 35q25 18 43.5 18t28.5 -8q22 -6 41 -33q16 -21 6 -25q-2 -1 -6 -1q3 -5 -1 -10t-23 -23.5t-38 -40.5q91 -35 138.5 -92
t51 -127.5t-24 -146.5t-83.5 -158q-94 -133 -198 -113q-61 11 -109.5 45.5t-76 93.5t-26 134t48 177.5t138.5 213.5q-8 14 -3 41.5t13.5 63t31 76.5t49 82t66.5 80t84.5 70.5t102.5 52.5t121 27q98 9 165.5 -65.5t67.5 -167.5q0 -32 -12 -90q54 4 72 4q25 0 28 -2
q38 -17 57 -54q14 -28 -3 -31q-6 0 -15 3l2 2q-2 2 -6 2q-34 14 -158 -4l-6 -21q-8 -24 -43.5 -124.5t-63 -185.5t-52.5 -180.5t-22 -151.5t38 -56q37 0 75 19t69 50.5t60 69t50.5 75.5t37.5 69.5t25 50.5l9 20q9 6 26 -2zM98 254q-6 -59 14.5 -88t55.5 -28t66.5 10.5
t58.5 25.5q24 13 50 45t49 74t31.5 90.5t1 92.5t-47 81.5t-107.5 56.5q-157 -204 -172 -360z" />
    <glyph glyph-name="fi" unicode="fi" horiz-adv-x="751" 
d="M659 819q-17 -14 -69.5 -3t-59.5 30q-1 3 6.5 26.5t18.5 60.5t16 66q0 9 4 13q11 10 49.5 5.5t63.5 -18.5q14 -7 16.5 -12t0.5 -14q-2 -10 -35 -117q-8 -34 -11 -37zM-96 14q11 115 76.5 344t119 387t138.5 398q5 15 10 18q7 3 24.5 -4t35 -22t27 -37t-0.5 -49
q-70 -197 -158 -459q246 141 368 97q56 -20 63 -68q2 -14 -1 -27q-8 -27 -36 -101.5t-51 -154t-34 -162.5q-16 -108 18 -120q39 -14 119 119q56 93 123 245q1 2 2.5 7t2 6.5t2 4.5t4 3.5t6 1.5t8.5 0.5t12 -1.5q19 -5 21 -11t-4 -11q0 -1 -15 -35t-21.5 -48.5t-24 -52
t-29 -58.5t-29.5 -55t-32.5 -54.5t-31.5 -43.5t-32.5 -36.5t-30.5 -18.5q-62 -25 -135 16t-76 115q-2 47 31 175q33 114 86 237l7 25q13 40 -25 38q-51 -2 -187 -73q-38 -19 -113 -64q-14 -43 -26 -84q41 -79 52.5 -171t-2.5 -169.5t-39.5 -142t-58 -100t-59.5 -31.5
q-46 5 -80 69.5t-24 157.5zM8 -143q42 15 73 86.5t35 167.5t-28 200q-95 -330 -80 -454z" />
    <glyph glyph-name="B_l_e_s_t_i_v_e_space_S_c_r_i_p_t.liga" unicode="Blestive&#x20;Script" horiz-adv-x="8591" 
d="M1364 1149q77 -75 72 -162t-59 -167t-136.5 -160t-160.5 -142t-129.5 -112.5t-45.5 -71.5q42 -18 96 -51q38 14 63.5 11.5t39.5 -11.5t10 -15q-2 -3 -5 -3.5t-14 -2.5t-24 -6q166 -71 166 -178q0 -72 -63 -146q-85 -104 -246 -165t-297 -46q-34 4 -69 16t-52 32
q-34 41 1.5 116.5t121.5 157.5q-23 -1 -45.5 0t-38 19.5t-12.5 52.5q6 54 22 118q117 469 344 787q19 19 55.5 15.5t72 -18.5t34.5 -24q0 -1 -21.5 -33t-58 -89.5t-77.5 -129.5t-87 -170t-80 -194q19 27 63 69t96.5 85.5t112.5 96.5t113.5 104.5t96.5 107.5t65 106.5
t15.5 101.5t-48.5 93q-67 67 -208 67q-294 0 -500 -175q-126 -108 -175 -239q-38 -101 -6 -146q15 -21 44 -21q34 0 59 32q10 13 20 8.5t7 -18.5q-6 -30 -36.5 -46t-70.5 -13q-66 7 -105 55.5t-44 120.5q-4 64 18.5 132.5t77.5 137t135.5 122.5t204.5 88t272 34
q132 0 242 -33.5t174 -97.5zM618 -174q27 -27 75.5 -28t102 19t110 54t101 74t73 83.5t28.5 77.5q0 36 -26 69.5t-70 57.5q-98 -55 -174.5 -107t-127 -96.5t-79.5 -83.5t-31 -68.5t18 -51.5zM672 80q124 108 276 178q-47 15 -112.5 28t-90.5 25q-17 6 -20 19
q-2 -8 -12 -38.5t-13 -47.5q-28 -103 -28 -164zM1350 330q38 186 127 447t141 366q1 1 3 5l2.5 5t2.5 3.5t4 3.5t5 2t7 2t9 1q51 4 90 -20q5 -4 7 -6.5t2 -6t-0.5 -5.5t-3 -7t-3.5 -8q-75 -166 -169 -461.5t-108 -455.5q-4 -46 2 -76.5t18 -41.5t27 -13.5t27.5 3t20.5 13.5
q82 81 174 311q35 97 95 172t128 99q94 33 152 -14q55 -45 36 -131q-27 -122 -190 -242q-49 -35 -107 -68q-5 -67 12.5 -107t59.5 -39q39 2 79.5 24.5t76 61.5t63 74.5t54.5 83.5t37.5 67t23.5 46q12 54 65 114q98 110 234 181q41 23 64 29.5t55 0.5q30 -5 39 -12
q28 -8 38 -14q18 -12 7 -27q-37 -61 -53.5 -104t-18 -59.5t-2.5 -18.5q-15 -14 -68.5 -4.5t-62.5 28.5v15q8 33 39 98q-215 -156 -203 -280q1 -12 3.5 -22t5.5 -18t9 -15t10 -12t13 -10l13.5 -7.5t15.5 -6.5t16 -5.5t17.5 -5.5t17.5 -5q49 26 150.5 74.5t150.5 73.5l24 14
q56 217 162 500q-310 35 -420 -11q-1 0 -6.5 -2t-9 -2t-10.5 2t-16 10.5t-19 22.5q-24 24 -18 43q2 3 6.5 4.5t10 2t7.5 1.5q55 14 147 13.5t164 -6.5t185 -19q44 120 65 164q1 1 3 5l2.5 5t2.5 3.5t4 3.5t5 2t7 2t9 1q51 4 90 -20q5 -4 7 -6.5t2 -6t-0.5 -5.5t-3 -7
t-3.5 -8q-29 -68 -65 -160q152 -35 233 -67q12 31 49 73t56 54q14 11 39.5 -7.5t41.5 -45t7 -35.5q-90 -90 -119 -154q-8 -18 -61 -5.5t-66 32.5q-20 30 -85.5 58.5t-117.5 35.5q-66 -181 -122.5 -378.5t-65.5 -317.5q-4 -46 2 -76.5t18 -41.5t26.5 -13.5t27 3t20.5 13.5
q78 78 160 272q14 44 37.5 111.5t37.5 112t17 67.5q0 1 0.5 6.5t1.5 6.5t6 4t14 4q48 7 95 -19q20 -10 16 -24q-5 -26 -42.5 -132.5t-68 -214t-26.5 -163.5q0 -5 2 -5q6 -73 39 -66q70 15 222 361l1 2q2 2 2 7q13 147 4 221q-3 23 29 30.5t65.5 -4.5t34.5 -36
q4 -47 -7.5 -190t-14.5 -247q70 115 101.5 171t40.5 76.5t43.5 90t94.5 180.5q18 29 68 -4q28 -22 26 -32v-2l-368 -652q-29 -50 -135 -16q-30 10 -34 21t3 36q20 106 31 195q-105 -218 -175 -246q-11 -4 -31.5 -5.5t-48 3.5t-52.5 16.5t-44.5 38t-25.5 64.5q-2 10 -2 31
q-17 -34 -56 -82q-16 -19 -25 -28.5t-26 -22t-33 -17.5q-12 -4 -29.5 -5t-41.5 4t-46.5 16t-42 35.5t-31.5 60t-12 92t15 127.5l6 24q-246 -120 -248 -121q120 -59 80 -141q-31 -66 -124.5 -116t-172.5 -48q-41 2 -68 23t-30 55q-5 44 34.5 97t127.5 104q-125 47 -156 123
q-61 -100 -98 -150q-155 -209 -283 -198q-89 4 -134 61.5t-48 149.5q-37 -75 -78 -125q-16 -19 -25 -28.5t-26 -22t-33 -17.5q-12 -4 -29.5 -5t-41.5 4t-46.5 16t-42 35.5t-31.5 60t-12 92t15 127.5zM1554 -336q3 4 10 7t17.5 5.5t19 3.5t21.5 2.5t18 2.5q314 61 1058.5 100
t1600.5 39q1666 0 2511 -41q23 85 96 344q-65 -106 -111 -125q-11 -4 -31.5 -5.5t-48 3.5t-52.5 16.5t-44.5 38t-25.5 64.5q-8 60 22 174q-29 -20 -49.5 -23t-46.5 11q-34 21 -58 51q-37 53 -14 153q-90 -98 -167.5 -250t-78.5 -278q0 -12 -2 -18q-6 -8 -16 -5q-14 0 -35 17
q-29 22 -41.5 41.5t-11 32t1.5 26.5q5 76 27 199q-173 -266 -320 -266q-154 0 -185.5 152t47.5 319.5t202 210.5q35 14 73.5 8t70.5 -22t48.5 -50t7.5 -76q-19 -83 -71 -85q-30 -1 -46 19q-5 7 -2 11q86 115 61 140q-4 5 -13 5q-71 0 -143 -124q-70 -121 -89 -256
q-20 -136 35 -164q14 -8 33 -6q39 3 80.5 27.5t77.5 65t65.5 79t56.5 85.5t37 66.5t20 38.5l1 2q14 47 37 121t30 98q3 17 27 21q57 4 92 -17q12 -7 12.5 -13.5t-4.5 -16.5q-35 -107 -86 -281q99 184 215 276q7 18 15 31q2 4 4 10.5t3 8.5t4.5 6t7 3t11.5 -1q25 -7 51.5 -36
t26.5 -48q0 -5 -2 -10t-6 -12.5t-13 -28.5t-20 -49q-16 -44 -24 -74.5t-9 -46t4 -22t13 -4.5t20 9.5t23 16t25 19.5t22 16q9 25 31 88t32 96t13 53q0 1 0.5 6.5t1.5 6.5t6 4t14 4q48 7 94 -19q20 -10 17 -24q-5 -26 -42.5 -132.5t-68 -214t-26.5 -163.5q0 -5 2 -5
q6 -73 39 -66q70 15 222 361l1 2q0 1 1 3.5t1 3.5l6 20q6 23 27 104.5t30 114.5q1 6 2.5 9t8 6.5t18.5 5.5q55 4 90 -17q7 -4 10 -7.5t3.5 -5.5t-2 -8.5t-3.5 -8.5q-19 -58 -41 -152q64 104 135 160q34 26 59.5 31t65.5 -7q81 -22 101 -86q19 -61 0 -158.5t-74.5 -197
t-132.5 -152.5q-99 -69 -182 -59q-44 4 -107 31q-10 -39 -33.5 -123.5t-36.5 -132.5q206 -12 345 -27q111 -13 185 -46q50 -23 10 -29q-30 -5 -105 1q-177 15 -455 27q-27 -97 -43 -166q-4 -14 -11 -16q-5 -2 -14 0q-22 7 -49 34t-30 50q0 2 2.5 13.5t9.5 39t12 51.5
q-975 41 -2201 21q-1094 -18 -1779.5 -73t-938.5 -126q-1 0 -15 -4.5t-18.5 -6t-20 -3.5t-25.5 -1t-29 4t-36.5 10t-42 18.5t-51.5 27.5q-91 53 -78 88zM1866 299q111 69 188 184q58 85 48 119q-4 12 -17 12q-64 0 -126.5 -96.5t-92.5 -218.5zM2300 0q0 -50 61 -29
q61 20 118 79q36 37 44 67q4 22 -11 40t-40 21q-172 -96 -172 -178zM4002 512q52 119 130 206.5t152 117.5q103 43 183 -1q67 -37 72 -111q7 -101 -107 -196q-120 -101 -346 -166q-30 -80 -33 -151t17 -118t47.5 -77.5t58.5 -44.5q89 -38 187.5 28.5t131.5 203.5
q4 19 47 -10q43 -28 50 -51q2 -7 0 -11q-47 -93 -155.5 -163.5t-219.5 -71.5q-95 -2 -161.5 53.5t-93 143.5t-17.5 200t57 219zM4104 428q182 74 280 211q59 83 55 137q-1 26 -21 27q-64 0 -157 -112.5t-157 -262.5zM4880 657q-20 59 -2 123.5t61 129t107 125t136 111.5
t147.5 89t142.5 57q109 26 178 -2q80 -34 98 -112t-18 -172t-107.5 -193.5t-164.5 -181.5q-35 -30 -51 -43.5t-44 -34.5t-45.5 -28t-42.5 -15t-49 -6t-51 10q-36 10 -60 34.5t-31 42.5t-5 23q3 3 9.5 1t14.5 -8.5t11 -12.5q2 -4 5.5 -14t5.5 -12.5t10.5 -4.5t22 5t37.5 22
t58 41q144 107 269.5 292.5t103.5 282.5q-14 55 -141.5 -3t-271.5 -185t-197 -244q-22 -48 -28.5 -88t-0.5 -69t27.5 -54.5t46.5 -43.5t65.5 -37.5t76 -34t86.5 -36t89 -40.5q109 -53 152 -123q22 -41 21.5 -63.5t-15.5 -57.5q-49 -105 -176 -164t-271 -59q-265 0 -327 130
q-41 88 19 202q48 89 125 134q87 51 143 0q34 -30 48 -96q2 -11 -8 -8q-16 5 -25 21l-1 2q-21 49 -74 10t-89 -119q-47 -107 -4 -168q35 -51 130 -51q115 0 236 67t163 173q10 26 12 40.5t-1 27.5t-21 24t-42 22t-69 30q-42 17 -67 28q-305 128 -357 284zM6771 797
q-2 3 5.5 26t18.5 60.5t15 66.5q1 2 2 7t2 6q11 10 49 6.5t63 -17.5q14 -8 16.5 -12.5t0.5 -13.5q-5 -23 -17.5 -64.5t-15.5 -54.5q-11 -36 -12 -37q-15 -12 -67.5 -1.5t-59.5 28.5zM7025 53q59 -10 80 0q55 25 92 60t71 88q62 95 88.5 209.5t10.5 185.5q-2 9 -12 13.5
t-19 -1.5q-33 -16 -68 -51q-65 -62 -125 -176q-40 -76 -76 -174.5t-42 -153.5zM7246 838q1 3 22 10q156 52 496 59l4 6h4q15 33 38.5 85t36 79.5t24.5 56.5t16 44q12 38 58 1q37 -30 48 -62l2 -7q0 -3 -1.5 -10t-6 -18.5t-9 -23.5t-13 -31t-15.5 -35t-19 -42t-20 -45
q233 -3 445 -26q5 -1 16 -2t15.5 -1.5t13 -2.5t13.5 -5.5t12 -10t14 -15.5q5 -7 6.5 -12t1.5 -7.5t-2.5 -4.5t-5 -2.5t-7 0t-7 1t-6.5 1.5l-5 1q-259 27 -532 27q-50 -115 -86.5 -207.5t-76 -212t-54.5 -223t-2 -178.5q28 -164 157 -147q116 15 269 159q143 135 222 289
q67 129 50 209q-6 30 -27.5 44.5t-47.5 6t-44 -38.5q-9 -16 -18.5 -13.5t-9.5 17.5q1 33 30.5 53.5t71.5 22.5q47 2 86.5 -21t62.5 -69.5t24.5 -108t-33 -145t-103.5 -172.5q-56 -67 -123 -129l2 -2q-93 -85 -202.5 -134t-211.5 -45q-147 8 -226 130t-48 337q32 209 194 574
q-296 -14 -407 -68q-9 -5 -13 -7t-19 4t-34 26q-25 25 -20 41z" />
    <glyph glyph-name="t_i.liga" unicode="ti" horiz-adv-x="706" 
d="M612 770q-8 -18 -61 -5.5t-66 32.5q-20 30 -85.5 58.5t-116.5 35.5q-171 -473 -189 -696q-4 -46 2 -76.5t18 -41.5t26.5 -13.5t27 3t20.5 13.5q78 78 160 272q14 44 37.5 111.5t37.5 112t17 67.5q0 1 0.5 5t1 5.5t3 4t7 4t11.5 2.5q48 7 94 -19q20 -10 16 -24
q-5 -26 -42.5 -132.5t-68 -214t-26.5 -163.5q0 -5 2 -5q6 -73 39 -66q71 15 223 363q1 3 3 8l3 7.5t3 5t5.5 3.5t9 0.5t13.5 -1.5q20 -4 22 -11t-3 -12q-93 -210 -147 -295q-57 -90 -99 -106q-11 -4 -31.5 -5.5t-48 3.5t-52.5 16.5t-45 38t-26 64.5q-2 10 -2 31
q-19 -37 -55 -82q-16 -19 -25 -28.5t-26 -22t-33 -17.5q-12 -4 -29.5 -4.5t-42 3.5t-46 16.5t-42.5 35t-31.5 60t-12.5 91.5t15 128q52 249 183 590q-310 35 -420 -11q-1 0 -6.5 -2t-9.5 -2t-11 2t-16 10.5t-19 22.5q-24 24 -18 43q2 3 6.5 4.5t10.5 2t8 1.5q55 14 147 13.5
t163 -6.5t185 -19q41 112 66 164q1 1 3 5l2.5 5t2.5 3.5t4 3.5t5 2t7 2t9 1q51 4 90 -20q5 -4 7 -6.5t2 -6t-0.5 -5.5t-3 -7t-3.5 -8q-42 -100 -66 -160q155 -35 234 -67q12 31 49 73t55 54q14 11 39.5 -7.5t41.5 -45t7 -35.5q-90 -90 -119 -154z" />
    <glyph glyph-name="underscore_underscore.liga" unicode="__" 
d="M-1444 -369q-1 -1 -5.5 -3.5t-6.5 -3.5t-7 -3t-8.5 -2h-9.5t-11.5 2t-13 6t-15.5 9.5t-17.5 14t-20.5 19.5q-43 43 -36 72q2 5 8.5 8.5t18.5 6t14 3.5q152 51 510.5 83t771.5 32q1107 0 1435 -61q55 -11 90 -39q28 -23 -7 -25q-15 -1 -40 2q-201 28 -560 42t-779 3
q-527 -14 -858 -60t-453 -106z" />
    <glyph glyph-name="underscore_underscore_underscore.liga" unicode="___" 
d="M-1853 -410q-1 -1 -5.5 -3.5t-6.5 -3.5t-7 -3t-8.5 -2h-9.5t-11.5 2t-13 6t-15.5 9.5t-17.5 14t-20.5 19.5q-44 44 -37 72q2 5 8.5 8.5t18.5 6t14 3.5q153 51 718 103.5t974 52.5q573 0 997.5 -30.5t642.5 -71.5q55 -11 90 -39q28 -23 -7 -25q-15 -1 -40 2
q-138 19 -240.5 30.5t-308 29.5t-459 25t-536.5 1q-530 -10 -1064.5 -79t-655.5 -128z" />
    <glyph glyph-name="underscore_underscore_underscore_underscore.liga" unicode="____" 
d="M-2058 -410q-1 -1 -5.5 -3.5t-6.5 -3.5t-7 -3t-8.5 -2h-9.5t-11.5 2t-13 6t-15.5 9.5t-17.5 14t-20.5 19.5q-44 44 -37 72q2 5 8.5 8.5t18.5 6t14 3.5q159 53 755.5 104.5t1141.5 51.5q587 0 1115 -32t730 -70q55 -11 90 -39q28 -23 -7 -25q-15 -1 -40 2
q-252 35 -733.5 64.5t-1015.5 21.5q-662 -10 -1230.5 -77.5t-694.5 -129.5z" />
    <glyph glyph-name="underscore_underscore_underscore_underscore_underscore.liga" unicode="_____" 
d="M-2263 -430q-1 -1 -5.5 -3.5t-6.5 -3.5t-7 -3t-8.5 -2h-9.5t-11.5 2t-13 6t-15.5 9.5t-17.5 14t-20.5 19.5q-44 44 -37 72q2 5 8.5 8.5t18.5 6t14 3.5q168 56 899.5 116t1447.5 60q637 0 1200.5 -69.5t815.5 -159.5q59 -22 91 -49q19 -15 -2 -14q-14 0 -44 9
q-283 82 -807.5 148t-1113.5 59q-835 -10 -1539.5 -87.5t-836.5 -141.5z" />
    <glyph glyph-name="uni005F005F005F005F005F005F" unicode="______" 
d="M-2673 -430q-1 0 -6 -3.5t-7.5 -4.5t-8 -3t-10 -1.5t-11.5 1.5t-14 5t-15.5 9.5t-19 14.5t-22.5 21q-44 44 -37 72q2 5 8.5 8.5t18.5 6t14 3.5q177 59 974.5 117.5t1781.5 58.5q806 0 1598 -71.5t1032 -157.5q59 -22 91 -49q19 -15 -2 -14q-14 0 -44 9
q-258 75 -1021.5 144t-1513.5 63q-577 -4 -1096.5 -30t-859.5 -62t-555.5 -72t-274.5 -65z" />
    <glyph glyph-name="uni005F005F005F005F005F005F005F" unicode="_______" 
d="M-3287 -430q-1 -1 -5.5 -3.5t-6.5 -3.5t-7 -3t-8.5 -2h-9.5t-11.5 2t-13 6t-15.5 9.5t-17.5 14t-20.5 19.5q-44 44 -37 72q2 5 8.5 8.5t18.5 6t14 3.5q186 62 1085 119t2286 57q1215 0 2103 -69t1141 -160q59 -22 91 -49q19 -15 -2 -14q-14 0 -44 9q-272 79 -1131.5 145
t-2017.5 62q-792 -3 -1449 -28.5t-1048 -62.5t-616 -72.5t-287 -65.5z" />
    <glyph glyph-name="uni338E338E338E338E338E338E338E338E338E338E.liga" unicode="&#x30;&#x30;&#x30;&#x30;&#x30;&#x30;&#x30;&#x30;&#x30;&#x30;" horiz-adv-x="4741" 
d="M2392 997q-71 0 -80 70q-4 20 -4 57q0 10 -0.5 35t-0.5 39t1.5 33t5.5 33q10 53 74 57q71 0 86 -45q7 -19 9 -40.5t0.5 -57t-1.5 -41.5q0 -54 -4 -74q-14 -66 -86 -66zM948 -70l6 400h64l49 -252l45 252h70v-400h-56l-6 166l-28 -166h-48l-32 162l-4 -162h-60zM1235 -70
v400h51l68 -193v193h61v-400h-49l-70 195v-195h-61zM1460 -70v72h70v-72h-70zM1468 -377q0 24 14 38.5t40 8.5q12 0 19 -4t9.5 -13t3 -15t0.5 -19h-20q0 24 -2 29q-4 10 -16.5 10.5t-18.5 -8.5t-6 -58q0 -46 8 -57q4 -9 16.5 -7.5t16.5 11.5q2 5 2 31h20q0 -62 -38 -62
q-12 0 -21 4t-14 12t-8.5 16t-4.5 21t-1 21t0.5 22t0.5 19zM1554 70l62 4q0 -49 16 -72q8 -20 25 -12q16 3 16 33q0 14 -7.5 30t-13.5 24.5t-21.5 25.5t-18.5 20q-2 2 -17.5 17t-19.5 24q-25 40 -16 92q2 43 42 66.5t82 3.5q52 -25 52 -127l-62 -4q-1 7 -1.5 22.5t-1.5 25
t-6.5 19t-14.5 10.5q-22 1 -27.5 -17t-1.5 -34q3 -8 8 -15.5t9 -11.5t11.5 -10.5t10.5 -9.5l31 -37q56 -53 47 -131q-2 -27 -20.5 -50t-49.5 -32q-31 -3 -57.5 9.5t-38.5 39.5q-17 41 -17 97zM1573 -406q0 28 1.5 42t12.5 26t33 8q13 0 22.5 -5.5t14 -11.5t6.5 -20t2 -19.5
v-21.5v-23t-2 -21t-6.5 -21.5t-14 -12.5t-22.5 -6q-11 0 -19.5 2.5t-13.5 9t-8.5 11.5t-4.5 15.5t-1.5 15.5t0 17t0.5 15zM1577 1001v318h68q59 0 77 -35q15 -28 12 -64t-28 -55q-18 -18 -86 -18v-146h-43zM1579 758v198h41v-213q0 -61 27 -75q32 -9 45.5 13t13.5 56v103
v116h43v-145q0 -4 1 -35.5t-0.5 -45t-5.5 -36.5t-16.5 -36t-31.5 -19q-27 -14 -62 -1t-47 44q-8 20 -8 76zM1593 -393q0 -2 -0.5 -13t0 -19t1.5 -18.5t4 -17t8 -8.5q32 -17 34 33v22q0 1 0.5 12t0 17.5t-1.5 15.5t-3.5 14.5t-7.5 6.5q-16 8 -25.5 0t-9.5 -23v-22zM1620 1182
q38 0 47 2q27 7 27 45q0 49 -27 55q-8 3 -16 3.5t-18 -0.5t-13 -1v-104zM1634 -287v162h62v-16h-37v-56h31v-14h-31v-76h-25zM1686 -489v159h24l31 -127l24 127h23l2 -159h-16v118l-25 -118h-18l-27 118v-118h-18zM1710 -201q0 26 1.5 39.5t13 27t34.5 13.5q7 -1 12.5 -3.5
t9.5 -5.5t7 -7.5t5 -8t3.5 -10t2 -10t1 -11t0.5 -10v-11v-9.5q0 -14 -0.5 -22t-2.5 -21t-6.5 -19.5t-13.5 -12t-22 -5.5q-16 0 -26 6.5t-14 20.5t-4.5 23t-0.5 28v8zM1733 -197q0 -2 -1 -16t-1 -23.5t4.5 -21t13.5 -14.5q10 -2 16.5 2.5t9 16t3 19.5t0.5 21q0 2 0.5 12.5
t0 17.5t-1.5 16.5t-4 15.5t-8 8q-11 9 -21.5 -1t-10.5 -26v-27zM1765 1001v318h121v-33h-78v-104h66v-35h-66v-117h82v-29h-125zM1767 131q0 97 2 115q11 63 58 84q56 11 90 -8q7 -4 12.5 -10t10 -11t7.5 -13t5.5 -13t4 -15t2 -14.5t1 -15.5t0.5 -14v-15v-13h-66q0 52 -3 65
t-17 19q-37 5 -37 -55v-143q0 -2 -0.5 -15t0 -21.5t2 -20t7 -18.5t14.5 -9q8 -1 14 -2.5t10 4t7.5 9t5 12.5t2.5 14.5t1.5 15t0.5 14.5v12.5v8.5h-41v59h104v-207h-53l-2 13q-18 -17 -48.5 -18t-50.5 12q-32 15 -41 81q-2 19 -2 113zM1784 725l45 12q5 -46 14 -55
q11 -11 25.5 -12.5t23.5 8.5q14 8 14 28t-10 33q-3 3 -7 9t-7 10t-8.5 8.5t-11.5 7.5q-1 1 -28.5 24t-35.5 38q-20 30 -10 69t47 51q41 7 78 -12q26 -21 26 -67l-34 -15q-4 53 -33 58q-16 6 -27.5 -2t-13.5 -21q-5 -7 -2 -16.5t4 -14.5t8.5 -13.5t12 -12.5t13.5 -11.5
t13 -11.5q3 -3 14 -12t15 -12.5t12 -12t11.5 -15t7 -15.5t4.5 -19q8 -38 -13 -67t-59 -29t-61.5 25.5t-26.5 64.5zM1819 -489v159h24l29 -127l26 127h21l4 -159h-14l-4 118l-25 -118h-18l-23 118l-4 -118h-16zM1825 -287v162q2 0 17 1t24.5 0t17.5 -5q19 -11 20 -40.5
t-20 -37.5l25 -80h-25l-22 76h-19v-76h-18zM1839 393v168q4 0 15 0.5t17.5 0.5t15.5 -1.5t15.5 -6t10.5 -11.5q5 -13 4 -33t-8 -29q-13 -10 -47 -10v-78h-23zM1843 -197q41 0 41 31q0 16 -10 20.5t-31 4.5v-56zM1862 485q18 0 22 4q12 6 12 33q0 19 -7 23t-27 4v-64z
M1923 1001v318q6 0 30.5 0.5t36 0t29 -3.5t29.5 -9q36 -21 37 -76.5t-37 -69.5l39 -160h-39l-45 148h-33v-148h-47zM1939 393v168h17v-149h43v-19h-60zM1950 -489v159h63v-14h-39v-49h31v-17h-31v-65h39v-14h-63zM1960 -141v16h84v-16h-31v-146h-24v146h-29zM1970 1182
q29 0 45 2q31 16 25 55q0 36 -25 43q-6 3 -12.5 4t-11.5 1t-11.5 -0.5t-9.5 -0.5v-104zM1976 -121l109 502h61l-112 -502h-58zM1982 639v317h123v-36h-80v-103h64v-33h-64v-116h80v-29h-123zM2015 393v168h62v-12h-41v-60h35v-18h-35v-59h41v-19h-62zM2030 -489v159
q7 0 21 1.5t23.5 1t16.5 -4.5q18 -13 18.5 -40.5t-20.5 -35.5l25 -81h-23l-18 79h-19v-79h-24zM2054 -393q11 0 14.5 0.5t10 2t8.5 6.5t2 13q0 27 -35 27v-49zM2054 -287v162h21v-72h45v72h22v-162h-22v76h-45v-76h-21zM2087 393l35 168h26l31 -168h-22l-9 47h-34l-7 -47
h-20zM2114 453h34l-16 79zM2114 1090l45 12q3 -43 16 -58q11 -11 26.5 -12t26.5 8q11 10 10.5 28.5t-10.5 33.5q-2 2 -8 9.5t-13 14.5t-16 13q-3 3 -26.5 24t-32.5 33q-22 33 -12 72.5t49 46.5q15 7 38 5t38 -13q23 -14 28 -66l-35 -12q-1 2 -4.5 16t-5.5 20t-8.5 14
t-15.5 11q-37 0 -43 -28q-7 -40 53 -80q4 -4 18.5 -19t20.5 -22t13.5 -20t10.5 -25q8 -39 -13 -69t-60 -30q-40 0 -63.5 26.5t-26.5 66.5zM2132 -377q0 24 13 38.5t38 8.5q14 0 22 -8.5t9.5 -17.5t1.5 -25h-23q0 1 1.5 7t1 12t-4.5 10q-1 10 -12.5 10.5t-17.5 -8.5
q-4 -4 -6 -12.5t-2 -15.5t0.5 -17.5t0.5 -12.5t-0.5 -11.5t-0.5 -16.5t2 -15.5t6 -13.5q6 -9 17.5 -7.5t12.5 11.5q4 4 4.5 9.5t-1 12t-1.5 9.5h23q0 -18 -2 -29t-11.5 -22t-27.5 -11q-16 0 -26 7t-13.5 22.5t-4.5 26.5t0 32.5t1 26.5zM2161 -72v400h114q27 0 50.5 -27
t23.5 -78q0 -70 -33 -88q37 -30 37 -102q0 -51 -23 -78t-51 -27h-118zM2165 -287v162h63v-16h-39v-56h31v-14h-31v-63h39v-13h-63zM2189 440l25 9q0 -33 10 -37q27 0 27 20q0 9 -6.5 18t-17 19t-13.5 14q-19 13 -23 33.5t13 36.5q19 16 45 6q22 -13 22 -41l-20 -4
q-9 35 -25 33q-11 -2 -12 -15q-7 -22 18 -43q3 -2 12 -8.5t13 -9.5t8.5 -9.5t5.5 -12.5q6 -22 -5 -39t-34 -17q-18 0 -29.5 13.5t-13.5 33.5zM2224 -12h33q16 0 23.5 19t5.5 46q-8 47 -35 47h-27v-112zM2224 158h27q28 0 28 51q0 61 -30 61h-25v-112zM2224 766q0 11 -0.5 34
t-0.5 37t1 33t4 33q17 53 78 53q69 0 82 -45q8 -18 10 -40t0 -56t-2 -41t0.5 -19t1 -20t-1 -18t-4.5 -19q-3 -30 -24 -46.5t-54 -16.5q-35 0 -59 17t-27 48q-4 23 -4 66zM2241 -489v159h22v-159h-22zM2271 737q0 -55 19 -65q23 -6 39 0q22 14 26 41q1 4 1 10.5t-0.5 14
t-0.5 10.5v114q0 39 -12 49q-29 17 -39 9q-24 0 -33 -25q-3 -15 -3 -32t1.5 -38t1.5 -32v-56zM2279 -489l35 159h23l37 -159h-21l-8 43h-33l-8 -43h-25zM2290 393v168h65v-12h-41v-60h31v-18h-31v-59h43v-19h-67zM2298 -287v162h61v-16h-45v-56h31v-14h-31v-76h-16z
M2314 -436h29l-14 80zM2355 1098q0 -53 23 -64q21 -8 37 0q22 11 22 43v144q0 41 -14 55q-12 17 -35 10q-23 -3 -31 -33q-5 -11 -5.5 -27.5t1.5 -39t2 -31.5v-57zM2374 -248v37v86h18v-72q0 -2 -0.5 -15t-0.5 -21t2 -19t7 -16.5t13 -5.5q9 0 14.5 5.5t7.5 16.5t2.5 18.5
t0 21.5t-0.5 15v72h21v-74v-11v-13.5t-0.5 -12.5t-2 -13.5t-3.5 -12t-5.5 -11.5t-8.5 -8t-11 -6q-46 -12 -53 39zM2388 -489v159h22v-145h44v-14h-66zM2388 -72v400h68v-334h84v-66h-152zM2410 561h25l23 -121l24 121h21l-35 -168h-23zM2443 639v317h31l90 -213v213h39v-317
h-31l-94 215v-215h-35zM2482 -287v162h25v-149h37v-13h-62zM2509 -330h18l25 -116l26 116h19l-37 -159h-16zM2519 393v168h25v-168h-25zM2527 1001v318h27l90 -213v213h39v-318h-31l-88 213v-213h-37zM2560 -287v162h23v-149h40v-13h-63zM2564 440l23 9q0 -10 4.5 -22
t11.5 -15q20 0 20 20q-1 6 0 8.5t-2.5 8t-5 7.5t-6.5 7l-7 7t-7.5 6.5t-7.5 6.5q-10 9 -16.5 21t-6 26t13.5 23q27 16 43 6q19 -11 23 -41l-21 -4q-2 21 -9 28.5t-14 3.5t-11 -14q-3 -3 -1.5 -8.5t1.5 -8t4 -8t6 -7t6.5 -6l5.5 -5.5q31 -25 33 -40q6 -22 -4.5 -39t-30.5 -17
q-37 0 -45 47zM2574 -72v400h156v-70h-90v-86h72v-72h-72v-106h90v-66h-156zM2615 -489v159h66v-14h-43v-49h35v-17h-35v-65h43v-14h-66zM2652 639v317h43v-288h76v-29h-119zM2664 393v168h25v-168h-25zM2681 -287l29 162h26l35 -162h-25l-4 41h-32l-11 -41h-18zM2697 -489
v159q6 0 20 1.5t25 1t19 -4.5q18 -12 16.5 -41t-22.5 -35l24 -81h-22l-21 79h-16v-79h-23zM2703 549v12h76v-12h-26v-156h-19v156h-31zM2710 -231h26l-12 75zM2714 1001l69 318h43l68 -318h-41l-17 76h-65l-16 -76h-41zM2720 -393q15 0 20 0.5t10 5.5t5 16q0 16 -8 21.5
t-27 5.5v-49zM2765 68l61 4q0 -48 13 -70q7 -22 24 -14q16 2 16 32q0 15 -8 31t-14 24t-22.5 25t-18.5 19q-6 9 -18 22t-15 19q-25 37 -18 94q1 44 43 66.5t82 3.5q53 -23 53 -127l-64 -4q0 71 -24 77q-19 1 -25.5 -19t0.5 -32q3 -8 7 -15.5t7.5 -11t10 -10.5t8.5 -10
l35 -35q55 -65 47 -133q-2 -28 -21 -51.5t-49 -30.5q-30 -3 -57.5 9t-40.5 40q-12 31 -12 97zM2779 1110h51l-24 143zM2787 -287v162h15l45 -106v106h20v-162h-14l-43 111v-111h-23zM2787 956h39l47 -153l49 153h44q-6 -19 -21 -64t-23 -71l-22 -63q-3 -6 -3.5 -13.5
t0.5 -17t1 -12.5v-76h-45v63q0 4 0.5 15t0.5 20t-1 15q-11 40 -23 59zM2798 -442l20 4q0 -26 12 -31q11 -6 20 0t9 16q0 20 -41 47q-17 17 -20 37.5t14 32.5q10 9 23 10.5t20 -4.5q18 -7 18 -37l-14 -8q-1 3 -3 11.5t-4 13t-7 6.5q-13 8 -25 -8q-3 -3 -1.5 -8.5t1.5 -7.5
t4.5 -6.5t6 -6.5t7 -6t7.5 -6q3 -4 11 -12.5t12.5 -16.5t4.5 -18q8 -20 -0.5 -36t-29.5 -16q-22 0 -33.5 14t-11.5 36zM2894 -287v162q2 0 11.5 0.5t15.5 0t14.5 -1.5t16 -3.5t14.5 -7.5t9 -16t0.5 -31t-1.5 -23q0 -4 1 -19t0 -21.5t-5 -15.5t-13 -13q-13 -11 -63 -11z
M2898 -489v159h20v-159h-20zM2916 -274q11 0 16 0.5t11.5 6.5t9.5 19v82q-1 17 -9.5 21t-27.5 4v-133zM2927 1001v318h45v-289h80v-29h-125zM2941 -406q0 28 1.5 42t13.5 26t36 8q10 0 17 -2t11.5 -8t7.5 -9.5t4 -14t1 -14v-16.5v-14v-23t-2 -21t-6.5 -21.5t-14 -12.5
t-22.5 -6q-17 0 -27.5 7t-14.5 21.5t-4.5 23.5t-0.5 27v7zM2963 258v70h183v-70h-56v-330h-69v330h-58zM2970 -393q0 -2 -2.5 -23.5t-1 -35.5t9.5 -17q7 -4 12.5 -4.5t9 1.5t6.5 5t4.5 9.5t2.5 11t1.5 11.5t0.5 11v10q0 63 -11 66q-32 14 -32 -23v-22zM2988 639v43h45v-43
h-45zM2988 956h45l-16 -251h-15zM3058 -489v159h12l49 -106v106h19v-159h-17l-51 112v-112h-12zM3178 -72v400h70v-400h-70zM3281 328h63l29 -277l33 277h67l-67 -400h-66zM3508 -72v400h156v-70h-90v-86h73v-72h-73v-106h90v-66h-156z" />
    <glyph glyph-name="a_numbersign.liga" unicode="a&#x23;" horiz-adv-x="1263" 
d="M950 850q80 17 142 -38.5t69.5 -171.5t-82.5 -290q-39 -77 -96 -149l2 -2q-77 -101 -176 -168.5t-199 -79.5q-67 -9 -126.5 9.5t-99 54t-62 79.5t-21.5 86q3 59 25 135q-41 -69 -68 -113.5t-51 -81.5t-41 -57t-31 -34t-28.5 -18t-26.5 -4t-31 3q-54 8 -77.5 32t-30.5 64
q-7 50 10 137.5t52.5 179.5t101 164t143.5 81q119 14 168 -76q17 43 20 76q3 13 8 16q5 2 15 4q53 7 94 -18q15 -7 18 -13.5t0 -11.5q-2 -6 -6.5 -21.5t-9 -30t-8.5 -28.5q-8 -23 -24 -66.5t-27.5 -76.5t-26.5 -79t-23.5 -81.5t-15.5 -75.5t-4.5 -70t10.5 -56.5t28.5 -42.5
t51.5 -21q52 -8 117.5 31.5t126 108.5t118 157t92.5 176.5t51 167.5t-7 131q-12 28 -35.5 38.5t-47.5 -2t-36 -46.5q-4 -12 -10.5 -15t-12.5 1.5t-8 13.5q-4 32 21.5 58t64.5 34zM84 57q31 18 72 82q61 88 140.5 226.5t98.5 179.5q-17 51 -42.5 70t-53 10t-57.5 -41
q-92 -97 -142 -287q-43 -161 -16 -240z" />
    <glyph glyph-name="c_numbersign.liga" unicode="c&#x23;" horiz-adv-x="923" 
d="M612 905q79 16 140.5 -39.5t69 -171.5t-82.5 -291q-44 -83 -96 -149q2 0 2 -2q-16 -22 -70 -80q-54 -54 -121.5 -94t-135 -61.5t-132 -20.5t-114 23.5t-80 75t-31.5 130.5q-1 89 32 185.5t93 172.5t131 101q35 14 74 8.5t70.5 -21.5t48.5 -49t8 -75q-19 -83 -71 -85
q-30 -1 -46 19q-5 7 -2 11q88 117 59 139q-4 4 -12 4q-55 0 -112.5 -78t-91.5 -183t-33 -186q2 -91 42.5 -122t102 -5t131.5 95q90 88 167.5 216.5t113.5 254t8 194.5q-18 45 -59.5 43t-59.5 -53q-4 -11 -10.5 -14t-12 1t-6.5 13q-6 33 19.5 59t66.5 35z" />
    <glyph glyph-name="d_numbersign.liga" unicode="d&#x23;" horiz-adv-x="1286" 
d="M973 850q80 17 141.5 -38.5t69 -171.5t-81.5 -290q-49 -89 -96 -149q0 -2 2 -2q-79 -102 -177.5 -169t-199.5 -79q-83 -11 -152 19.5t-110 86.5l-2 -2q-75 86 -23 301q-112 -192 -178 -284q-30 -44 -55.5 -58t-67.5 -8q-31 7 -51 17q-52 24 -60 81q-7 55 13 146
q14 69 38 134t59 128.5t86.5 105t111.5 48.5q111 14 163 -68q37 133 83.5 272.5t80.5 225.5t43 92q13 8 51.5 2.5t59.5 -19.5q5 -4 8 -6.5t3 -6t-1 -5t-3.5 -7t-4.5 -9.5q-15 -35 -36 -91t-53.5 -144.5t-61 -181.5t-56.5 -194.5t-42.5 -191.5t-17.5 -164t18 -120.5t65 -53.5
q52 -8 117.5 31.5t125.5 108.5t117 157t92 176.5t50.5 167.5t-7.5 131q-12 28 -35 38.5t-47 -2t-37 -46.5q-6 -18 -16 -16.5t-12 16.5q-4 32 21 58t65 34zM76 53q7 5 14.5 11.5t12.5 11.5t13 15t10.5 13.5t11 16t9.5 14.5q25 37 56 86t60.5 100t52.5 90.5t45.5 79.5t25.5 46
v6q-17 50 -43 69t-53.5 10t-57.5 -40q-91 -99 -141 -287q-42 -163 -16 -242z" />
    <glyph glyph-name="e_numbersign.liga" unicode="e&#x23;" horiz-adv-x="923" 
d="M610 905q80 16 141.5 -39.5t69 -171.5t-81.5 -291q-44 -83 -96 -149q2 0 2 -2q-47 -55 -70 -80q-83 -81 -188 -128.5t-199 -47.5q-106 0 -165 59q-43 43 -55 113t-2.5 129t28.5 113q33 100 93 176t130 100q95 33 153 -14q56 -45 38 -131q-27 -122 -190 -242
q-49 -35 -107 -68q0 -25 -1.5 -53t7.5 -59t30 -49q40 -33 102.5 -9t135.5 95q140 137 235.5 349t51.5 316q-17 45 -58 43t-59 -53q-5 -11 -11.5 -14t-12 1t-7.5 13q-4 33 21 59t65 35zM127 324q111 69 187 183q58 85 48 120q-4 12 -18 12q-62 0 -124.5 -97t-92.5 -218z" />
    <glyph glyph-name="f_numbersign.liga" unicode="f&#x23;" horiz-adv-x="952" 
d="M639 1110q80 16 141.5 -39.5t69 -171.5t-81.5 -291q-44 -83 -96 -149q2 0 2 -2q-77 -100 -176 -167.5t-201 -80.5q-83 -11 -162 24q28 -131 7.5 -244.5t-67 -189t-87.5 -71.5q-46 7 -80.5 71.5t-24.5 157.5q11 114 76.5 342t119.5 388t138 398q0 1 1.5 5.5t3.5 7.5t5 4
q11 6 39.5 -0.5t50 -28.5t9.5 -55q-154 -440 -211 -612q-7 -137 90 -150q52 -8 117.5 31t125 108t117 157t92.5 176.5t50.5 167.5t-7.5 130q-8 22 -24 33.5t-33.5 11t-34 -14.5t-26.5 -40q-6 -16 -16.5 -14.5t-12.5 14.5q-4 33 20.5 59t65.5 35zM-14 -166q0 -13 11.5 -18
t20.5 4q54 53 71.5 177t-21.5 255q-84 -282 -82 -418z" />
    <glyph glyph-name="h_numbersign.liga" unicode="h&#x23;" horiz-adv-x="1280" 
d="M967 850q79 17 140.5 -38.5t69 -171.5t-82.5 -290q-37 -73 -97 -149l2 -2q-77 -101 -175.5 -168.5t-198.5 -79.5q-68 -9 -129.5 11t-102 58t-62 88.5t-14.5 100.5q12 88 50.5 230t38.5 171q0 17 -9 17q-14 0 -65 -66q-94 -119 -173 -261t-100 -259q-1 -2 -1 -5.5t-1 -5.5
t-4 -3q-2 -22 -4 -23q-12 -15 -65 -5.5t-64 28.5q-4 7 4 53q32 205 129 563.5t158 519.5q0 1 1 4t1 3.5t1 3t1.5 3t2 2.5t2.5 2.5l3 1.5t4.5 1.5t5.5 1t7 0.5q21 2 48 -4.5t42 -16.5q13 -8 13.5 -14t-5.5 -16q-44 -128 -112 -370t-117 -450q63 116 172 269q37 50 71 75
q48 40 109 29q57 -9 74 -37q14 -21 6.5 -63t-22 -100.5t-34.5 -121t-31.5 -126t-13.5 -114.5t20.5 -86.5t69.5 -43.5q52 -8 117.5 31.5t126 108.5t118 157t92.5 176.5t51 167.5t-7 131q-12 28 -35.5 38.5t-47.5 -2t-36 -46.5q-6 -18 -16 -16.5t-12 16.5q-4 32 21 58t65 34z
" />
    <glyph glyph-name="i_numbersign.liga" unicode="i&#x23;" horiz-adv-x="917" 
d="M262 836q-15 -13 -68 -3t-59 27q-2 4 5.5 28t18.5 61.5t15 66.5q1 2 2 5.5t2 4.5q11 10 49.5 7t63.5 -17q13 -7 16 -13.5t0 -13.5q-5 -22 -17 -63.5t-16 -55.5q-11 -33 -12 -34zM-45 219q2 64 33 166.5t64.5 196t37.5 125.5q0 1 0.5 3.5t0.5 3.5t0.5 3t1.5 3l2.5 2.5
t3.5 2t5.5 1.5t8.5 1q46 7 94 -16q20 -12 16 -27q-7 -33 -38 -117.5t-57 -164.5t-43 -162.5t3 -138t82 -64.5q52 -8 117.5 31t125.5 108t117 157t92.5 176.5t51 167.5t-7.5 130q-18 45 -58.5 43t-60.5 -53q-4 -11 -10.5 -14t-12 1t-6.5 13q-4 33 20.5 58.5t65.5 33.5
q80 17 141.5 -38.5t69 -171t-81.5 -290.5q-55 -97 -96 -149q0 -2 2 -2q-80 -101 -178 -169t-199 -79q-67 -9 -126.5 9.5t-98.5 54t-61.5 79.5t-20.5 86z" />
    <glyph glyph-name="l_numbersign.liga" unicode="l&#x23;" horiz-adv-x="921" 
d="M610 901q80 17 141.5 -38.5t69 -171t-81.5 -290.5q-44 -83 -96 -149l2 -2q-78 -101 -176.5 -169t-198.5 -79q-66 -9 -131.5 12.5t-111.5 67.5q-38 38 -46.5 118.5t8 178.5t46 208t66 212t69 185t54 133t22.5 50q0 1 1 3q5 14 14 17l18 3q21 2 47 -4.5t41 -16.5q7 -4 9 -8
t2 -6t-3 -8.5t-4 -9.5q-17 -39 -47.5 -119.5t-73.5 -202.5t-76 -247t-53.5 -238t-8 -190.5t63.5 -90.5q43 -12 97.5 14t107 78.5t105.5 123t92.5 148.5t69 155t35 141.5t-10.5 109.5q-17 45 -58 43t-59 -53q-4 -11 -10.5 -14t-12.5 1t-8 13q-4 33 21 58.5t65 33.5z" />
    <glyph glyph-name="m_numbersign.liga" unicode="m&#x23;" horiz-adv-x="1505" 
d="M1192 850q80 17 141.5 -38.5t69 -171.5t-81.5 -290q-39 -77 -96 -149l2 -2q-77 -101 -176 -168.5t-201 -79.5q-66 -9 -125.5 9.5t-98.5 54t-61.5 79.5t-21.5 86q3 102 80 326q35 101 27 103q-3 1 -9 -5q-35 -33 -70.5 -76t-82.5 -114t-80 -166t-41 -195q0 -4 -16 -11.5
t-40.5 -7t-42.5 18.5q-16 16 -17 57.5t9 104.5q10 74 69 280q36 123 22 126q-4 1 -11 -5q-64 -54 -121 -142.5t-92.5 -178t-56 -154.5t-27.5 -102q-5 -19 -62.5 -8.5t-68.5 30.5q-4 6 13.5 88t58.5 231t92 294q3 7 4 9t7 5t17 4q21 2 49 -4t42 -16q5 -3 8 -6t4 -5t0.5 -5
t-1 -4.5t-2.5 -6t-3 -6.5q-23 -58 -37.5 -103t-28.5 -94.5t-22 -74.5q70 130 143 231q62 82 102 94q30 8 62.5 -2.5t44.5 -34.5q3 -20 2.5 -35t-10 -54t-18 -68.5t-22 -77.5t-22.5 -82q73 142 156 254q63 84 106 94q32 6 68 4.5t63 -14t23 -29.5q-6 -30 -25 -84t-38.5 -109
t-40 -118.5t-31 -119t-10 -103.5t23.5 -79t68 -38q52 -8 117.5 31.5t125.5 108.5t117 157t92 176.5t50.5 167.5t-7.5 131q-17 44 -57.5 42.5t-60.5 -52.5q-4 -12 -10.5 -15t-12 1.5t-6.5 13.5q-4 32 21 58t65 34z" />
    <glyph glyph-name="n_numbersign.liga" unicode="n&#x23;" horiz-adv-x="1126" 
d="M969 850q79 17 140.5 -38.5t69.5 -171.5t-81 -290q-39 -71 -97 -149v-2q-77 -101 -175.5 -168.5t-198.5 -79.5q-91 -12 -154.5 5.5t-94 55.5t-43.5 93t-8.5 114t16 122.5t26.5 115.5t26 95.5t11 59.5q0 17 -9 17q-14 0 -65 -66q-76 -97 -132.5 -188t-83.5 -152.5
t-42 -108.5t-20 -71.5t-7 -26.5q-14 -15 -67 -5.5t-64 28.5l4 21q2 9 4 22q10 65 21 122t27.5 124t26 101.5t34 122.5t33.5 120q3 9 3.5 10t6.5 4t18 4q49 7 90 -14q13 -7 13.5 -14t-4.5 -17q-20 -61 -48.5 -175.5t-35.5 -152.5q58 108 172 269q33 48 71 78q26 20 50 26
t59 0q57 -9 74 -37q13 -21 5.5 -63t-21 -100.5t-33 -121.5t-30.5 -126.5t-12.5 -115t20.5 -87t68 -43.5q52 -8 117.5 31.5t126 108.5t118 157t92.5 176.5t51 167.5t-7 131q-12 28 -35.5 38.5t-47.5 -2t-36 -46.5q-6 -18 -16 -16.5t-12 16.5q-4 32 21 58t65 34z" />
    <glyph glyph-name="o_numbersign.liga" unicode="o&#x23;" horiz-adv-x="933" 
d="M729 1065q40 -42 66 -105t33 -144t-7.5 -167.5t-62 -183t-123.5 -182.5q-61 -70 -123.5 -109t-140.5 -43h-37q-100 -120 -220 -138.5t-177.5 65t2.5 221.5q24 52 57 94q-3 34 2 61v12q1 69 36.5 128t90.5 92q76 46 184 22q122 -27 154 -115q16 -43 11 -101t-19.5 -109.5
t-36.5 -100.5q-11 -25 -41 -74q25 5 55 19q24 15 45 33q93 85 143.5 211.5t54.5 243.5t-18 214.5t-63 139.5q-34 35 -71 17.5t-36 -73.5q1 -18 -8.5 -20.5t-17.5 10.5q-25 42 14 90q42 51 111 55q79 5 143 -63zM53 451q-1 -4 3.5 -6t9.5 1q16 16 34 31q27 21 37 23
q23 3 40.5 -2.5t26 -15t12.5 -20.5t3.5 -20t-4.5 -12q-66 -62 -121 -156q45 -48 119 -73q34 68 59.5 143t30.5 115q20 177 -51 195q-50 13 -115 -51q-67 -66 -82 -143q-1 -4 -2 -9zM72 236q-22 -42 -31 -77.5t-0.5 -64t37.5 -39.5h6q52 16 109 111q-68 20 -121 70z" />
    <glyph glyph-name="q_numbersign.liga" unicode="q&#x23;" horiz-adv-x="1214" 
d="M952 213q79 20 142 -34t74.5 -169.5t-72.5 -292.5q-43 -84 -92 -153h2q-74 -103 -171.5 -174.5t-197.5 -85.5q-146 -23 -249 79t-116 318q-6 92 9.5 230.5t32 227.5t44.5 220q-108 -193 -188 -305q-30 -43 -56 -57t-67 -7q-16 2 -51 15q-51 23 -59 81q-8 56 12 148
q14 68 38 133t59 128t86.5 104.5t111.5 48.5q111 14 164 -66q12 64 14 80q7 12 36 11t61 -13.5t32 -26.5q0 -32 -24.5 -138.5t-52.5 -238t-51.5 -275t-22 -283.5t37.5 -230q64 -162 195 -108q107 44 222 210q116 169 159 340q34 132 2 203q-20 44 -61 40.5t-58 -54.5
q-3 -11 -9 -14.5t-12 0.5t-8 12q-6 33 18.5 60t65.5 36zM80 57q31 18 72 82q59 86 136.5 219.5t104.5 186.5q-18 51 -44 70t-53.5 10t-57.5 -41q-93 -100 -142 -287q-43 -161 -16 -240z" />
    <glyph glyph-name="u_numbersign.liga" unicode="u&#x23;" horiz-adv-x="1241" 
d="M928 850q80 17 141.5 -38.5t69 -171.5t-81.5 -290q-49 -89 -96 -149l2 -2q-77 -101 -176 -168.5t-201 -79.5q-66 -9 -125.5 9.5t-98.5 54t-61.5 79.5t-21.5 86v6q-77 -139 -132 -161q-15 -6 -43 -5.5t-62 8.5t-62 37.5t-35 75.5q-9 58 21.5 167t69 217t42.5 141
q0 1 0.5 6.5t2 6.5t6 3.5t13.5 3.5q19 3 47 -2.5t48 -15.5q13 -7 16 -13.5t0 -13.5q-5 -26 -42.5 -132t-68 -213t-26.5 -163q0 -4 2 -4q6 -72 39 -67q68 13 215 346q12 35 34.5 98.5t34.5 101.5t15 60q0 1 0.5 6.5t2 6.5t6 3.5t13.5 3.5q49 7 94 -18q21 -10 17 -25
q-7 -33 -38 -117.5t-57 -164.5t-43 -163t3 -138.5t82 -65.5q52 -8 117.5 31.5t125.5 108.5t117 157t92 176.5t50.5 167.5t-7.5 131q-17 44 -58 42.5t-61 -52.5q-6 -18 -16 -16.5t-12 16.5q-4 32 21 58t65 34z" />
    <glyph glyph-name="x_numbersign.liga" unicode="x&#x23;" horiz-adv-x="1185" 
d="M874 909q79 17 140.5 -38.5t70 -171t-80.5 -289.5q-42 -76 -99 -152h2q-52 -67 -118.5 -124.5t-139 -98.5t-146 -54.5t-137.5 2t-115 77t-77 165.5q-22 -24 -52.5 -60.5t-71 -86t-56.5 -68.5q-7 -7 -11 -8t-36 2q-23 6 -27 14q-2 3 10 15q32 37 113 133t115 135
q-44 231 -49 270q-9 -19 -33.5 -84t-34.5 -88q-9 -19 -28 -7q-19 13 -13 32q43 101 100 278q9 19 45 21q54 7 84 -8q9 -4 15 -9.5t7 -9t2 -9.5t1 -7q3 -74 33 -240q93 95 231 224q4 3 13.5 12t13 10t15 1.5t28.5 -3.5q11 -3 17 -6t9 -5t1.5 -5t-2.5 -4.5t-5.5 -4.5t-5.5 -4
q-159 -142 -299 -288q36 -177 47 -212q26 -81 74 -97q7 -2 14 -3q52 -8 117.5 31.5t126 108.5t118 157t92.5 176.5t51 167.5t-7 131q-12 28 -35.5 38.5t-47.5 -2t-36 -46.5q-4 -12 -10.5 -15t-12 1t-6.5 12q-4 33 20.5 59t65.5 35z" />
    <glyph glyph-name="t_numbersign.liga" unicode="t&#x23;" horiz-adv-x="1009" 
d="M735 627q47 2 86.5 -21t62.5 -69.5t24.5 -108t-33 -145t-103.5 -172.5q-56 -67 -123 -129l2 -2q-93 -85 -202 -134t-211 -45q-147 8 -226.5 130t-48.5 337q31 206 195 574q-297 -14 -408 -68l-3 -2q-3 -2 -3.5 -2t-4 -1.5t-5 -1.5h-5t-6.5 1.5t-7.5 3.5t-9 5.5t-10 8.5
t-11.5 11q-25 25 -21 41q1 3 23 10q156 52 495 59l4 6h4q15 33 38.5 85t36 79.5t24.5 56.5t16 44q12 38 59 0q37 -29 48 -61q2 -4 2 -7t-1.5 -10t-6 -18.5t-9 -23.5t-13 -31t-15.5 -35t-19 -42t-20 -45q232 -3 444 -26q5 -1 16 -2t15.5 -1.5t13 -2.5t13.5 -5.5t12 -10
t14 -15.5q5 -7 6.5 -12t1.5 -7.5t-2 -4.5t-4.5 -2.5t-7 0t-7 1l-7.5 1.5l-4 1q-259 27 -533 27q-50 -115 -86.5 -207.5t-76 -212t-54.5 -223t-2 -178.5q28 -164 157 -147q116 15 269 159q143 135 222 289q67 129 50 209q-6 30 -27 44.5t-47 6t-44 -38.5q-9 -16 -19 -13.5
t-10 17.5q1 33 30.5 53.5t71.5 22.5z" />
    <glyph glyph-name="z_numbersign.liga" unicode="z&#x23;" horiz-adv-x="1050" 
d="M829 78q75 -43 104 -107t12.5 -120.5t-66.5 -88.5q-37 -24 -72.5 -25.5t-58.5 23.5q-8 9 -1 18t23 3q33 -14 57 -5t37.5 26.5t4.5 44.5t-42 49q-105 69 -386.5 112.5t-426.5 18.5q-9 -21 -12 -45q-36 0 -69 40t-23 62q11 23 61 79.5t143.5 155.5t129.5 138
q-62 -24 -123 -35.5t-115.5 -8.5t-89.5 31t-39 80q-1 24 10.5 52.5t23 44.5t31.5 39l21 24q3 5 16.5 6.5t28 -11t15.5 -40.5q-12 -42 30 -87q54 -56 135 -49q99 8 189 118q26 33 31 36q18 9 54.5 -25.5t33.5 -56.5l-23 -28q-49 -57 -191 -211t-196 -219q187 38 418.5 26.5
t324.5 -65.5z" />
    <glyph glyph-name="s_numbersign.liga" unicode="s&#x23;" horiz-adv-x="1026" 
d="M700 1153q78 23 142.5 -30t80 -170t-62.5 -300q-37 -81 -86 -157l2 -2q-71 -107 -165 -182.5t-193 -94.5q-4 0 -12 -1t-11 -1q26 -38 2 -88q-31 -66 -124.5 -116t-172.5 -48q-41 2 -68 23t-30 55q-5 44 34.5 97t127.5 104q-186 70 -166 202q10 57 68 123q99 111 233 181
q41 23 64 29.5t55 0.5q30 -5 39 -12q30 -9 39 -14q18 -12 6 -27q-37 -61 -53.5 -104t-18 -59.5t-2.5 -18.5q-15 -14 -68.5 -4.5t-62.5 28.5v15q8 37 39 96q-91 -64 -150.5 -137.5t-52.5 -141.5q2 -23 14.5 -41.5t36 -32t45 -23.5t53.5 -22.5t50 -21.5q52 0 114 47t116.5 121
t104 165.5t78 182t38 170t-16.5 129.5q-13 28 -37 37.5t-47 -5.5t-33 -50q-3 -11 -9.5 -15t-12 0t-6.5 13q-7 33 15.5 61t63.5 39zM45 33q0 -49 61 -28t118 80q36 37 44 67q5 21 -11 39.5t-40 19.5q-172 -94 -172 -178z" />
    <glyph glyph-name="v_numbersign.liga" unicode="v&#x23;" horiz-adv-x="620" 
d="M459 969q32 10 65.5 8t65 -22t55.5 -49t37 -74.5t10 -98.5q-5 -78 -70 -206.5t-153 -248.5t-191 -205.5t-176 -80.5q-51 3 -79.5 53.5t-34 123t0 163t17 166.5t21.5 140.5t10 78.5q0 26 47.5 27.5t67.5 -9.5q17 -6 30 -17.5t11 -17.5q-54 -225 -74.5 -370t-11.5 -202.5
t40 -57.5q52 0 148 149.5t171 337t75 287.5q0 33 -11.5 55.5t-28 29t-34.5 3t-32 -21t-19 -42.5q-3 -11 -9 -15t-12 -0.5t-8 11.5q-10 31 11.5 61t60.5 44z" />
    <glyph glyph-name="w_numbersign.liga" unicode="w&#x23;" horiz-adv-x="819" 
d="M649 948q78 23 142.5 -29.5t80 -169.5t-62.5 -300q-85 -193 -215.5 -315.5t-190.5 -113.5q-46 7 -74 29.5t-38 55.5t-13 76t1 91q-118 -237 -222 -254q-55 -9 -86 43q-11 20 -14 41q-9 73 20 215t65.5 252.5t51.5 120.5q21 11 70.5 0t52.5 -28q-15 -38 -37 -100.5
t-57.5 -209t-32.5 -239.5q0 -10 11.5 -14.5t17.5 3.5q60 76 180 330q15 72 46.5 161t43.5 97q19 11 69.5 0t51.5 -28q0 -3 -7.5 -22.5t-20 -53.5t-25.5 -77t-25 -105.5t-16 -127.5q-11 -149 33 -141q45 8 124 159q94 181 136 364q35 150 6 210q-13 28 -37 37.5t-47 -5.5
t-33 -50q-3 -12 -9 -15.5t-12 0.5t-8 13q-7 33 16 61t64 39z" />
    <glyph glyph-name="g_numbersign.liga" unicode="g&#x23;" horiz-adv-x="1157" 
d="M954 1065q48 -50 74.5 -133t26.5 -184q0 -99 -28 -188.5t-65.5 -154t-105.5 -127t-115.5 -98t-131 -77.5t-116 -56t-104.5 -42q-26 -10 -37 -15q-44 -128 -92 -226q-19 -37 -34.5 -63t-38.5 -56t-50 -49.5t-57 -25.5q-18 -5 -41 -2q-66 1 -96 29.5t-25 67.5t23.5 76.5
t44.5 63.5q17 17 41 35t45 31t59.5 36.5t63.5 39.5q68 179 133 377q-108 -188 -160 -258q-32 -43 -57.5 -57t-67.5 -7q-27 3 -49 16q-51 21 -60 80q-6 50 11 148q15 69 39 133t59.5 127t87 104.5t111.5 48.5q113 14 164 -67q1 2 2 7t2 7l6 37q0 1 0.5 6.5t1.5 6.5t6 4t14 4
q47 3 94 -19q19 -9 19 -20q-1 -7 -25 -81q-66 -206 -149 -470q9 5 45 24t59 31.5t65 38.5t71 48t69 56.5t67.5 67.5t57.5 78t48 90.5t30 102t12 116.5q0 108 -22.5 196t-59.5 126q-34 35 -70.5 17.5t-35.5 -73.5q1 -18 -9 -20.5t-18 10.5q-25 42 14 90q42 51 111 55
q79 5 143 -63zM-37 -338q-9 -44 4 -57q4 -4 15 -4q29 0 80 68t102 196q-99 -59 -132 -90q-53 -49 -69 -113zM78 49q33 21 72 82q61 90 141 228t98 178q-17 51 -42.5 70.5t-53 10.5t-57.5 -40q-90 -95 -142 -287q-42 -164 -16 -242z" />
    <glyph glyph-name="r_numbersign.liga" unicode="r&#x23;" horiz-adv-x="1239" 
d="M926 1010q80 17 141.5 -38.5t69 -171t-81.5 -290.5q-43 -82 -97 -150l3 -2q-78 -100 -177 -167.5t-200 -79.5q-88 -11 -158 17t-107 83.5t-49.5 131t13.5 157.5v2q-90 -100 -167.5 -253t-78.5 -278q0 -12 -2 -18q-7 -7 -17 -4q-18 3 -34 16q-29 22 -42 42t-11.5 33.5
t1.5 27.5q4 79 23 173.5t37.5 158t46.5 151.5t35 113q1 6 2.5 9t7 6t16.5 5q21 3 48.5 -1t44.5 -13q12 -8 12.5 -16t-4.5 -17q-35 -107 -86 -281q95 182 215 277q9 23 14 31q1 3 3.5 9t3 8t3 5.5t5 4t6.5 0.5t10 -1q24 -7 51 -35.5t27 -46.5q0 -6 -2.5 -12t-13.5 -30
t-25 -60l-13 -39q-31 -128 -5 -213t98 -96q52 -8 117.5 31t125 108t117 157t92.5 176.5t50.5 167.5t-7.5 130q-17 45 -58 43t-61 -53q-4 -11 -10.5 -14t-11.5 1t-6 13q-4 33 20.5 58.5t65.5 33.5z" />
    <glyph glyph-name=".notdef" horiz-adv-x="1079" 
d="M977 1434v-1434h-875v1434h875zM145 100l369 617l-369 614v-1231zM160 1393l379 -633l381 633h-760zM162 43h758l-379 631zM565 717l371 -621v1239z" />
    <glyph glyph-name=".null" 
 />
    <glyph glyph-name="uni000D" unicode="&#xd;" horiz-adv-x="512" 
 />
    <glyph glyph-name="uni000A" unicode="&#xa;" 
 />
    <glyph glyph-name="space" unicode=" " horiz-adv-x="450" 
 />
    <glyph glyph-name="exclam" unicode="!" horiz-adv-x="737" 
d="M629 1126q6 -18 6 -21t-4 -15q-64 -167 -189.5 -547.5t-134.5 -466.5q0 -9 -4 -13q-12 -14 -53 17.5t-47 62.5q-7 36 130 459t199 572q4 10 7.5 12.5t21.5 -0.5q18 -6 38.5 -24t29.5 -36zM102 -250q0 4 1 13.5t1 13.5q2 8 5.5 25.5t5.5 25.5q0 2 1 7t1.5 7t2 5.5t3 4t4 2
t6 1t8.5 -1.5q22 -6 49.5 -33t30.5 -49q0 -5 -2 -15t-2 -14q-4 -15 -8 -49q-3 -22 -11 -25q-6 -3 -16 0q-22 6 -49 32.5t-31 49.5z" />
    <glyph glyph-name="quotedbl" unicode="&#x22;" horiz-adv-x="552" 
d="M170 1186q13 7 43 -17.5t45 -54.5q5 -11 6 -20t0 -13t-6.5 -17t-7.5 -20q-38 -107 -45 -133l-6 -12q-15 -7 -44.5 17.5t-43.5 54.5q-5 11 -6.5 19.5t-1 11.5t5 16.5l6.5 19.5l49 136q0 9 6 12zM295 971q-4 9 -6 14.5t-1 12.5t1.5 10t5 13.5t6.5 16.5q7 22 23.5 67.5
t23.5 68.5q0 1 1 4t2.5 5t4.5 3q13 7 42.5 -17.5t43.5 -54.5q4 -9 6 -15.5t1 -13.5l-1.5 -10.5t-5 -14.5t-6.5 -16q-45 -127 -47 -133q0 -9 -6 -12q-13 -7 -43 17.5t-45 54.5z" />
    <glyph glyph-name="numbersign" unicode="#" horiz-adv-x="1007" 
d="M903 504q5 -9 -4 -12q-1 -1 -2 -1.5t-3 -0.5t-4 0.5t-7 1t-10.5 1t-16 1t-22.5 0.5q-82 4 -123 2l-70 -164h4q2 0 11 0.5t12.5 0t11.5 -2.5t14 -5.5t14.5 -11t16.5 -18.5q12 -16 12 -25q4 -7 -2 -10q-2 -2 -59 -2q-23 2 -66 2q-14 -33 -33.5 -79t-30 -69.5t-14.5 -31.5
q-1 -1 -2 -3t-2.5 -3.5t-3.5 -1.5q-8 -4 -24 0q-24 11 -48 39t-16 45q-2 0 -2 2q16 41 43 102h-90q-64 -172 -84 -235q-2 -7 -4 -9h-18q-20 6 -37 23q-15 12 -24 23.5t-13.5 18t-4.5 16.5t0.5 13t5 14t5.5 13q3 11 41 117q-89 -9 -92 -8q-22 2 -45 30q-19 25 -13 35q1 1 5 2
t6 2q122 13 168 15q8 23 25.5 68t25.5 67q-14 -2 -27 -2q-16 3 -34 20.5t-23 32.5q0 5 -1 7t1.5 4t3.5 2.5t4 1.5t4 1l105 13q44 120 84 215q4 9 8 10q14 5 43.5 -16.5t42.5 -46.5q4 -7 6 -12.5t1.5 -10.5t-1.5 -8.5t-4.5 -11.5t-5.5 -13q-8 -18 -22 -52t-15 -38l102 6
q64 150 103 236q2 3 5 9.5t4 9t3.5 6.5t4.5 5t5.5 2.5t7.5 1t9 -2.5q18 -6 37.5 -25t29.5 -37q4 -9 4 -16t-0.5 -10t-5.5 -13l-8 -16q-5 -11 -17 -39t-24 -55.5t-23 -53.5q47 0 70 -2h6.5h7.5t7 -0.5t7.5 -1t8 -2t8.5 -3.5t8 -5t9.5 -7t9.5 -9.5t10 -12.5q9 -18 10 -22z
M416 334q46 3 92 0l65 155q-68 -4 -100 -8q-21 -50 -57 -147z" />
    <glyph glyph-name="dollar" unicode="$" horiz-adv-x="991" 
d="M883 975q37 -127 -109 -320q-3 -4 -7.5 -10.5t-6.5 -9t-6 -4.5t-9 -1.5t-12 3.5q-18 7 -36.5 25t-26.5 36q-8 16 -2 25v4q1 3 3 6.5t5.5 8t13.5 19.5t23 36q37 61 43 75q18 43 24.5 86t-0.5 80t-36 56.5t-78 11.5q-101 -363 -136 -500q118 -91 168 -172
q45 -71 42.5 -131.5t-58.5 -126.5q-53 -64 -132.5 -108.5t-154.5 -47.5q-3 -23 -4 -38.5t0 -19t1 -6t-3 -5.5q-7 -10 -29 0t-44 33.5t-29 48.5q0 2 -2 2q-76 22 -133 108q-68 106 -41 301q0 1 2 11t4 12q12 10 53 -17q15 -12 25 -23.5t15 -19t6.5 -18t1 -14.5t-2.5 -15
t-2 -14q-4 -37 -5 -81.5t9 -94t33 -57.5q27 -9 43 -9q21 137 121 529q-75 60 -109 100q-82 100 -49 193q9 24 49 79q46 60 113.5 102t138.5 56q16 56 45 148q5 18 23 14q19 -4 40.5 -23.5t32.5 -40.5q6 -19 6 -21t-4 -17l-18 -60q70 -18 126.5 -68t74.5 -116zM369 737
q18 -29 59 -57q41 160 96 367q-79 -54 -133 -136q-68 -108 -22 -174zM412 104q86 42 154 118t69 151q1 51 -29 93t-88 85q-76 -297 -106 -447z" />
    <glyph glyph-name="percent" unicode="%" horiz-adv-x="1026" 
d="M924 215q2 -32 -20.5 -89t-58.5 -113t-87.5 -93t-98.5 -29q-31 6 -63.5 37t-52.5 66q-59 116 43 285q-89 -80 -161 -148.5t-106 -103t-58.5 -59t-32.5 -30.5t-13 -4q-24 11 -48 40.5t-7 58.5q73 130 101 181t56.5 107t63.5 121q39 72 103 187.5t97 176t69.5 136
t51.5 126.5t13 89q-1 43 -95 55.5t-208 -6.5t-170 -55l174 -147q52 -44 74.5 -102t3.5 -120q-25 -77 -84 -134.5t-134 -49.5q-31 3 -66 29t-65 73t-39 113t11 150q24 86 69 145q-19 36 2 76q23 45 99 69.5t153 30.5q52 4 101 5t101.5 -12.5t90.5 -43.5q83 -63 86 -142
q3 -84 -85 -262q-29 -58 -222 -411q-71 -130 -131 -242q71 63 160.5 144t131 118t48.5 39q13 3 42.5 -22t37.5 -52q6 -14 -13 -43q59 -19 96 -62.5t40 -82.5zM213 725q19 -95 82 -29q17 18 36.5 46t37.5 70.5t21 82t-22.5 78t-82.5 61.5q-46 -68 -66.5 -151.5t-5.5 -157.5z
M629 0q3 -55 61 17q61 75 106 179q17 39 21 60q3 27 -9 39.5t-52 13.5q-2 -3 -20.5 -29t-25.5 -37.5t-24 -39t-24.5 -47.5t-17.5 -47.5t-13.5 -54.5t-1.5 -54z" />
    <glyph glyph-name="ampersand" unicode="&#x26;" horiz-adv-x="925" 
d="M537 709q-7 10 -9 16.5t3 13.5t12.5 13t22.5 20t28 29q40 43 69 92t43 93t14 81t-18 61t-53 27q-25 -76 -39 -133t-16.5 -81.5t-3 -44.5t2.5 -21t-1 -11q-2 -4 -6 -5.5t-9 -0.5t-9 2.5t-10 4t-7 3.5q-48 28 -62 72q-16 44 27 190q-81 -35 -138 -105t-63 -159
q-8 -144 150 -260q56 -34 65 -76q0 -16 -18 -12q-73 -39 -104 -59q-160 -94 -195 -246q-18 -93 11.5 -133.5t109.5 -46.5q25 130 57 219q5 18 23 14t40 -23.5t33 -39.5q6 -20 6 -22t-4 -19q-14 -43 -30 -109q74 30 134 99t89 176q8 26 11 44t4 24.5t3 11.5q2 4 9.5 0t15 -12
t8.5 -15q1 -2 -0.5 -12.5t-3.5 -21.5l-2 -11q-30 -154 -109.5 -248t-177.5 -121q-14 -71 -16.5 -113.5t1 -58t3.5 -16.5q-6 -20 -42 1q-44 25 -61 67q-1 2 -1 3q-10 26 0 115q-58 11 -108 49.5t-81 89.5q-37 68 -31.5 142t48.5 137q24 38 62.5 72t68 51.5t74.5 42t59 33.5
q-151 125 -193 256q-24 78 -6 144.5t64 116.5t107.5 81t125.5 37q8 2 27 2q16 52 37 104l1 3q1 3 1 3.5t2 3t3.5 2.5t5 1t7.5 -1q19 -4 41 -22.5t33 -38.5l6 -12t1.5 -11t-2 -11t-6.5 -19.5t-9 -28.5q41 -19 85 -58.5t58 -68.5q53 -111 -55 -266q-96 -127 -154 -125
q-31 3 -59 35z" />
    <glyph glyph-name="quotesingle" unicode="'" horiz-adv-x="161" 
d="M258 1114q5 -11 6 -20t0 -13t-6.5 -17t-7.5 -20q-5 -13 -37 -91.5t-39 -104.5q-12 -25 -31.5 -37t-31.5 8q-10 20 14.5 167.5t38.5 187.5q0 9 6 12q13 7 43 -17.5t45 -54.5z" />
    <glyph glyph-name="parenleft" unicode="(" horiz-adv-x="573" 
d="M467 1100q8 -19 -2 -35q-2 -3 -74 -139q-59 -119 -96.5 -218.5t-63 -209t-23.5 -220t30 -223.5q10 -39 22 -77t17.5 -55.5t5.5 -22.5q-4 -19 -39 -2q-17 10 -29.5 21.5t-19.5 19.5t-14 24t-9.5 23t-8.5 29t-9 30q-33 112 -44.5 206.5t-1 208.5t55 245t125.5 292
q64 120 84 156q5 10 10 10q15 3 43.5 -18t40.5 -45z" />
    <glyph glyph-name="parenright" unicode=")" horiz-adv-x="524" 
d="M387 1061q28 -105 32.5 -227t-10 -238t-46 -242.5t-68.5 -234.5t-84 -219q-1 -3 -4 -10t-4 -9t-4.5 -6.5t-7 -3t-11.5 1.5q-18 6 -39 25t-32 39q-4 8 -5 11t-1.5 8t4.5 15.5t10.5 24t17.5 44t25 66.5q76 204 114.5 385.5t40 300.5t-8 203.5t-24 133t-14.5 49.5q1 9 9 11
t16 -0.5t14 -6.5q18 -11 31.5 -24t20.5 -21.5t14 -27t8 -22.5t6 -26z" />
    <glyph glyph-name="asterisk" unicode="*" horiz-adv-x="520" 
d="M385 1012h6.5h7h6.5t5.5 -1t4.5 -2.5t2 -4t-1 -5.5q-3 -12 -23.5 -28.5t-40.5 -20.5h-47q65 -66 78 -80q7 -5 9 -7t-0.5 -11t-14.5 -21q-10 -9 -17 -11.5t-9.5 -2.5t-7.5 5l-5 5q-12 14 -37 39v-2q0 -1 0.5 -10t-0.5 -12.5t-4 -11t-12 -14t-23 -13.5t-29 -10q-5 0 -8 2
t-4 6t-1 7.5t0.5 10t0.5 10.5v52q-16 -14 -49 -47q-1 -1 -4.5 -5t-5 -5t-6 -1.5t-10 3.5t-13.5 12q-8 7 -12 12.5t-3.5 10t1 6.5t4 5.5l4.5 4.5q11 13 72 73h-33q-19 4 -40 21t-24 28q0 3 -0.5 5.5t2.5 4t4 2.5t5.5 1h6.5h6.5h6.5h88q0 25 -4 75q0 2 -1 10.5t0 12.5t4 11.5
t12 14.5t24 15q16 8 29 8q8 1 11 -2.5t3 -15.5v-15v-114h86z" />
    <glyph glyph-name="plus" unicode="+" horiz-adv-x="751" 
d="M649 516q0 -8 -4 -10t-59 2q-113 9 -195 12q-9 -29 -63 -225q-4 -18 -11 -20q-5 -1 -14 1q-17 5 -37 21q-17 15 -27 26.5t-12.5 24t-3 16.5t3.5 18t4 15q17 59 35 127q-55 0 -99.5 -2t-63 -3.5t-23.5 -0.5q-21 5 -45 33q-18 24 -12 35q1 2 5 2.5t5 1.5q112 8 254 8
l82 297q3 10 14.5 8t22.5 -8t20 -14q47 -38 45 -70l-61 -219q98 -4 147 -8h11q11 -1 13 -2t12 -3.5t15 -6.5t14 -12t17 -19q10 -20 10 -25z" />
    <glyph glyph-name="comma" unicode="," horiz-adv-x="428" 
d="M324 -25q5 -15 0 -59q-7 -97 -54 -152q-20 -23 -48.5 -32.5t-47 -8.5t-29.5 5q-20 10 -32 28q-6 9 -8.5 15t-1 9t3.5 4t5.5 2t4.5 1q43 13 73 84q32 79 29 164q0 12 4 16q12 14 52 -15t49 -61z" />
    <glyph glyph-name="hyphen" unicode="-" horiz-adv-x="745" 
d="M578 604q36 -15 57 -51q17 -28 0 -33q-5 -1 -10 1.5t-17 6.5t-30 7q-66 8 -235.5 -16t-180.5 -21q-16 4 -32 19t-24 30t-2 20q3 2 6 2h14.5t27.5 2q31 2 101 11.5t125.5 17.5t118.5 11.5t81 -7.5z" />
    <glyph glyph-name="period" unicode="." horiz-adv-x="368" 
d="M266 -90q2 -5 -2.5 -20t-12 -34.5t-9.5 -29.5q-6 -25 -11 -27q-23 -11 -58.5 -4t-55.5 21q-10 7 -12.5 13.5t0 12.5t8.5 21.5t10 32.5q3 14 2.5 20t-2.5 10t-2 6q-1 11 10.5 16t26.5 5t30 -2q67 -14 78 -41z" />
    <glyph glyph-name="slash" unicode="/" horiz-adv-x="954" 
d="M848 1100q4 -7 4 -13t-1 -8.5t-7 -10.5t-8 -11q-257 -369 -448 -743.5t-179 -475.5q-8 20 -27 37.5t-32 20.5q-7 -1 -7 -2q35 -9 56 -41q17 -22 10 -33q-1 -2 -5 -2.5t-5 -1.5q-16 0 -29 8q-33 18 -52 48t-16 65q15 135 212 504.5t438 709.5q1 1 3 4.5t2.5 5t3 3.5t5 2
t6.5 -0.5t10 -2.5q18 -8 37.5 -26.5t28.5 -36.5z" />
    <glyph glyph-name="uni0030" unicode="0" horiz-adv-x="4741" 
d="M2392 997q-71 0 -80 70q-4 20 -4 57q0 10 -0.5 35t-0.5 39t1.5 33t5.5 33q10 53 74 57q71 0 86 -45q7 -19 9 -40.5t0.5 -57t-1.5 -41.5q0 -54 -4 -74q-14 -66 -86 -66zM948 -70l6 400h64l49 -252l45 252h70v-400h-56l-6 166l-28 -166h-48l-32 162l-4 -162h-60zM1235 -70
v400h51l68 -193v193h61v-400h-49l-70 195v-195h-61zM1460 -70v72h70v-72h-70zM1468 -377q0 24 14 38.5t40 8.5q12 0 19 -4t9.5 -13t3 -15t0.5 -19h-20q0 24 -2 29q-4 10 -16.5 10.5t-18.5 -8.5t-6 -58q0 -46 8 -57q4 -9 16.5 -7.5t16.5 11.5q2 5 2 31h20q0 -62 -38 -62
q-12 0 -21 4t-14 12t-8.5 16t-4.5 21t-1 21t0.5 22t0.5 19zM1554 70l62 4q0 -49 16 -72q8 -20 25 -12q16 3 16 33q0 14 -7.5 30t-13.5 24.5t-21.5 25.5t-18.5 20q-2 2 -17.5 17t-19.5 24q-25 40 -16 92q2 43 42 66.5t82 3.5q52 -25 52 -127l-62 -4q-1 7 -1.5 22.5t-1.5 25
t-6.5 19t-14.5 10.5q-22 1 -27.5 -17t-1.5 -34q3 -8 8 -15.5t9 -11.5t11.5 -10.5t10.5 -9.5l31 -37q56 -53 47 -131q-2 -27 -20.5 -50t-49.5 -32q-31 -3 -57.5 9.5t-38.5 39.5q-17 41 -17 97zM1573 -406q0 28 1.5 42t12.5 26t33 8q13 0 22.5 -5.5t14 -11.5t6.5 -20t2 -19.5
v-21.5v-23t-2 -21t-6.5 -21.5t-14 -12.5t-22.5 -6q-11 0 -19.5 2.5t-13.5 9t-8.5 11.5t-4.5 15.5t-1.5 15.5t0 17t0.5 15zM1577 1001v318h68q59 0 77 -35q15 -28 12 -64t-28 -55q-18 -18 -86 -18v-146h-43zM1579 758v198h41v-213q0 -61 27 -75q32 -9 45.5 13t13.5 56v103
v116h43v-145q0 -4 1 -35.5t-0.5 -45t-5.5 -36.5t-16.5 -36t-31.5 -19q-27 -14 -62 -1t-47 44q-8 20 -8 76zM1593 -393q0 -2 -0.5 -13t0 -19t1.5 -18.5t4 -17t8 -8.5q32 -17 34 33v22q0 1 0.5 12t0 17.5t-1.5 15.5t-3.5 14.5t-7.5 6.5q-16 8 -25.5 0t-9.5 -23v-22zM1620 1182
q38 0 47 2q27 7 27 45q0 49 -27 55q-8 3 -16 3.5t-18 -0.5t-13 -1v-104zM1634 -287v162h62v-16h-37v-56h31v-14h-31v-76h-25zM1686 -489v159h24l31 -127l24 127h23l2 -159h-16v118l-25 -118h-18l-27 118v-118h-18zM1710 -201q0 26 1.5 39.5t13 27t34.5 13.5q7 -1 12.5 -3.5
t9.5 -5.5t7 -7.5t5 -8t3.5 -10t2 -10t1 -11t0.5 -10v-11v-9.5q0 -14 -0.5 -22t-2.5 -21t-6.5 -19.5t-13.5 -12t-22 -5.5q-16 0 -26 6.5t-14 20.5t-4.5 23t-0.5 28v8zM1733 -197q0 -2 -1 -16t-1 -23.5t4.5 -21t13.5 -14.5q10 -2 16.5 2.5t9 16t3 19.5t0.5 21q0 2 0.5 12.5
t0 17.5t-1.5 16.5t-4 15.5t-8 8q-11 9 -21.5 -1t-10.5 -26v-27zM1765 1001v318h121v-33h-78v-104h66v-35h-66v-117h82v-29h-125zM1767 131q0 97 2 115q11 63 58 84q56 11 90 -8q7 -4 12.5 -10t10 -11t7.5 -13t5.5 -13t4 -15t2 -14.5t1 -15.5t0.5 -14v-15v-13h-66q0 52 -3 65
t-17 19q-37 5 -37 -55v-143q0 -2 -0.5 -15t0 -21.5t2 -20t7 -18.5t14.5 -9q8 -1 14 -2.5t10 4t7.5 9t5 12.5t2.5 14.5t1.5 15t0.5 14.5v12.5v8.5h-41v59h104v-207h-53l-2 13q-18 -17 -48.5 -18t-50.5 12q-32 15 -41 81q-2 19 -2 113zM1784 725l45 12q5 -46 14 -55
q11 -11 25.5 -12.5t23.5 8.5q14 8 14 28t-10 33q-3 3 -7 9t-7 10t-8.5 8.5t-11.5 7.5q-1 1 -28.5 24t-35.5 38q-20 30 -10 69t47 51q41 7 78 -12q26 -21 26 -67l-34 -15q-4 53 -33 58q-16 6 -27.5 -2t-13.5 -21q-5 -7 -2 -16.5t4 -14.5t8.5 -13.5t12 -12.5t13.5 -11.5
t13 -11.5q3 -3 14 -12t15 -12.5t12 -12t11.5 -15t7 -15.5t4.5 -19q8 -38 -13 -67t-59 -29t-61.5 25.5t-26.5 64.5zM1819 -489v159h24l29 -127l26 127h21l4 -159h-14l-4 118l-25 -118h-18l-23 118l-4 -118h-16zM1825 -287v162q2 0 17 1t24.5 0t17.5 -5q19 -11 20 -40.5
t-20 -37.5l25 -80h-25l-22 76h-19v-76h-18zM1839 393v168q4 0 15 0.5t17.5 0.5t15.5 -1.5t15.5 -6t10.5 -11.5q5 -13 4 -33t-8 -29q-13 -10 -47 -10v-78h-23zM1843 -197q41 0 41 31q0 16 -10 20.5t-31 4.5v-56zM1862 485q18 0 22 4q12 6 12 33q0 19 -7 23t-27 4v-64z
M1923 1001v318q6 0 30.5 0.5t36 0t29 -3.5t29.5 -9q36 -21 37 -76.5t-37 -69.5l39 -160h-39l-45 148h-33v-148h-47zM1939 393v168h17v-149h43v-19h-60zM1950 -489v159h63v-14h-39v-49h31v-17h-31v-65h39v-14h-63zM1960 -141v16h84v-16h-31v-146h-24v146h-29zM1970 1182
q29 0 45 2q31 16 25 55q0 36 -25 43q-6 3 -12.5 4t-11.5 1t-11.5 -0.5t-9.5 -0.5v-104zM1976 -121l109 502h61l-112 -502h-58zM1982 639v317h123v-36h-80v-103h64v-33h-64v-116h80v-29h-123zM2015 393v168h62v-12h-41v-60h35v-18h-35v-59h41v-19h-62zM2030 -489v159
q7 0 21 1.5t23.5 1t16.5 -4.5q18 -13 18.5 -40.5t-20.5 -35.5l25 -81h-23l-18 79h-19v-79h-24zM2054 -393q11 0 14.5 0.5t10 2t8.5 6.5t2 13q0 27 -35 27v-49zM2054 -287v162h21v-72h45v72h22v-162h-22v76h-45v-76h-21zM2087 393l35 168h26l31 -168h-22l-9 47h-34l-7 -47
h-20zM2114 453h34l-16 79zM2114 1090l45 12q3 -43 16 -58q11 -11 26.5 -12t26.5 8q11 10 10.5 28.5t-10.5 33.5q-2 2 -8 9.5t-13 14.5t-16 13q-3 3 -26.5 24t-32.5 33q-22 33 -12 72.5t49 46.5q15 7 38 5t38 -13q23 -14 28 -66l-35 -12q-1 2 -4.5 16t-5.5 20t-8.5 14
t-15.5 11q-37 0 -43 -28q-7 -40 53 -80q4 -4 18.5 -19t20.5 -22t13.5 -20t10.5 -25q8 -39 -13 -69t-60 -30q-40 0 -63.5 26.5t-26.5 66.5zM2132 -377q0 24 13 38.5t38 8.5q14 0 22 -8.5t9.5 -17.5t1.5 -25h-23q0 1 1.5 7t1 12t-4.5 10q-1 10 -12.5 10.5t-17.5 -8.5
q-4 -4 -6 -12.5t-2 -15.5t0.5 -17.5t0.5 -12.5t-0.5 -11.5t-0.5 -16.5t2 -15.5t6 -13.5q6 -9 17.5 -7.5t12.5 11.5q4 4 4.5 9.5t-1 12t-1.5 9.5h23q0 -18 -2 -29t-11.5 -22t-27.5 -11q-16 0 -26 7t-13.5 22.5t-4.5 26.5t0 32.5t1 26.5zM2161 -72v400h114q27 0 50.5 -27
t23.5 -78q0 -70 -33 -88q37 -30 37 -102q0 -51 -23 -78t-51 -27h-118zM2165 -287v162h63v-16h-39v-56h31v-14h-31v-63h39v-13h-63zM2189 440l25 9q0 -33 10 -37q27 0 27 20q0 9 -6.5 18t-17 19t-13.5 14q-19 13 -23 33.5t13 36.5q19 16 45 6q22 -13 22 -41l-20 -4
q-9 35 -25 33q-11 -2 -12 -15q-7 -22 18 -43q3 -2 12 -8.5t13 -9.5t8.5 -9.5t5.5 -12.5q6 -22 -5 -39t-34 -17q-18 0 -29.5 13.5t-13.5 33.5zM2224 -12h33q16 0 23.5 19t5.5 46q-8 47 -35 47h-27v-112zM2224 158h27q28 0 28 51q0 61 -30 61h-25v-112zM2224 766q0 11 -0.5 34
t-0.5 37t1 33t4 33q17 53 78 53q69 0 82 -45q8 -18 10 -40t0 -56t-2 -41t0.5 -19t1 -20t-1 -18t-4.5 -19q-3 -30 -24 -46.5t-54 -16.5q-35 0 -59 17t-27 48q-4 23 -4 66zM2241 -489v159h22v-159h-22zM2271 737q0 -55 19 -65q23 -6 39 0q22 14 26 41q1 4 1 10.5t-0.5 14
t-0.5 10.5v114q0 39 -12 49q-29 17 -39 9q-24 0 -33 -25q-3 -15 -3 -32t1.5 -38t1.5 -32v-56zM2279 -489l35 159h23l37 -159h-21l-8 43h-33l-8 -43h-25zM2290 393v168h65v-12h-41v-60h31v-18h-31v-59h43v-19h-67zM2298 -287v162h61v-16h-45v-56h31v-14h-31v-76h-16z
M2314 -436h29l-14 80zM2355 1098q0 -53 23 -64q21 -8 37 0q22 11 22 43v144q0 41 -14 55q-12 17 -35 10q-23 -3 -31 -33q-5 -11 -5.5 -27.5t1.5 -39t2 -31.5v-57zM2374 -248v37v86h18v-72q0 -2 -0.5 -15t-0.5 -21t2 -19t7 -16.5t13 -5.5q9 0 14.5 5.5t7.5 16.5t2.5 18.5
t0 21.5t-0.5 15v72h21v-74v-11v-13.5t-0.5 -12.5t-2 -13.5t-3.5 -12t-5.5 -11.5t-8.5 -8t-11 -6q-46 -12 -53 39zM2388 -489v159h22v-145h44v-14h-66zM2388 -72v400h68v-334h84v-66h-152zM2410 561h25l23 -121l24 121h21l-35 -168h-23zM2443 639v317h31l90 -213v213h39v-317
h-31l-94 215v-215h-35zM2482 -287v162h25v-149h37v-13h-62zM2509 -330h18l25 -116l26 116h19l-37 -159h-16zM2519 393v168h25v-168h-25zM2527 1001v318h27l90 -213v213h39v-318h-31l-88 213v-213h-37zM2560 -287v162h23v-149h40v-13h-63zM2564 440l23 9q0 -10 4.5 -22
t11.5 -15q20 0 20 20q-1 6 0 8.5t-2.5 8t-5 7.5t-6.5 7l-7 7t-7.5 6.5t-7.5 6.5q-10 9 -16.5 21t-6 26t13.5 23q27 16 43 6q19 -11 23 -41l-21 -4q-2 21 -9 28.5t-14 3.5t-11 -14q-3 -3 -1.5 -8.5t1.5 -8t4 -8t6 -7t6.5 -6l5.5 -5.5q31 -25 33 -40q6 -22 -4.5 -39t-30.5 -17
q-37 0 -45 47zM2574 -72v400h156v-70h-90v-86h72v-72h-72v-106h90v-66h-156zM2615 -489v159h66v-14h-43v-49h35v-17h-35v-65h43v-14h-66zM2652 639v317h43v-288h76v-29h-119zM2664 393v168h25v-168h-25zM2681 -287l29 162h26l35 -162h-25l-4 41h-32l-11 -41h-18zM2697 -489
v159q6 0 20 1.5t25 1t19 -4.5q18 -12 16.5 -41t-22.5 -35l24 -81h-22l-21 79h-16v-79h-23zM2703 549v12h76v-12h-26v-156h-19v156h-31zM2710 -231h26l-12 75zM2714 1001l69 318h43l68 -318h-41l-17 76h-65l-16 -76h-41zM2720 -393q15 0 20 0.5t10 5.5t5 16q0 16 -8 21.5
t-27 5.5v-49zM2765 68l61 4q0 -48 13 -70q7 -22 24 -14q16 2 16 32q0 15 -8 31t-14 24t-22.5 25t-18.5 19q-6 9 -18 22t-15 19q-25 37 -18 94q1 44 43 66.5t82 3.5q53 -23 53 -127l-64 -4q0 71 -24 77q-19 1 -25.5 -19t0.5 -32q3 -8 7 -15.5t7.5 -11t10 -10.5t8.5 -10
l35 -35q55 -65 47 -133q-2 -28 -21 -51.5t-49 -30.5q-30 -3 -57.5 9t-40.5 40q-12 31 -12 97zM2779 1110h51l-24 143zM2787 -287v162h15l45 -106v106h20v-162h-14l-43 111v-111h-23zM2787 956h39l47 -153l49 153h44q-6 -19 -21 -64t-23 -71l-22 -63q-3 -6 -3.5 -13.5
t0.5 -17t1 -12.5v-76h-45v63q0 4 0.5 15t0.5 20t-1 15q-11 40 -23 59zM2798 -442l20 4q0 -26 12 -31q11 -6 20 0t9 16q0 20 -41 47q-17 17 -20 37.5t14 32.5q10 9 23 10.5t20 -4.5q18 -7 18 -37l-14 -8q-1 3 -3 11.5t-4 13t-7 6.5q-13 8 -25 -8q-3 -3 -1.5 -8.5t1.5 -7.5
t4.5 -6.5t6 -6.5t7 -6t7.5 -6q3 -4 11 -12.5t12.5 -16.5t4.5 -18q8 -20 -0.5 -36t-29.5 -16q-22 0 -33.5 14t-11.5 36zM2894 -287v162q2 0 11.5 0.5t15.5 0t14.5 -1.5t16 -3.5t14.5 -7.5t9 -16t0.5 -31t-1.5 -23q0 -4 1 -19t0 -21.5t-5 -15.5t-13 -13q-13 -11 -63 -11z
M2898 -489v159h20v-159h-20zM2916 -274q11 0 16 0.5t11.5 6.5t9.5 19v82q-1 17 -9.5 21t-27.5 4v-133zM2927 1001v318h45v-289h80v-29h-125zM2941 -406q0 28 1.5 42t13.5 26t36 8q10 0 17 -2t11.5 -8t7.5 -9.5t4 -14t1 -14v-16.5v-14v-23t-2 -21t-6.5 -21.5t-14 -12.5
t-22.5 -6q-17 0 -27.5 7t-14.5 21.5t-4.5 23.5t-0.5 27v7zM2963 258v70h183v-70h-56v-330h-69v330h-58zM2970 -393q0 -2 -2.5 -23.5t-1 -35.5t9.5 -17q7 -4 12.5 -4.5t9 1.5t6.5 5t4.5 9.5t2.5 11t1.5 11.5t0.5 11v10q0 63 -11 66q-32 14 -32 -23v-22zM2988 639v43h45v-43
h-45zM2988 956h45l-16 -251h-15zM3058 -489v159h12l49 -106v106h19v-159h-17l-51 112v-112h-12zM3178 -72v400h70v-400h-70zM3281 328h63l29 -277l33 277h67l-67 -400h-66zM3508 -72v400h156v-70h-90v-86h73v-72h-73v-106h90v-66h-156z" />
    <glyph glyph-name="uni0030" unicode="9" horiz-adv-x="4741" 
d="M2392 997q-71 0 -80 70q-4 20 -4 57q0 10 -0.5 35t-0.5 39t1.5 33t5.5 33q10 53 74 57q71 0 86 -45q7 -19 9 -40.5t0.5 -57t-1.5 -41.5q0 -54 -4 -74q-14 -66 -86 -66zM948 -70l6 400h64l49 -252l45 252h70v-400h-56l-6 166l-28 -166h-48l-32 162l-4 -162h-60zM1235 -70
v400h51l68 -193v193h61v-400h-49l-70 195v-195h-61zM1460 -70v72h70v-72h-70zM1468 -377q0 24 14 38.5t40 8.5q12 0 19 -4t9.5 -13t3 -15t0.5 -19h-20q0 24 -2 29q-4 10 -16.5 10.5t-18.5 -8.5t-6 -58q0 -46 8 -57q4 -9 16.5 -7.5t16.5 11.5q2 5 2 31h20q0 -62 -38 -62
q-12 0 -21 4t-14 12t-8.5 16t-4.5 21t-1 21t0.5 22t0.5 19zM1554 70l62 4q0 -49 16 -72q8 -20 25 -12q16 3 16 33q0 14 -7.5 30t-13.5 24.5t-21.5 25.5t-18.5 20q-2 2 -17.5 17t-19.5 24q-25 40 -16 92q2 43 42 66.5t82 3.5q52 -25 52 -127l-62 -4q-1 7 -1.5 22.5t-1.5 25
t-6.5 19t-14.5 10.5q-22 1 -27.5 -17t-1.5 -34q3 -8 8 -15.5t9 -11.5t11.5 -10.5t10.5 -9.5l31 -37q56 -53 47 -131q-2 -27 -20.5 -50t-49.5 -32q-31 -3 -57.5 9.5t-38.5 39.5q-17 41 -17 97zM1573 -406q0 28 1.5 42t12.5 26t33 8q13 0 22.5 -5.5t14 -11.5t6.5 -20t2 -19.5
v-21.5v-23t-2 -21t-6.5 -21.5t-14 -12.5t-22.5 -6q-11 0 -19.5 2.5t-13.5 9t-8.5 11.5t-4.5 15.5t-1.5 15.5t0 17t0.5 15zM1577 1001v318h68q59 0 77 -35q15 -28 12 -64t-28 -55q-18 -18 -86 -18v-146h-43zM1579 758v198h41v-213q0 -61 27 -75q32 -9 45.5 13t13.5 56v103
v116h43v-145q0 -4 1 -35.5t-0.5 -45t-5.5 -36.5t-16.5 -36t-31.5 -19q-27 -14 -62 -1t-47 44q-8 20 -8 76zM1593 -393q0 -2 -0.5 -13t0 -19t1.5 -18.5t4 -17t8 -8.5q32 -17 34 33v22q0 1 0.5 12t0 17.5t-1.5 15.5t-3.5 14.5t-7.5 6.5q-16 8 -25.5 0t-9.5 -23v-22zM1620 1182
q38 0 47 2q27 7 27 45q0 49 -27 55q-8 3 -16 3.5t-18 -0.5t-13 -1v-104zM1634 -287v162h62v-16h-37v-56h31v-14h-31v-76h-25zM1686 -489v159h24l31 -127l24 127h23l2 -159h-16v118l-25 -118h-18l-27 118v-118h-18zM1710 -201q0 26 1.5 39.5t13 27t34.5 13.5q7 -1 12.5 -3.5
t9.5 -5.5t7 -7.5t5 -8t3.5 -10t2 -10t1 -11t0.5 -10v-11v-9.5q0 -14 -0.5 -22t-2.5 -21t-6.5 -19.5t-13.5 -12t-22 -5.5q-16 0 -26 6.5t-14 20.5t-4.5 23t-0.5 28v8zM1733 -197q0 -2 -1 -16t-1 -23.5t4.5 -21t13.5 -14.5q10 -2 16.5 2.5t9 16t3 19.5t0.5 21q0 2 0.5 12.5
t0 17.5t-1.5 16.5t-4 15.5t-8 8q-11 9 -21.5 -1t-10.5 -26v-27zM1765 1001v318h121v-33h-78v-104h66v-35h-66v-117h82v-29h-125zM1767 131q0 97 2 115q11 63 58 84q56 11 90 -8q7 -4 12.5 -10t10 -11t7.5 -13t5.5 -13t4 -15t2 -14.5t1 -15.5t0.5 -14v-15v-13h-66q0 52 -3 65
t-17 19q-37 5 -37 -55v-143q0 -2 -0.5 -15t0 -21.5t2 -20t7 -18.5t14.5 -9q8 -1 14 -2.5t10 4t7.5 9t5 12.5t2.5 14.5t1.5 15t0.5 14.5v12.5v8.5h-41v59h104v-207h-53l-2 13q-18 -17 -48.5 -18t-50.5 12q-32 15 -41 81q-2 19 -2 113zM1784 725l45 12q5 -46 14 -55
q11 -11 25.5 -12.5t23.5 8.5q14 8 14 28t-10 33q-3 3 -7 9t-7 10t-8.5 8.5t-11.5 7.5q-1 1 -28.5 24t-35.5 38q-20 30 -10 69t47 51q41 7 78 -12q26 -21 26 -67l-34 -15q-4 53 -33 58q-16 6 -27.5 -2t-13.5 -21q-5 -7 -2 -16.5t4 -14.5t8.5 -13.5t12 -12.5t13.5 -11.5
t13 -11.5q3 -3 14 -12t15 -12.5t12 -12t11.5 -15t7 -15.5t4.5 -19q8 -38 -13 -67t-59 -29t-61.5 25.5t-26.5 64.5zM1819 -489v159h24l29 -127l26 127h21l4 -159h-14l-4 118l-25 -118h-18l-23 118l-4 -118h-16zM1825 -287v162q2 0 17 1t24.5 0t17.5 -5q19 -11 20 -40.5
t-20 -37.5l25 -80h-25l-22 76h-19v-76h-18zM1839 393v168q4 0 15 0.5t17.5 0.5t15.5 -1.5t15.5 -6t10.5 -11.5q5 -13 4 -33t-8 -29q-13 -10 -47 -10v-78h-23zM1843 -197q41 0 41 31q0 16 -10 20.5t-31 4.5v-56zM1862 485q18 0 22 4q12 6 12 33q0 19 -7 23t-27 4v-64z
M1923 1001v318q6 0 30.5 0.5t36 0t29 -3.5t29.5 -9q36 -21 37 -76.5t-37 -69.5l39 -160h-39l-45 148h-33v-148h-47zM1939 393v168h17v-149h43v-19h-60zM1950 -489v159h63v-14h-39v-49h31v-17h-31v-65h39v-14h-63zM1960 -141v16h84v-16h-31v-146h-24v146h-29zM1970 1182
q29 0 45 2q31 16 25 55q0 36 -25 43q-6 3 -12.5 4t-11.5 1t-11.5 -0.5t-9.5 -0.5v-104zM1976 -121l109 502h61l-112 -502h-58zM1982 639v317h123v-36h-80v-103h64v-33h-64v-116h80v-29h-123zM2015 393v168h62v-12h-41v-60h35v-18h-35v-59h41v-19h-62zM2030 -489v159
q7 0 21 1.5t23.5 1t16.5 -4.5q18 -13 18.5 -40.5t-20.5 -35.5l25 -81h-23l-18 79h-19v-79h-24zM2054 -393q11 0 14.5 0.5t10 2t8.5 6.5t2 13q0 27 -35 27v-49zM2054 -287v162h21v-72h45v72h22v-162h-22v76h-45v-76h-21zM2087 393l35 168h26l31 -168h-22l-9 47h-34l-7 -47
h-20zM2114 453h34l-16 79zM2114 1090l45 12q3 -43 16 -58q11 -11 26.5 -12t26.5 8q11 10 10.5 28.5t-10.5 33.5q-2 2 -8 9.5t-13 14.5t-16 13q-3 3 -26.5 24t-32.5 33q-22 33 -12 72.5t49 46.5q15 7 38 5t38 -13q23 -14 28 -66l-35 -12q-1 2 -4.5 16t-5.5 20t-8.5 14
t-15.5 11q-37 0 -43 -28q-7 -40 53 -80q4 -4 18.5 -19t20.5 -22t13.5 -20t10.5 -25q8 -39 -13 -69t-60 -30q-40 0 -63.5 26.5t-26.5 66.5zM2132 -377q0 24 13 38.5t38 8.5q14 0 22 -8.5t9.5 -17.5t1.5 -25h-23q0 1 1.5 7t1 12t-4.5 10q-1 10 -12.5 10.5t-17.5 -8.5
q-4 -4 -6 -12.5t-2 -15.5t0.5 -17.5t0.5 -12.5t-0.5 -11.5t-0.5 -16.5t2 -15.5t6 -13.5q6 -9 17.5 -7.5t12.5 11.5q4 4 4.5 9.5t-1 12t-1.5 9.5h23q0 -18 -2 -29t-11.5 -22t-27.5 -11q-16 0 -26 7t-13.5 22.5t-4.5 26.5t0 32.5t1 26.5zM2161 -72v400h114q27 0 50.5 -27
t23.5 -78q0 -70 -33 -88q37 -30 37 -102q0 -51 -23 -78t-51 -27h-118zM2165 -287v162h63v-16h-39v-56h31v-14h-31v-63h39v-13h-63zM2189 440l25 9q0 -33 10 -37q27 0 27 20q0 9 -6.5 18t-17 19t-13.5 14q-19 13 -23 33.5t13 36.5q19 16 45 6q22 -13 22 -41l-20 -4
q-9 35 -25 33q-11 -2 -12 -15q-7 -22 18 -43q3 -2 12 -8.5t13 -9.5t8.5 -9.5t5.5 -12.5q6 -22 -5 -39t-34 -17q-18 0 -29.5 13.5t-13.5 33.5zM2224 -12h33q16 0 23.5 19t5.5 46q-8 47 -35 47h-27v-112zM2224 158h27q28 0 28 51q0 61 -30 61h-25v-112zM2224 766q0 11 -0.5 34
t-0.5 37t1 33t4 33q17 53 78 53q69 0 82 -45q8 -18 10 -40t0 -56t-2 -41t0.5 -19t1 -20t-1 -18t-4.5 -19q-3 -30 -24 -46.5t-54 -16.5q-35 0 -59 17t-27 48q-4 23 -4 66zM2241 -489v159h22v-159h-22zM2271 737q0 -55 19 -65q23 -6 39 0q22 14 26 41q1 4 1 10.5t-0.5 14
t-0.5 10.5v114q0 39 -12 49q-29 17 -39 9q-24 0 -33 -25q-3 -15 -3 -32t1.5 -38t1.5 -32v-56zM2279 -489l35 159h23l37 -159h-21l-8 43h-33l-8 -43h-25zM2290 393v168h65v-12h-41v-60h31v-18h-31v-59h43v-19h-67zM2298 -287v162h61v-16h-45v-56h31v-14h-31v-76h-16z
M2314 -436h29l-14 80zM2355 1098q0 -53 23 -64q21 -8 37 0q22 11 22 43v144q0 41 -14 55q-12 17 -35 10q-23 -3 -31 -33q-5 -11 -5.5 -27.5t1.5 -39t2 -31.5v-57zM2374 -248v37v86h18v-72q0 -2 -0.5 -15t-0.5 -21t2 -19t7 -16.5t13 -5.5q9 0 14.5 5.5t7.5 16.5t2.5 18.5
t0 21.5t-0.5 15v72h21v-74v-11v-13.5t-0.5 -12.5t-2 -13.5t-3.5 -12t-5.5 -11.5t-8.5 -8t-11 -6q-46 -12 -53 39zM2388 -489v159h22v-145h44v-14h-66zM2388 -72v400h68v-334h84v-66h-152zM2410 561h25l23 -121l24 121h21l-35 -168h-23zM2443 639v317h31l90 -213v213h39v-317
h-31l-94 215v-215h-35zM2482 -287v162h25v-149h37v-13h-62zM2509 -330h18l25 -116l26 116h19l-37 -159h-16zM2519 393v168h25v-168h-25zM2527 1001v318h27l90 -213v213h39v-318h-31l-88 213v-213h-37zM2560 -287v162h23v-149h40v-13h-63zM2564 440l23 9q0 -10 4.5 -22
t11.5 -15q20 0 20 20q-1 6 0 8.5t-2.5 8t-5 7.5t-6.5 7l-7 7t-7.5 6.5t-7.5 6.5q-10 9 -16.5 21t-6 26t13.5 23q27 16 43 6q19 -11 23 -41l-21 -4q-2 21 -9 28.5t-14 3.5t-11 -14q-3 -3 -1.5 -8.5t1.5 -8t4 -8t6 -7t6.5 -6l5.5 -5.5q31 -25 33 -40q6 -22 -4.5 -39t-30.5 -17
q-37 0 -45 47zM2574 -72v400h156v-70h-90v-86h72v-72h-72v-106h90v-66h-156zM2615 -489v159h66v-14h-43v-49h35v-17h-35v-65h43v-14h-66zM2652 639v317h43v-288h76v-29h-119zM2664 393v168h25v-168h-25zM2681 -287l29 162h26l35 -162h-25l-4 41h-32l-11 -41h-18zM2697 -489
v159q6 0 20 1.5t25 1t19 -4.5q18 -12 16.5 -41t-22.5 -35l24 -81h-22l-21 79h-16v-79h-23zM2703 549v12h76v-12h-26v-156h-19v156h-31zM2710 -231h26l-12 75zM2714 1001l69 318h43l68 -318h-41l-17 76h-65l-16 -76h-41zM2720 -393q15 0 20 0.5t10 5.5t5 16q0 16 -8 21.5
t-27 5.5v-49zM2765 68l61 4q0 -48 13 -70q7 -22 24 -14q16 2 16 32q0 15 -8 31t-14 24t-22.5 25t-18.5 19q-6 9 -18 22t-15 19q-25 37 -18 94q1 44 43 66.5t82 3.5q53 -23 53 -127l-64 -4q0 71 -24 77q-19 1 -25.5 -19t0.5 -32q3 -8 7 -15.5t7.5 -11t10 -10.5t8.5 -10
l35 -35q55 -65 47 -133q-2 -28 -21 -51.5t-49 -30.5q-30 -3 -57.5 9t-40.5 40q-12 31 -12 97zM2779 1110h51l-24 143zM2787 -287v162h15l45 -106v106h20v-162h-14l-43 111v-111h-23zM2787 956h39l47 -153l49 153h44q-6 -19 -21 -64t-23 -71l-22 -63q-3 -6 -3.5 -13.5
t0.5 -17t1 -12.5v-76h-45v63q0 4 0.5 15t0.5 20t-1 15q-11 40 -23 59zM2798 -442l20 4q0 -26 12 -31q11 -6 20 0t9 16q0 20 -41 47q-17 17 -20 37.5t14 32.5q10 9 23 10.5t20 -4.5q18 -7 18 -37l-14 -8q-1 3 -3 11.5t-4 13t-7 6.5q-13 8 -25 -8q-3 -3 -1.5 -8.5t1.5 -7.5
t4.5 -6.5t6 -6.5t7 -6t7.5 -6q3 -4 11 -12.5t12.5 -16.5t4.5 -18q8 -20 -0.5 -36t-29.5 -16q-22 0 -33.5 14t-11.5 36zM2894 -287v162q2 0 11.5 0.5t15.5 0t14.5 -1.5t16 -3.5t14.5 -7.5t9 -16t0.5 -31t-1.5 -23q0 -4 1 -19t0 -21.5t-5 -15.5t-13 -13q-13 -11 -63 -11z
M2898 -489v159h20v-159h-20zM2916 -274q11 0 16 0.5t11.5 6.5t9.5 19v82q-1 17 -9.5 21t-27.5 4v-133zM2927 1001v318h45v-289h80v-29h-125zM2941 -406q0 28 1.5 42t13.5 26t36 8q10 0 17 -2t11.5 -8t7.5 -9.5t4 -14t1 -14v-16.5v-14v-23t-2 -21t-6.5 -21.5t-14 -12.5
t-22.5 -6q-17 0 -27.5 7t-14.5 21.5t-4.5 23.5t-0.5 27v7zM2963 258v70h183v-70h-56v-330h-69v330h-58zM2970 -393q0 -2 -2.5 -23.5t-1 -35.5t9.5 -17q7 -4 12.5 -4.5t9 1.5t6.5 5t4.5 9.5t2.5 11t1.5 11.5t0.5 11v10q0 63 -11 66q-32 14 -32 -23v-22zM2988 639v43h45v-43
h-45zM2988 956h45l-16 -251h-15zM3058 -489v159h12l49 -106v106h19v-159h-17l-51 112v-112h-12zM3178 -72v400h70v-400h-70zM3281 328h63l29 -277l33 277h67l-67 -400h-66zM3508 -72v400h156v-70h-90v-86h73v-72h-73v-106h90v-66h-156z" />
    <glyph glyph-name="uni0030" unicode="8" horiz-adv-x="4741" 
d="M2392 997q-71 0 -80 70q-4 20 -4 57q0 10 -0.5 35t-0.5 39t1.5 33t5.5 33q10 53 74 57q71 0 86 -45q7 -19 9 -40.5t0.5 -57t-1.5 -41.5q0 -54 -4 -74q-14 -66 -86 -66zM948 -70l6 400h64l49 -252l45 252h70v-400h-56l-6 166l-28 -166h-48l-32 162l-4 -162h-60zM1235 -70
v400h51l68 -193v193h61v-400h-49l-70 195v-195h-61zM1460 -70v72h70v-72h-70zM1468 -377q0 24 14 38.5t40 8.5q12 0 19 -4t9.5 -13t3 -15t0.5 -19h-20q0 24 -2 29q-4 10 -16.5 10.5t-18.5 -8.5t-6 -58q0 -46 8 -57q4 -9 16.5 -7.5t16.5 11.5q2 5 2 31h20q0 -62 -38 -62
q-12 0 -21 4t-14 12t-8.5 16t-4.5 21t-1 21t0.5 22t0.5 19zM1554 70l62 4q0 -49 16 -72q8 -20 25 -12q16 3 16 33q0 14 -7.5 30t-13.5 24.5t-21.5 25.5t-18.5 20q-2 2 -17.5 17t-19.5 24q-25 40 -16 92q2 43 42 66.5t82 3.5q52 -25 52 -127l-62 -4q-1 7 -1.5 22.5t-1.5 25
t-6.5 19t-14.5 10.5q-22 1 -27.5 -17t-1.5 -34q3 -8 8 -15.5t9 -11.5t11.5 -10.5t10.5 -9.5l31 -37q56 -53 47 -131q-2 -27 -20.5 -50t-49.5 -32q-31 -3 -57.5 9.5t-38.5 39.5q-17 41 -17 97zM1573 -406q0 28 1.5 42t12.5 26t33 8q13 0 22.5 -5.5t14 -11.5t6.5 -20t2 -19.5
v-21.5v-23t-2 -21t-6.5 -21.5t-14 -12.5t-22.5 -6q-11 0 -19.5 2.5t-13.5 9t-8.5 11.5t-4.5 15.5t-1.5 15.5t0 17t0.5 15zM1577 1001v318h68q59 0 77 -35q15 -28 12 -64t-28 -55q-18 -18 -86 -18v-146h-43zM1579 758v198h41v-213q0 -61 27 -75q32 -9 45.5 13t13.5 56v103
v116h43v-145q0 -4 1 -35.5t-0.5 -45t-5.5 -36.5t-16.5 -36t-31.5 -19q-27 -14 -62 -1t-47 44q-8 20 -8 76zM1593 -393q0 -2 -0.5 -13t0 -19t1.5 -18.5t4 -17t8 -8.5q32 -17 34 33v22q0 1 0.5 12t0 17.5t-1.5 15.5t-3.5 14.5t-7.5 6.5q-16 8 -25.5 0t-9.5 -23v-22zM1620 1182
q38 0 47 2q27 7 27 45q0 49 -27 55q-8 3 -16 3.5t-18 -0.5t-13 -1v-104zM1634 -287v162h62v-16h-37v-56h31v-14h-31v-76h-25zM1686 -489v159h24l31 -127l24 127h23l2 -159h-16v118l-25 -118h-18l-27 118v-118h-18zM1710 -201q0 26 1.5 39.5t13 27t34.5 13.5q7 -1 12.5 -3.5
t9.5 -5.5t7 -7.5t5 -8t3.5 -10t2 -10t1 -11t0.5 -10v-11v-9.5q0 -14 -0.5 -22t-2.5 -21t-6.5 -19.5t-13.5 -12t-22 -5.5q-16 0 -26 6.5t-14 20.5t-4.5 23t-0.5 28v8zM1733 -197q0 -2 -1 -16t-1 -23.5t4.5 -21t13.5 -14.5q10 -2 16.5 2.5t9 16t3 19.5t0.5 21q0 2 0.5 12.5
t0 17.5t-1.5 16.5t-4 15.5t-8 8q-11 9 -21.5 -1t-10.5 -26v-27zM1765 1001v318h121v-33h-78v-104h66v-35h-66v-117h82v-29h-125zM1767 131q0 97 2 115q11 63 58 84q56 11 90 -8q7 -4 12.5 -10t10 -11t7.5 -13t5.5 -13t4 -15t2 -14.5t1 -15.5t0.5 -14v-15v-13h-66q0 52 -3 65
t-17 19q-37 5 -37 -55v-143q0 -2 -0.5 -15t0 -21.5t2 -20t7 -18.5t14.5 -9q8 -1 14 -2.5t10 4t7.5 9t5 12.5t2.5 14.5t1.5 15t0.5 14.5v12.5v8.5h-41v59h104v-207h-53l-2 13q-18 -17 -48.5 -18t-50.5 12q-32 15 -41 81q-2 19 -2 113zM1784 725l45 12q5 -46 14 -55
q11 -11 25.5 -12.5t23.5 8.5q14 8 14 28t-10 33q-3 3 -7 9t-7 10t-8.5 8.5t-11.5 7.5q-1 1 -28.5 24t-35.5 38q-20 30 -10 69t47 51q41 7 78 -12q26 -21 26 -67l-34 -15q-4 53 -33 58q-16 6 -27.5 -2t-13.5 -21q-5 -7 -2 -16.5t4 -14.5t8.5 -13.5t12 -12.5t13.5 -11.5
t13 -11.5q3 -3 14 -12t15 -12.5t12 -12t11.5 -15t7 -15.5t4.5 -19q8 -38 -13 -67t-59 -29t-61.5 25.5t-26.5 64.5zM1819 -489v159h24l29 -127l26 127h21l4 -159h-14l-4 118l-25 -118h-18l-23 118l-4 -118h-16zM1825 -287v162q2 0 17 1t24.5 0t17.5 -5q19 -11 20 -40.5
t-20 -37.5l25 -80h-25l-22 76h-19v-76h-18zM1839 393v168q4 0 15 0.5t17.5 0.5t15.5 -1.5t15.5 -6t10.5 -11.5q5 -13 4 -33t-8 -29q-13 -10 -47 -10v-78h-23zM1843 -197q41 0 41 31q0 16 -10 20.5t-31 4.5v-56zM1862 485q18 0 22 4q12 6 12 33q0 19 -7 23t-27 4v-64z
M1923 1001v318q6 0 30.5 0.5t36 0t29 -3.5t29.5 -9q36 -21 37 -76.5t-37 -69.5l39 -160h-39l-45 148h-33v-148h-47zM1939 393v168h17v-149h43v-19h-60zM1950 -489v159h63v-14h-39v-49h31v-17h-31v-65h39v-14h-63zM1960 -141v16h84v-16h-31v-146h-24v146h-29zM1970 1182
q29 0 45 2q31 16 25 55q0 36 -25 43q-6 3 -12.5 4t-11.5 1t-11.5 -0.5t-9.5 -0.5v-104zM1976 -121l109 502h61l-112 -502h-58zM1982 639v317h123v-36h-80v-103h64v-33h-64v-116h80v-29h-123zM2015 393v168h62v-12h-41v-60h35v-18h-35v-59h41v-19h-62zM2030 -489v159
q7 0 21 1.5t23.5 1t16.5 -4.5q18 -13 18.5 -40.5t-20.5 -35.5l25 -81h-23l-18 79h-19v-79h-24zM2054 -393q11 0 14.5 0.5t10 2t8.5 6.5t2 13q0 27 -35 27v-49zM2054 -287v162h21v-72h45v72h22v-162h-22v76h-45v-76h-21zM2087 393l35 168h26l31 -168h-22l-9 47h-34l-7 -47
h-20zM2114 453h34l-16 79zM2114 1090l45 12q3 -43 16 -58q11 -11 26.5 -12t26.5 8q11 10 10.5 28.5t-10.5 33.5q-2 2 -8 9.5t-13 14.5t-16 13q-3 3 -26.5 24t-32.5 33q-22 33 -12 72.5t49 46.5q15 7 38 5t38 -13q23 -14 28 -66l-35 -12q-1 2 -4.5 16t-5.5 20t-8.5 14
t-15.5 11q-37 0 -43 -28q-7 -40 53 -80q4 -4 18.5 -19t20.5 -22t13.5 -20t10.5 -25q8 -39 -13 -69t-60 -30q-40 0 -63.5 26.5t-26.5 66.5zM2132 -377q0 24 13 38.5t38 8.5q14 0 22 -8.5t9.5 -17.5t1.5 -25h-23q0 1 1.5 7t1 12t-4.5 10q-1 10 -12.5 10.5t-17.5 -8.5
q-4 -4 -6 -12.5t-2 -15.5t0.5 -17.5t0.5 -12.5t-0.5 -11.5t-0.5 -16.5t2 -15.5t6 -13.5q6 -9 17.5 -7.5t12.5 11.5q4 4 4.5 9.5t-1 12t-1.5 9.5h23q0 -18 -2 -29t-11.5 -22t-27.5 -11q-16 0 -26 7t-13.5 22.5t-4.5 26.5t0 32.5t1 26.5zM2161 -72v400h114q27 0 50.5 -27
t23.5 -78q0 -70 -33 -88q37 -30 37 -102q0 -51 -23 -78t-51 -27h-118zM2165 -287v162h63v-16h-39v-56h31v-14h-31v-63h39v-13h-63zM2189 440l25 9q0 -33 10 -37q27 0 27 20q0 9 -6.5 18t-17 19t-13.5 14q-19 13 -23 33.5t13 36.5q19 16 45 6q22 -13 22 -41l-20 -4
q-9 35 -25 33q-11 -2 -12 -15q-7 -22 18 -43q3 -2 12 -8.5t13 -9.5t8.5 -9.5t5.5 -12.5q6 -22 -5 -39t-34 -17q-18 0 -29.5 13.5t-13.5 33.5zM2224 -12h33q16 0 23.5 19t5.5 46q-8 47 -35 47h-27v-112zM2224 158h27q28 0 28 51q0 61 -30 61h-25v-112zM2224 766q0 11 -0.5 34
t-0.5 37t1 33t4 33q17 53 78 53q69 0 82 -45q8 -18 10 -40t0 -56t-2 -41t0.5 -19t1 -20t-1 -18t-4.5 -19q-3 -30 -24 -46.5t-54 -16.5q-35 0 -59 17t-27 48q-4 23 -4 66zM2241 -489v159h22v-159h-22zM2271 737q0 -55 19 -65q23 -6 39 0q22 14 26 41q1 4 1 10.5t-0.5 14
t-0.5 10.5v114q0 39 -12 49q-29 17 -39 9q-24 0 -33 -25q-3 -15 -3 -32t1.5 -38t1.5 -32v-56zM2279 -489l35 159h23l37 -159h-21l-8 43h-33l-8 -43h-25zM2290 393v168h65v-12h-41v-60h31v-18h-31v-59h43v-19h-67zM2298 -287v162h61v-16h-45v-56h31v-14h-31v-76h-16z
M2314 -436h29l-14 80zM2355 1098q0 -53 23 -64q21 -8 37 0q22 11 22 43v144q0 41 -14 55q-12 17 -35 10q-23 -3 -31 -33q-5 -11 -5.5 -27.5t1.5 -39t2 -31.5v-57zM2374 -248v37v86h18v-72q0 -2 -0.5 -15t-0.5 -21t2 -19t7 -16.5t13 -5.5q9 0 14.5 5.5t7.5 16.5t2.5 18.5
t0 21.5t-0.5 15v72h21v-74v-11v-13.5t-0.5 -12.5t-2 -13.5t-3.5 -12t-5.5 -11.5t-8.5 -8t-11 -6q-46 -12 -53 39zM2388 -489v159h22v-145h44v-14h-66zM2388 -72v400h68v-334h84v-66h-152zM2410 561h25l23 -121l24 121h21l-35 -168h-23zM2443 639v317h31l90 -213v213h39v-317
h-31l-94 215v-215h-35zM2482 -287v162h25v-149h37v-13h-62zM2509 -330h18l25 -116l26 116h19l-37 -159h-16zM2519 393v168h25v-168h-25zM2527 1001v318h27l90 -213v213h39v-318h-31l-88 213v-213h-37zM2560 -287v162h23v-149h40v-13h-63zM2564 440l23 9q0 -10 4.5 -22
t11.5 -15q20 0 20 20q-1 6 0 8.5t-2.5 8t-5 7.5t-6.5 7l-7 7t-7.5 6.5t-7.5 6.5q-10 9 -16.5 21t-6 26t13.5 23q27 16 43 6q19 -11 23 -41l-21 -4q-2 21 -9 28.5t-14 3.5t-11 -14q-3 -3 -1.5 -8.5t1.5 -8t4 -8t6 -7t6.5 -6l5.5 -5.5q31 -25 33 -40q6 -22 -4.5 -39t-30.5 -17
q-37 0 -45 47zM2574 -72v400h156v-70h-90v-86h72v-72h-72v-106h90v-66h-156zM2615 -489v159h66v-14h-43v-49h35v-17h-35v-65h43v-14h-66zM2652 639v317h43v-288h76v-29h-119zM2664 393v168h25v-168h-25zM2681 -287l29 162h26l35 -162h-25l-4 41h-32l-11 -41h-18zM2697 -489
v159q6 0 20 1.5t25 1t19 -4.5q18 -12 16.5 -41t-22.5 -35l24 -81h-22l-21 79h-16v-79h-23zM2703 549v12h76v-12h-26v-156h-19v156h-31zM2710 -231h26l-12 75zM2714 1001l69 318h43l68 -318h-41l-17 76h-65l-16 -76h-41zM2720 -393q15 0 20 0.5t10 5.5t5 16q0 16 -8 21.5
t-27 5.5v-49zM2765 68l61 4q0 -48 13 -70q7 -22 24 -14q16 2 16 32q0 15 -8 31t-14 24t-22.5 25t-18.5 19q-6 9 -18 22t-15 19q-25 37 -18 94q1 44 43 66.5t82 3.5q53 -23 53 -127l-64 -4q0 71 -24 77q-19 1 -25.5 -19t0.5 -32q3 -8 7 -15.5t7.5 -11t10 -10.5t8.5 -10
l35 -35q55 -65 47 -133q-2 -28 -21 -51.5t-49 -30.5q-30 -3 -57.5 9t-40.5 40q-12 31 -12 97zM2779 1110h51l-24 143zM2787 -287v162h15l45 -106v106h20v-162h-14l-43 111v-111h-23zM2787 956h39l47 -153l49 153h44q-6 -19 -21 -64t-23 -71l-22 -63q-3 -6 -3.5 -13.5
t0.5 -17t1 -12.5v-76h-45v63q0 4 0.5 15t0.5 20t-1 15q-11 40 -23 59zM2798 -442l20 4q0 -26 12 -31q11 -6 20 0t9 16q0 20 -41 47q-17 17 -20 37.5t14 32.5q10 9 23 10.5t20 -4.5q18 -7 18 -37l-14 -8q-1 3 -3 11.5t-4 13t-7 6.5q-13 8 -25 -8q-3 -3 -1.5 -8.5t1.5 -7.5
t4.5 -6.5t6 -6.5t7 -6t7.5 -6q3 -4 11 -12.5t12.5 -16.5t4.5 -18q8 -20 -0.5 -36t-29.5 -16q-22 0 -33.5 14t-11.5 36zM2894 -287v162q2 0 11.5 0.5t15.5 0t14.5 -1.5t16 -3.5t14.5 -7.5t9 -16t0.5 -31t-1.5 -23q0 -4 1 -19t0 -21.5t-5 -15.5t-13 -13q-13 -11 -63 -11z
M2898 -489v159h20v-159h-20zM2916 -274q11 0 16 0.5t11.5 6.5t9.5 19v82q-1 17 -9.5 21t-27.5 4v-133zM2927 1001v318h45v-289h80v-29h-125zM2941 -406q0 28 1.5 42t13.5 26t36 8q10 0 17 -2t11.5 -8t7.5 -9.5t4 -14t1 -14v-16.5v-14v-23t-2 -21t-6.5 -21.5t-14 -12.5
t-22.5 -6q-17 0 -27.5 7t-14.5 21.5t-4.5 23.5t-0.5 27v7zM2963 258v70h183v-70h-56v-330h-69v330h-58zM2970 -393q0 -2 -2.5 -23.5t-1 -35.5t9.5 -17q7 -4 12.5 -4.5t9 1.5t6.5 5t4.5 9.5t2.5 11t1.5 11.5t0.5 11v10q0 63 -11 66q-32 14 -32 -23v-22zM2988 639v43h45v-43
h-45zM2988 956h45l-16 -251h-15zM3058 -489v159h12l49 -106v106h19v-159h-17l-51 112v-112h-12zM3178 -72v400h70v-400h-70zM3281 328h63l29 -277l33 277h67l-67 -400h-66zM3508 -72v400h156v-70h-90v-86h73v-72h-73v-106h90v-66h-156z" />
    <glyph glyph-name="uni0030" unicode="7" horiz-adv-x="4741" 
d="M2392 997q-71 0 -80 70q-4 20 -4 57q0 10 -0.5 35t-0.5 39t1.5 33t5.5 33q10 53 74 57q71 0 86 -45q7 -19 9 -40.5t0.5 -57t-1.5 -41.5q0 -54 -4 -74q-14 -66 -86 -66zM948 -70l6 400h64l49 -252l45 252h70v-400h-56l-6 166l-28 -166h-48l-32 162l-4 -162h-60zM1235 -70
v400h51l68 -193v193h61v-400h-49l-70 195v-195h-61zM1460 -70v72h70v-72h-70zM1468 -377q0 24 14 38.5t40 8.5q12 0 19 -4t9.5 -13t3 -15t0.5 -19h-20q0 24 -2 29q-4 10 -16.5 10.5t-18.5 -8.5t-6 -58q0 -46 8 -57q4 -9 16.5 -7.5t16.5 11.5q2 5 2 31h20q0 -62 -38 -62
q-12 0 -21 4t-14 12t-8.5 16t-4.5 21t-1 21t0.5 22t0.5 19zM1554 70l62 4q0 -49 16 -72q8 -20 25 -12q16 3 16 33q0 14 -7.5 30t-13.5 24.5t-21.5 25.5t-18.5 20q-2 2 -17.5 17t-19.5 24q-25 40 -16 92q2 43 42 66.5t82 3.5q52 -25 52 -127l-62 -4q-1 7 -1.5 22.5t-1.5 25
t-6.5 19t-14.5 10.5q-22 1 -27.5 -17t-1.5 -34q3 -8 8 -15.5t9 -11.5t11.5 -10.5t10.5 -9.5l31 -37q56 -53 47 -131q-2 -27 -20.5 -50t-49.5 -32q-31 -3 -57.5 9.5t-38.5 39.5q-17 41 -17 97zM1573 -406q0 28 1.5 42t12.5 26t33 8q13 0 22.5 -5.5t14 -11.5t6.5 -20t2 -19.5
v-21.5v-23t-2 -21t-6.5 -21.5t-14 -12.5t-22.5 -6q-11 0 -19.5 2.5t-13.5 9t-8.5 11.5t-4.5 15.5t-1.5 15.5t0 17t0.5 15zM1577 1001v318h68q59 0 77 -35q15 -28 12 -64t-28 -55q-18 -18 -86 -18v-146h-43zM1579 758v198h41v-213q0 -61 27 -75q32 -9 45.5 13t13.5 56v103
v116h43v-145q0 -4 1 -35.5t-0.5 -45t-5.5 -36.5t-16.5 -36t-31.5 -19q-27 -14 -62 -1t-47 44q-8 20 -8 76zM1593 -393q0 -2 -0.5 -13t0 -19t1.5 -18.5t4 -17t8 -8.5q32 -17 34 33v22q0 1 0.5 12t0 17.5t-1.5 15.5t-3.5 14.5t-7.5 6.5q-16 8 -25.5 0t-9.5 -23v-22zM1620 1182
q38 0 47 2q27 7 27 45q0 49 -27 55q-8 3 -16 3.5t-18 -0.5t-13 -1v-104zM1634 -287v162h62v-16h-37v-56h31v-14h-31v-76h-25zM1686 -489v159h24l31 -127l24 127h23l2 -159h-16v118l-25 -118h-18l-27 118v-118h-18zM1710 -201q0 26 1.5 39.5t13 27t34.5 13.5q7 -1 12.5 -3.5
t9.5 -5.5t7 -7.5t5 -8t3.5 -10t2 -10t1 -11t0.5 -10v-11v-9.5q0 -14 -0.5 -22t-2.5 -21t-6.5 -19.5t-13.5 -12t-22 -5.5q-16 0 -26 6.5t-14 20.5t-4.5 23t-0.5 28v8zM1733 -197q0 -2 -1 -16t-1 -23.5t4.5 -21t13.5 -14.5q10 -2 16.5 2.5t9 16t3 19.5t0.5 21q0 2 0.5 12.5
t0 17.5t-1.5 16.5t-4 15.5t-8 8q-11 9 -21.5 -1t-10.5 -26v-27zM1765 1001v318h121v-33h-78v-104h66v-35h-66v-117h82v-29h-125zM1767 131q0 97 2 115q11 63 58 84q56 11 90 -8q7 -4 12.5 -10t10 -11t7.5 -13t5.5 -13t4 -15t2 -14.5t1 -15.5t0.5 -14v-15v-13h-66q0 52 -3 65
t-17 19q-37 5 -37 -55v-143q0 -2 -0.5 -15t0 -21.5t2 -20t7 -18.5t14.5 -9q8 -1 14 -2.5t10 4t7.5 9t5 12.5t2.5 14.5t1.5 15t0.5 14.5v12.5v8.5h-41v59h104v-207h-53l-2 13q-18 -17 -48.5 -18t-50.5 12q-32 15 -41 81q-2 19 -2 113zM1784 725l45 12q5 -46 14 -55
q11 -11 25.5 -12.5t23.5 8.5q14 8 14 28t-10 33q-3 3 -7 9t-7 10t-8.5 8.5t-11.5 7.5q-1 1 -28.5 24t-35.5 38q-20 30 -10 69t47 51q41 7 78 -12q26 -21 26 -67l-34 -15q-4 53 -33 58q-16 6 -27.5 -2t-13.5 -21q-5 -7 -2 -16.5t4 -14.5t8.5 -13.5t12 -12.5t13.5 -11.5
t13 -11.5q3 -3 14 -12t15 -12.5t12 -12t11.5 -15t7 -15.5t4.5 -19q8 -38 -13 -67t-59 -29t-61.5 25.5t-26.5 64.5zM1819 -489v159h24l29 -127l26 127h21l4 -159h-14l-4 118l-25 -118h-18l-23 118l-4 -118h-16zM1825 -287v162q2 0 17 1t24.5 0t17.5 -5q19 -11 20 -40.5
t-20 -37.5l25 -80h-25l-22 76h-19v-76h-18zM1839 393v168q4 0 15 0.5t17.5 0.5t15.5 -1.5t15.5 -6t10.5 -11.5q5 -13 4 -33t-8 -29q-13 -10 -47 -10v-78h-23zM1843 -197q41 0 41 31q0 16 -10 20.5t-31 4.5v-56zM1862 485q18 0 22 4q12 6 12 33q0 19 -7 23t-27 4v-64z
M1923 1001v318q6 0 30.5 0.5t36 0t29 -3.5t29.5 -9q36 -21 37 -76.5t-37 -69.5l39 -160h-39l-45 148h-33v-148h-47zM1939 393v168h17v-149h43v-19h-60zM1950 -489v159h63v-14h-39v-49h31v-17h-31v-65h39v-14h-63zM1960 -141v16h84v-16h-31v-146h-24v146h-29zM1970 1182
q29 0 45 2q31 16 25 55q0 36 -25 43q-6 3 -12.5 4t-11.5 1t-11.5 -0.5t-9.5 -0.5v-104zM1976 -121l109 502h61l-112 -502h-58zM1982 639v317h123v-36h-80v-103h64v-33h-64v-116h80v-29h-123zM2015 393v168h62v-12h-41v-60h35v-18h-35v-59h41v-19h-62zM2030 -489v159
q7 0 21 1.5t23.5 1t16.5 -4.5q18 -13 18.5 -40.5t-20.5 -35.5l25 -81h-23l-18 79h-19v-79h-24zM2054 -393q11 0 14.5 0.5t10 2t8.5 6.5t2 13q0 27 -35 27v-49zM2054 -287v162h21v-72h45v72h22v-162h-22v76h-45v-76h-21zM2087 393l35 168h26l31 -168h-22l-9 47h-34l-7 -47
h-20zM2114 453h34l-16 79zM2114 1090l45 12q3 -43 16 -58q11 -11 26.5 -12t26.5 8q11 10 10.5 28.5t-10.5 33.5q-2 2 -8 9.5t-13 14.5t-16 13q-3 3 -26.5 24t-32.5 33q-22 33 -12 72.5t49 46.5q15 7 38 5t38 -13q23 -14 28 -66l-35 -12q-1 2 -4.5 16t-5.5 20t-8.5 14
t-15.5 11q-37 0 -43 -28q-7 -40 53 -80q4 -4 18.5 -19t20.5 -22t13.5 -20t10.5 -25q8 -39 -13 -69t-60 -30q-40 0 -63.5 26.5t-26.5 66.5zM2132 -377q0 24 13 38.5t38 8.5q14 0 22 -8.5t9.5 -17.5t1.5 -25h-23q0 1 1.5 7t1 12t-4.5 10q-1 10 -12.5 10.5t-17.5 -8.5
q-4 -4 -6 -12.5t-2 -15.5t0.5 -17.5t0.5 -12.5t-0.5 -11.5t-0.5 -16.5t2 -15.5t6 -13.5q6 -9 17.5 -7.5t12.5 11.5q4 4 4.5 9.5t-1 12t-1.5 9.5h23q0 -18 -2 -29t-11.5 -22t-27.5 -11q-16 0 -26 7t-13.5 22.5t-4.5 26.5t0 32.5t1 26.5zM2161 -72v400h114q27 0 50.5 -27
t23.5 -78q0 -70 -33 -88q37 -30 37 -102q0 -51 -23 -78t-51 -27h-118zM2165 -287v162h63v-16h-39v-56h31v-14h-31v-63h39v-13h-63zM2189 440l25 9q0 -33 10 -37q27 0 27 20q0 9 -6.5 18t-17 19t-13.5 14q-19 13 -23 33.5t13 36.5q19 16 45 6q22 -13 22 -41l-20 -4
q-9 35 -25 33q-11 -2 -12 -15q-7 -22 18 -43q3 -2 12 -8.5t13 -9.5t8.5 -9.5t5.5 -12.5q6 -22 -5 -39t-34 -17q-18 0 -29.5 13.5t-13.5 33.5zM2224 -12h33q16 0 23.5 19t5.5 46q-8 47 -35 47h-27v-112zM2224 158h27q28 0 28 51q0 61 -30 61h-25v-112zM2224 766q0 11 -0.5 34
t-0.5 37t1 33t4 33q17 53 78 53q69 0 82 -45q8 -18 10 -40t0 -56t-2 -41t0.5 -19t1 -20t-1 -18t-4.5 -19q-3 -30 -24 -46.5t-54 -16.5q-35 0 -59 17t-27 48q-4 23 -4 66zM2241 -489v159h22v-159h-22zM2271 737q0 -55 19 -65q23 -6 39 0q22 14 26 41q1 4 1 10.5t-0.5 14
t-0.5 10.5v114q0 39 -12 49q-29 17 -39 9q-24 0 -33 -25q-3 -15 -3 -32t1.5 -38t1.5 -32v-56zM2279 -489l35 159h23l37 -159h-21l-8 43h-33l-8 -43h-25zM2290 393v168h65v-12h-41v-60h31v-18h-31v-59h43v-19h-67zM2298 -287v162h61v-16h-45v-56h31v-14h-31v-76h-16z
M2314 -436h29l-14 80zM2355 1098q0 -53 23 -64q21 -8 37 0q22 11 22 43v144q0 41 -14 55q-12 17 -35 10q-23 -3 -31 -33q-5 -11 -5.5 -27.5t1.5 -39t2 -31.5v-57zM2374 -248v37v86h18v-72q0 -2 -0.5 -15t-0.5 -21t2 -19t7 -16.5t13 -5.5q9 0 14.5 5.5t7.5 16.5t2.5 18.5
t0 21.5t-0.5 15v72h21v-74v-11v-13.5t-0.5 -12.5t-2 -13.5t-3.5 -12t-5.5 -11.5t-8.5 -8t-11 -6q-46 -12 -53 39zM2388 -489v159h22v-145h44v-14h-66zM2388 -72v400h68v-334h84v-66h-152zM2410 561h25l23 -121l24 121h21l-35 -168h-23zM2443 639v317h31l90 -213v213h39v-317
h-31l-94 215v-215h-35zM2482 -287v162h25v-149h37v-13h-62zM2509 -330h18l25 -116l26 116h19l-37 -159h-16zM2519 393v168h25v-168h-25zM2527 1001v318h27l90 -213v213h39v-318h-31l-88 213v-213h-37zM2560 -287v162h23v-149h40v-13h-63zM2564 440l23 9q0 -10 4.5 -22
t11.5 -15q20 0 20 20q-1 6 0 8.5t-2.5 8t-5 7.5t-6.5 7l-7 7t-7.5 6.5t-7.5 6.5q-10 9 -16.5 21t-6 26t13.5 23q27 16 43 6q19 -11 23 -41l-21 -4q-2 21 -9 28.5t-14 3.5t-11 -14q-3 -3 -1.5 -8.5t1.5 -8t4 -8t6 -7t6.5 -6l5.5 -5.5q31 -25 33 -40q6 -22 -4.5 -39t-30.5 -17
q-37 0 -45 47zM2574 -72v400h156v-70h-90v-86h72v-72h-72v-106h90v-66h-156zM2615 -489v159h66v-14h-43v-49h35v-17h-35v-65h43v-14h-66zM2652 639v317h43v-288h76v-29h-119zM2664 393v168h25v-168h-25zM2681 -287l29 162h26l35 -162h-25l-4 41h-32l-11 -41h-18zM2697 -489
v159q6 0 20 1.5t25 1t19 -4.5q18 -12 16.5 -41t-22.5 -35l24 -81h-22l-21 79h-16v-79h-23zM2703 549v12h76v-12h-26v-156h-19v156h-31zM2710 -231h26l-12 75zM2714 1001l69 318h43l68 -318h-41l-17 76h-65l-16 -76h-41zM2720 -393q15 0 20 0.5t10 5.5t5 16q0 16 -8 21.5
t-27 5.5v-49zM2765 68l61 4q0 -48 13 -70q7 -22 24 -14q16 2 16 32q0 15 -8 31t-14 24t-22.5 25t-18.5 19q-6 9 -18 22t-15 19q-25 37 -18 94q1 44 43 66.5t82 3.5q53 -23 53 -127l-64 -4q0 71 -24 77q-19 1 -25.5 -19t0.5 -32q3 -8 7 -15.5t7.5 -11t10 -10.5t8.5 -10
l35 -35q55 -65 47 -133q-2 -28 -21 -51.5t-49 -30.5q-30 -3 -57.5 9t-40.5 40q-12 31 -12 97zM2779 1110h51l-24 143zM2787 -287v162h15l45 -106v106h20v-162h-14l-43 111v-111h-23zM2787 956h39l47 -153l49 153h44q-6 -19 -21 -64t-23 -71l-22 -63q-3 -6 -3.5 -13.5
t0.5 -17t1 -12.5v-76h-45v63q0 4 0.5 15t0.5 20t-1 15q-11 40 -23 59zM2798 -442l20 4q0 -26 12 -31q11 -6 20 0t9 16q0 20 -41 47q-17 17 -20 37.5t14 32.5q10 9 23 10.5t20 -4.5q18 -7 18 -37l-14 -8q-1 3 -3 11.5t-4 13t-7 6.5q-13 8 -25 -8q-3 -3 -1.5 -8.5t1.5 -7.5
t4.5 -6.5t6 -6.5t7 -6t7.5 -6q3 -4 11 -12.5t12.5 -16.5t4.5 -18q8 -20 -0.5 -36t-29.5 -16q-22 0 -33.5 14t-11.5 36zM2894 -287v162q2 0 11.5 0.5t15.5 0t14.5 -1.5t16 -3.5t14.5 -7.5t9 -16t0.5 -31t-1.5 -23q0 -4 1 -19t0 -21.5t-5 -15.5t-13 -13q-13 -11 -63 -11z
M2898 -489v159h20v-159h-20zM2916 -274q11 0 16 0.5t11.5 6.5t9.5 19v82q-1 17 -9.5 21t-27.5 4v-133zM2927 1001v318h45v-289h80v-29h-125zM2941 -406q0 28 1.5 42t13.5 26t36 8q10 0 17 -2t11.5 -8t7.5 -9.5t4 -14t1 -14v-16.5v-14v-23t-2 -21t-6.5 -21.5t-14 -12.5
t-22.5 -6q-17 0 -27.5 7t-14.5 21.5t-4.5 23.5t-0.5 27v7zM2963 258v70h183v-70h-56v-330h-69v330h-58zM2970 -393q0 -2 -2.5 -23.5t-1 -35.5t9.5 -17q7 -4 12.5 -4.5t9 1.5t6.5 5t4.5 9.5t2.5 11t1.5 11.5t0.5 11v10q0 63 -11 66q-32 14 -32 -23v-22zM2988 639v43h45v-43
h-45zM2988 956h45l-16 -251h-15zM3058 -489v159h12l49 -106v106h19v-159h-17l-51 112v-112h-12zM3178 -72v400h70v-400h-70zM3281 328h63l29 -277l33 277h67l-67 -400h-66zM3508 -72v400h156v-70h-90v-86h73v-72h-73v-106h90v-66h-156z" />
    <glyph glyph-name="uni0030" unicode="6" horiz-adv-x="4741" 
d="M2392 997q-71 0 -80 70q-4 20 -4 57q0 10 -0.5 35t-0.5 39t1.5 33t5.5 33q10 53 74 57q71 0 86 -45q7 -19 9 -40.5t0.5 -57t-1.5 -41.5q0 -54 -4 -74q-14 -66 -86 -66zM948 -70l6 400h64l49 -252l45 252h70v-400h-56l-6 166l-28 -166h-48l-32 162l-4 -162h-60zM1235 -70
v400h51l68 -193v193h61v-400h-49l-70 195v-195h-61zM1460 -70v72h70v-72h-70zM1468 -377q0 24 14 38.5t40 8.5q12 0 19 -4t9.5 -13t3 -15t0.5 -19h-20q0 24 -2 29q-4 10 -16.5 10.5t-18.5 -8.5t-6 -58q0 -46 8 -57q4 -9 16.5 -7.5t16.5 11.5q2 5 2 31h20q0 -62 -38 -62
q-12 0 -21 4t-14 12t-8.5 16t-4.5 21t-1 21t0.5 22t0.5 19zM1554 70l62 4q0 -49 16 -72q8 -20 25 -12q16 3 16 33q0 14 -7.5 30t-13.5 24.5t-21.5 25.5t-18.5 20q-2 2 -17.5 17t-19.5 24q-25 40 -16 92q2 43 42 66.5t82 3.5q52 -25 52 -127l-62 -4q-1 7 -1.5 22.5t-1.5 25
t-6.5 19t-14.5 10.5q-22 1 -27.5 -17t-1.5 -34q3 -8 8 -15.5t9 -11.5t11.5 -10.5t10.5 -9.5l31 -37q56 -53 47 -131q-2 -27 -20.5 -50t-49.5 -32q-31 -3 -57.5 9.5t-38.5 39.5q-17 41 -17 97zM1573 -406q0 28 1.5 42t12.5 26t33 8q13 0 22.5 -5.5t14 -11.5t6.5 -20t2 -19.5
v-21.5v-23t-2 -21t-6.5 -21.5t-14 -12.5t-22.5 -6q-11 0 -19.5 2.5t-13.5 9t-8.5 11.5t-4.5 15.5t-1.5 15.5t0 17t0.5 15zM1577 1001v318h68q59 0 77 -35q15 -28 12 -64t-28 -55q-18 -18 -86 -18v-146h-43zM1579 758v198h41v-213q0 -61 27 -75q32 -9 45.5 13t13.5 56v103
v116h43v-145q0 -4 1 -35.5t-0.5 -45t-5.5 -36.5t-16.5 -36t-31.5 -19q-27 -14 -62 -1t-47 44q-8 20 -8 76zM1593 -393q0 -2 -0.5 -13t0 -19t1.5 -18.5t4 -17t8 -8.5q32 -17 34 33v22q0 1 0.5 12t0 17.5t-1.5 15.5t-3.5 14.5t-7.5 6.5q-16 8 -25.5 0t-9.5 -23v-22zM1620 1182
q38 0 47 2q27 7 27 45q0 49 -27 55q-8 3 -16 3.5t-18 -0.5t-13 -1v-104zM1634 -287v162h62v-16h-37v-56h31v-14h-31v-76h-25zM1686 -489v159h24l31 -127l24 127h23l2 -159h-16v118l-25 -118h-18l-27 118v-118h-18zM1710 -201q0 26 1.5 39.5t13 27t34.5 13.5q7 -1 12.5 -3.5
t9.5 -5.5t7 -7.5t5 -8t3.5 -10t2 -10t1 -11t0.5 -10v-11v-9.5q0 -14 -0.5 -22t-2.5 -21t-6.5 -19.5t-13.5 -12t-22 -5.5q-16 0 -26 6.5t-14 20.5t-4.5 23t-0.5 28v8zM1733 -197q0 -2 -1 -16t-1 -23.5t4.5 -21t13.5 -14.5q10 -2 16.5 2.5t9 16t3 19.5t0.5 21q0 2 0.5 12.5
t0 17.5t-1.5 16.5t-4 15.5t-8 8q-11 9 -21.5 -1t-10.5 -26v-27zM1765 1001v318h121v-33h-78v-104h66v-35h-66v-117h82v-29h-125zM1767 131q0 97 2 115q11 63 58 84q56 11 90 -8q7 -4 12.5 -10t10 -11t7.5 -13t5.5 -13t4 -15t2 -14.5t1 -15.5t0.5 -14v-15v-13h-66q0 52 -3 65
t-17 19q-37 5 -37 -55v-143q0 -2 -0.5 -15t0 -21.5t2 -20t7 -18.5t14.5 -9q8 -1 14 -2.5t10 4t7.5 9t5 12.5t2.5 14.5t1.5 15t0.5 14.5v12.5v8.5h-41v59h104v-207h-53l-2 13q-18 -17 -48.5 -18t-50.5 12q-32 15 -41 81q-2 19 -2 113zM1784 725l45 12q5 -46 14 -55
q11 -11 25.5 -12.5t23.5 8.5q14 8 14 28t-10 33q-3 3 -7 9t-7 10t-8.5 8.5t-11.5 7.5q-1 1 -28.5 24t-35.5 38q-20 30 -10 69t47 51q41 7 78 -12q26 -21 26 -67l-34 -15q-4 53 -33 58q-16 6 -27.5 -2t-13.5 -21q-5 -7 -2 -16.5t4 -14.5t8.5 -13.5t12 -12.5t13.5 -11.5
t13 -11.5q3 -3 14 -12t15 -12.5t12 -12t11.5 -15t7 -15.5t4.5 -19q8 -38 -13 -67t-59 -29t-61.5 25.5t-26.5 64.5zM1819 -489v159h24l29 -127l26 127h21l4 -159h-14l-4 118l-25 -118h-18l-23 118l-4 -118h-16zM1825 -287v162q2 0 17 1t24.5 0t17.5 -5q19 -11 20 -40.5
t-20 -37.5l25 -80h-25l-22 76h-19v-76h-18zM1839 393v168q4 0 15 0.5t17.5 0.5t15.5 -1.5t15.5 -6t10.5 -11.5q5 -13 4 -33t-8 -29q-13 -10 -47 -10v-78h-23zM1843 -197q41 0 41 31q0 16 -10 20.5t-31 4.5v-56zM1862 485q18 0 22 4q12 6 12 33q0 19 -7 23t-27 4v-64z
M1923 1001v318q6 0 30.5 0.5t36 0t29 -3.5t29.5 -9q36 -21 37 -76.5t-37 -69.5l39 -160h-39l-45 148h-33v-148h-47zM1939 393v168h17v-149h43v-19h-60zM1950 -489v159h63v-14h-39v-49h31v-17h-31v-65h39v-14h-63zM1960 -141v16h84v-16h-31v-146h-24v146h-29zM1970 1182
q29 0 45 2q31 16 25 55q0 36 -25 43q-6 3 -12.5 4t-11.5 1t-11.5 -0.5t-9.5 -0.5v-104zM1976 -121l109 502h61l-112 -502h-58zM1982 639v317h123v-36h-80v-103h64v-33h-64v-116h80v-29h-123zM2015 393v168h62v-12h-41v-60h35v-18h-35v-59h41v-19h-62zM2030 -489v159
q7 0 21 1.5t23.5 1t16.5 -4.5q18 -13 18.5 -40.5t-20.5 -35.5l25 -81h-23l-18 79h-19v-79h-24zM2054 -393q11 0 14.5 0.5t10 2t8.5 6.5t2 13q0 27 -35 27v-49zM2054 -287v162h21v-72h45v72h22v-162h-22v76h-45v-76h-21zM2087 393l35 168h26l31 -168h-22l-9 47h-34l-7 -47
h-20zM2114 453h34l-16 79zM2114 1090l45 12q3 -43 16 -58q11 -11 26.5 -12t26.5 8q11 10 10.5 28.5t-10.5 33.5q-2 2 -8 9.5t-13 14.5t-16 13q-3 3 -26.5 24t-32.5 33q-22 33 -12 72.5t49 46.5q15 7 38 5t38 -13q23 -14 28 -66l-35 -12q-1 2 -4.5 16t-5.5 20t-8.5 14
t-15.5 11q-37 0 -43 -28q-7 -40 53 -80q4 -4 18.5 -19t20.5 -22t13.5 -20t10.5 -25q8 -39 -13 -69t-60 -30q-40 0 -63.5 26.5t-26.5 66.5zM2132 -377q0 24 13 38.5t38 8.5q14 0 22 -8.5t9.5 -17.5t1.5 -25h-23q0 1 1.5 7t1 12t-4.5 10q-1 10 -12.5 10.5t-17.5 -8.5
q-4 -4 -6 -12.5t-2 -15.5t0.5 -17.5t0.5 -12.5t-0.5 -11.5t-0.5 -16.5t2 -15.5t6 -13.5q6 -9 17.5 -7.5t12.5 11.5q4 4 4.5 9.5t-1 12t-1.5 9.5h23q0 -18 -2 -29t-11.5 -22t-27.5 -11q-16 0 -26 7t-13.5 22.5t-4.5 26.5t0 32.5t1 26.5zM2161 -72v400h114q27 0 50.5 -27
t23.5 -78q0 -70 -33 -88q37 -30 37 -102q0 -51 -23 -78t-51 -27h-118zM2165 -287v162h63v-16h-39v-56h31v-14h-31v-63h39v-13h-63zM2189 440l25 9q0 -33 10 -37q27 0 27 20q0 9 -6.5 18t-17 19t-13.5 14q-19 13 -23 33.5t13 36.5q19 16 45 6q22 -13 22 -41l-20 -4
q-9 35 -25 33q-11 -2 -12 -15q-7 -22 18 -43q3 -2 12 -8.5t13 -9.5t8.5 -9.5t5.5 -12.5q6 -22 -5 -39t-34 -17q-18 0 -29.5 13.5t-13.5 33.5zM2224 -12h33q16 0 23.5 19t5.5 46q-8 47 -35 47h-27v-112zM2224 158h27q28 0 28 51q0 61 -30 61h-25v-112zM2224 766q0 11 -0.5 34
t-0.5 37t1 33t4 33q17 53 78 53q69 0 82 -45q8 -18 10 -40t0 -56t-2 -41t0.5 -19t1 -20t-1 -18t-4.5 -19q-3 -30 -24 -46.5t-54 -16.5q-35 0 -59 17t-27 48q-4 23 -4 66zM2241 -489v159h22v-159h-22zM2271 737q0 -55 19 -65q23 -6 39 0q22 14 26 41q1 4 1 10.5t-0.5 14
t-0.5 10.5v114q0 39 -12 49q-29 17 -39 9q-24 0 -33 -25q-3 -15 -3 -32t1.5 -38t1.5 -32v-56zM2279 -489l35 159h23l37 -159h-21l-8 43h-33l-8 -43h-25zM2290 393v168h65v-12h-41v-60h31v-18h-31v-59h43v-19h-67zM2298 -287v162h61v-16h-45v-56h31v-14h-31v-76h-16z
M2314 -436h29l-14 80zM2355 1098q0 -53 23 -64q21 -8 37 0q22 11 22 43v144q0 41 -14 55q-12 17 -35 10q-23 -3 -31 -33q-5 -11 -5.5 -27.5t1.5 -39t2 -31.5v-57zM2374 -248v37v86h18v-72q0 -2 -0.5 -15t-0.5 -21t2 -19t7 -16.5t13 -5.5q9 0 14.5 5.5t7.5 16.5t2.5 18.5
t0 21.5t-0.5 15v72h21v-74v-11v-13.5t-0.5 -12.5t-2 -13.5t-3.5 -12t-5.5 -11.5t-8.5 -8t-11 -6q-46 -12 -53 39zM2388 -489v159h22v-145h44v-14h-66zM2388 -72v400h68v-334h84v-66h-152zM2410 561h25l23 -121l24 121h21l-35 -168h-23zM2443 639v317h31l90 -213v213h39v-317
h-31l-94 215v-215h-35zM2482 -287v162h25v-149h37v-13h-62zM2509 -330h18l25 -116l26 116h19l-37 -159h-16zM2519 393v168h25v-168h-25zM2527 1001v318h27l90 -213v213h39v-318h-31l-88 213v-213h-37zM2560 -287v162h23v-149h40v-13h-63zM2564 440l23 9q0 -10 4.5 -22
t11.5 -15q20 0 20 20q-1 6 0 8.5t-2.5 8t-5 7.5t-6.5 7l-7 7t-7.5 6.5t-7.5 6.5q-10 9 -16.5 21t-6 26t13.5 23q27 16 43 6q19 -11 23 -41l-21 -4q-2 21 -9 28.5t-14 3.5t-11 -14q-3 -3 -1.5 -8.5t1.5 -8t4 -8t6 -7t6.5 -6l5.5 -5.5q31 -25 33 -40q6 -22 -4.5 -39t-30.5 -17
q-37 0 -45 47zM2574 -72v400h156v-70h-90v-86h72v-72h-72v-106h90v-66h-156zM2615 -489v159h66v-14h-43v-49h35v-17h-35v-65h43v-14h-66zM2652 639v317h43v-288h76v-29h-119zM2664 393v168h25v-168h-25zM2681 -287l29 162h26l35 -162h-25l-4 41h-32l-11 -41h-18zM2697 -489
v159q6 0 20 1.5t25 1t19 -4.5q18 -12 16.5 -41t-22.5 -35l24 -81h-22l-21 79h-16v-79h-23zM2703 549v12h76v-12h-26v-156h-19v156h-31zM2710 -231h26l-12 75zM2714 1001l69 318h43l68 -318h-41l-17 76h-65l-16 -76h-41zM2720 -393q15 0 20 0.5t10 5.5t5 16q0 16 -8 21.5
t-27 5.5v-49zM2765 68l61 4q0 -48 13 -70q7 -22 24 -14q16 2 16 32q0 15 -8 31t-14 24t-22.5 25t-18.5 19q-6 9 -18 22t-15 19q-25 37 -18 94q1 44 43 66.5t82 3.5q53 -23 53 -127l-64 -4q0 71 -24 77q-19 1 -25.5 -19t0.5 -32q3 -8 7 -15.5t7.5 -11t10 -10.5t8.5 -10
l35 -35q55 -65 47 -133q-2 -28 -21 -51.5t-49 -30.5q-30 -3 -57.5 9t-40.5 40q-12 31 -12 97zM2779 1110h51l-24 143zM2787 -287v162h15l45 -106v106h20v-162h-14l-43 111v-111h-23zM2787 956h39l47 -153l49 153h44q-6 -19 -21 -64t-23 -71l-22 -63q-3 -6 -3.5 -13.5
t0.5 -17t1 -12.5v-76h-45v63q0 4 0.5 15t0.5 20t-1 15q-11 40 -23 59zM2798 -442l20 4q0 -26 12 -31q11 -6 20 0t9 16q0 20 -41 47q-17 17 -20 37.5t14 32.5q10 9 23 10.5t20 -4.5q18 -7 18 -37l-14 -8q-1 3 -3 11.5t-4 13t-7 6.5q-13 8 -25 -8q-3 -3 -1.5 -8.5t1.5 -7.5
t4.5 -6.5t6 -6.5t7 -6t7.5 -6q3 -4 11 -12.5t12.5 -16.5t4.5 -18q8 -20 -0.5 -36t-29.5 -16q-22 0 -33.5 14t-11.5 36zM2894 -287v162q2 0 11.5 0.5t15.5 0t14.5 -1.5t16 -3.5t14.5 -7.5t9 -16t0.5 -31t-1.5 -23q0 -4 1 -19t0 -21.5t-5 -15.5t-13 -13q-13 -11 -63 -11z
M2898 -489v159h20v-159h-20zM2916 -274q11 0 16 0.5t11.5 6.5t9.5 19v82q-1 17 -9.5 21t-27.5 4v-133zM2927 1001v318h45v-289h80v-29h-125zM2941 -406q0 28 1.5 42t13.5 26t36 8q10 0 17 -2t11.5 -8t7.5 -9.5t4 -14t1 -14v-16.5v-14v-23t-2 -21t-6.5 -21.5t-14 -12.5
t-22.5 -6q-17 0 -27.5 7t-14.5 21.5t-4.5 23.5t-0.5 27v7zM2963 258v70h183v-70h-56v-330h-69v330h-58zM2970 -393q0 -2 -2.5 -23.5t-1 -35.5t9.5 -17q7 -4 12.5 -4.5t9 1.5t6.5 5t4.5 9.5t2.5 11t1.5 11.5t0.5 11v10q0 63 -11 66q-32 14 -32 -23v-22zM2988 639v43h45v-43
h-45zM2988 956h45l-16 -251h-15zM3058 -489v159h12l49 -106v106h19v-159h-17l-51 112v-112h-12zM3178 -72v400h70v-400h-70zM3281 328h63l29 -277l33 277h67l-67 -400h-66zM3508 -72v400h156v-70h-90v-86h73v-72h-73v-106h90v-66h-156z" />
    <glyph glyph-name="uni0030" unicode="5" horiz-adv-x="4741" 
d="M2392 997q-71 0 -80 70q-4 20 -4 57q0 10 -0.5 35t-0.5 39t1.5 33t5.5 33q10 53 74 57q71 0 86 -45q7 -19 9 -40.5t0.5 -57t-1.5 -41.5q0 -54 -4 -74q-14 -66 -86 -66zM948 -70l6 400h64l49 -252l45 252h70v-400h-56l-6 166l-28 -166h-48l-32 162l-4 -162h-60zM1235 -70
v400h51l68 -193v193h61v-400h-49l-70 195v-195h-61zM1460 -70v72h70v-72h-70zM1468 -377q0 24 14 38.5t40 8.5q12 0 19 -4t9.5 -13t3 -15t0.5 -19h-20q0 24 -2 29q-4 10 -16.5 10.5t-18.5 -8.5t-6 -58q0 -46 8 -57q4 -9 16.5 -7.5t16.5 11.5q2 5 2 31h20q0 -62 -38 -62
q-12 0 -21 4t-14 12t-8.5 16t-4.5 21t-1 21t0.5 22t0.5 19zM1554 70l62 4q0 -49 16 -72q8 -20 25 -12q16 3 16 33q0 14 -7.5 30t-13.5 24.5t-21.5 25.5t-18.5 20q-2 2 -17.5 17t-19.5 24q-25 40 -16 92q2 43 42 66.5t82 3.5q52 -25 52 -127l-62 -4q-1 7 -1.5 22.5t-1.5 25
t-6.5 19t-14.5 10.5q-22 1 -27.5 -17t-1.5 -34q3 -8 8 -15.5t9 -11.5t11.5 -10.5t10.5 -9.5l31 -37q56 -53 47 -131q-2 -27 -20.5 -50t-49.5 -32q-31 -3 -57.5 9.5t-38.5 39.5q-17 41 -17 97zM1573 -406q0 28 1.5 42t12.5 26t33 8q13 0 22.5 -5.5t14 -11.5t6.5 -20t2 -19.5
v-21.5v-23t-2 -21t-6.5 -21.5t-14 -12.5t-22.5 -6q-11 0 -19.5 2.5t-13.5 9t-8.5 11.5t-4.5 15.5t-1.5 15.5t0 17t0.5 15zM1577 1001v318h68q59 0 77 -35q15 -28 12 -64t-28 -55q-18 -18 -86 -18v-146h-43zM1579 758v198h41v-213q0 -61 27 -75q32 -9 45.5 13t13.5 56v103
v116h43v-145q0 -4 1 -35.5t-0.5 -45t-5.5 -36.5t-16.5 -36t-31.5 -19q-27 -14 -62 -1t-47 44q-8 20 -8 76zM1593 -393q0 -2 -0.5 -13t0 -19t1.5 -18.5t4 -17t8 -8.5q32 -17 34 33v22q0 1 0.5 12t0 17.5t-1.5 15.5t-3.5 14.5t-7.5 6.5q-16 8 -25.5 0t-9.5 -23v-22zM1620 1182
q38 0 47 2q27 7 27 45q0 49 -27 55q-8 3 -16 3.5t-18 -0.5t-13 -1v-104zM1634 -287v162h62v-16h-37v-56h31v-14h-31v-76h-25zM1686 -489v159h24l31 -127l24 127h23l2 -159h-16v118l-25 -118h-18l-27 118v-118h-18zM1710 -201q0 26 1.5 39.5t13 27t34.5 13.5q7 -1 12.5 -3.5
t9.5 -5.5t7 -7.5t5 -8t3.5 -10t2 -10t1 -11t0.5 -10v-11v-9.5q0 -14 -0.5 -22t-2.5 -21t-6.5 -19.5t-13.5 -12t-22 -5.5q-16 0 -26 6.5t-14 20.5t-4.5 23t-0.5 28v8zM1733 -197q0 -2 -1 -16t-1 -23.5t4.5 -21t13.5 -14.5q10 -2 16.5 2.5t9 16t3 19.5t0.5 21q0 2 0.5 12.5
t0 17.5t-1.5 16.5t-4 15.5t-8 8q-11 9 -21.5 -1t-10.5 -26v-27zM1765 1001v318h121v-33h-78v-104h66v-35h-66v-117h82v-29h-125zM1767 131q0 97 2 115q11 63 58 84q56 11 90 -8q7 -4 12.5 -10t10 -11t7.5 -13t5.5 -13t4 -15t2 -14.5t1 -15.5t0.5 -14v-15v-13h-66q0 52 -3 65
t-17 19q-37 5 -37 -55v-143q0 -2 -0.5 -15t0 -21.5t2 -20t7 -18.5t14.5 -9q8 -1 14 -2.5t10 4t7.5 9t5 12.5t2.5 14.5t1.5 15t0.5 14.5v12.5v8.5h-41v59h104v-207h-53l-2 13q-18 -17 -48.5 -18t-50.5 12q-32 15 -41 81q-2 19 -2 113zM1784 725l45 12q5 -46 14 -55
q11 -11 25.5 -12.5t23.5 8.5q14 8 14 28t-10 33q-3 3 -7 9t-7 10t-8.5 8.5t-11.5 7.5q-1 1 -28.5 24t-35.5 38q-20 30 -10 69t47 51q41 7 78 -12q26 -21 26 -67l-34 -15q-4 53 -33 58q-16 6 -27.5 -2t-13.5 -21q-5 -7 -2 -16.5t4 -14.5t8.5 -13.5t12 -12.5t13.5 -11.5
t13 -11.5q3 -3 14 -12t15 -12.5t12 -12t11.5 -15t7 -15.5t4.5 -19q8 -38 -13 -67t-59 -29t-61.5 25.5t-26.5 64.5zM1819 -489v159h24l29 -127l26 127h21l4 -159h-14l-4 118l-25 -118h-18l-23 118l-4 -118h-16zM1825 -287v162q2 0 17 1t24.5 0t17.5 -5q19 -11 20 -40.5
t-20 -37.5l25 -80h-25l-22 76h-19v-76h-18zM1839 393v168q4 0 15 0.5t17.5 0.5t15.5 -1.5t15.5 -6t10.5 -11.5q5 -13 4 -33t-8 -29q-13 -10 -47 -10v-78h-23zM1843 -197q41 0 41 31q0 16 -10 20.5t-31 4.5v-56zM1862 485q18 0 22 4q12 6 12 33q0 19 -7 23t-27 4v-64z
M1923 1001v318q6 0 30.5 0.5t36 0t29 -3.5t29.5 -9q36 -21 37 -76.5t-37 -69.5l39 -160h-39l-45 148h-33v-148h-47zM1939 393v168h17v-149h43v-19h-60zM1950 -489v159h63v-14h-39v-49h31v-17h-31v-65h39v-14h-63zM1960 -141v16h84v-16h-31v-146h-24v146h-29zM1970 1182
q29 0 45 2q31 16 25 55q0 36 -25 43q-6 3 -12.5 4t-11.5 1t-11.5 -0.5t-9.5 -0.5v-104zM1976 -121l109 502h61l-112 -502h-58zM1982 639v317h123v-36h-80v-103h64v-33h-64v-116h80v-29h-123zM2015 393v168h62v-12h-41v-60h35v-18h-35v-59h41v-19h-62zM2030 -489v159
q7 0 21 1.5t23.5 1t16.5 -4.5q18 -13 18.5 -40.5t-20.5 -35.5l25 -81h-23l-18 79h-19v-79h-24zM2054 -393q11 0 14.5 0.5t10 2t8.5 6.5t2 13q0 27 -35 27v-49zM2054 -287v162h21v-72h45v72h22v-162h-22v76h-45v-76h-21zM2087 393l35 168h26l31 -168h-22l-9 47h-34l-7 -47
h-20zM2114 453h34l-16 79zM2114 1090l45 12q3 -43 16 -58q11 -11 26.5 -12t26.5 8q11 10 10.5 28.5t-10.5 33.5q-2 2 -8 9.5t-13 14.5t-16 13q-3 3 -26.5 24t-32.5 33q-22 33 -12 72.5t49 46.5q15 7 38 5t38 -13q23 -14 28 -66l-35 -12q-1 2 -4.5 16t-5.5 20t-8.5 14
t-15.5 11q-37 0 -43 -28q-7 -40 53 -80q4 -4 18.5 -19t20.5 -22t13.5 -20t10.5 -25q8 -39 -13 -69t-60 -30q-40 0 -63.5 26.5t-26.5 66.5zM2132 -377q0 24 13 38.5t38 8.5q14 0 22 -8.5t9.5 -17.5t1.5 -25h-23q0 1 1.5 7t1 12t-4.5 10q-1 10 -12.5 10.5t-17.5 -8.5
q-4 -4 -6 -12.5t-2 -15.5t0.5 -17.5t0.5 -12.5t-0.5 -11.5t-0.5 -16.5t2 -15.5t6 -13.5q6 -9 17.5 -7.5t12.5 11.5q4 4 4.5 9.5t-1 12t-1.5 9.5h23q0 -18 -2 -29t-11.5 -22t-27.5 -11q-16 0 -26 7t-13.5 22.5t-4.5 26.5t0 32.5t1 26.5zM2161 -72v400h114q27 0 50.5 -27
t23.5 -78q0 -70 -33 -88q37 -30 37 -102q0 -51 -23 -78t-51 -27h-118zM2165 -287v162h63v-16h-39v-56h31v-14h-31v-63h39v-13h-63zM2189 440l25 9q0 -33 10 -37q27 0 27 20q0 9 -6.5 18t-17 19t-13.5 14q-19 13 -23 33.5t13 36.5q19 16 45 6q22 -13 22 -41l-20 -4
q-9 35 -25 33q-11 -2 -12 -15q-7 -22 18 -43q3 -2 12 -8.5t13 -9.5t8.5 -9.5t5.5 -12.5q6 -22 -5 -39t-34 -17q-18 0 -29.5 13.5t-13.5 33.5zM2224 -12h33q16 0 23.5 19t5.5 46q-8 47 -35 47h-27v-112zM2224 158h27q28 0 28 51q0 61 -30 61h-25v-112zM2224 766q0 11 -0.5 34
t-0.5 37t1 33t4 33q17 53 78 53q69 0 82 -45q8 -18 10 -40t0 -56t-2 -41t0.5 -19t1 -20t-1 -18t-4.5 -19q-3 -30 -24 -46.5t-54 -16.5q-35 0 -59 17t-27 48q-4 23 -4 66zM2241 -489v159h22v-159h-22zM2271 737q0 -55 19 -65q23 -6 39 0q22 14 26 41q1 4 1 10.5t-0.5 14
t-0.5 10.5v114q0 39 -12 49q-29 17 -39 9q-24 0 -33 -25q-3 -15 -3 -32t1.5 -38t1.5 -32v-56zM2279 -489l35 159h23l37 -159h-21l-8 43h-33l-8 -43h-25zM2290 393v168h65v-12h-41v-60h31v-18h-31v-59h43v-19h-67zM2298 -287v162h61v-16h-45v-56h31v-14h-31v-76h-16z
M2314 -436h29l-14 80zM2355 1098q0 -53 23 -64q21 -8 37 0q22 11 22 43v144q0 41 -14 55q-12 17 -35 10q-23 -3 -31 -33q-5 -11 -5.5 -27.5t1.5 -39t2 -31.5v-57zM2374 -248v37v86h18v-72q0 -2 -0.5 -15t-0.5 -21t2 -19t7 -16.5t13 -5.5q9 0 14.5 5.5t7.5 16.5t2.5 18.5
t0 21.5t-0.5 15v72h21v-74v-11v-13.5t-0.5 -12.5t-2 -13.5t-3.5 -12t-5.5 -11.5t-8.5 -8t-11 -6q-46 -12 -53 39zM2388 -489v159h22v-145h44v-14h-66zM2388 -72v400h68v-334h84v-66h-152zM2410 561h25l23 -121l24 121h21l-35 -168h-23zM2443 639v317h31l90 -213v213h39v-317
h-31l-94 215v-215h-35zM2482 -287v162h25v-149h37v-13h-62zM2509 -330h18l25 -116l26 116h19l-37 -159h-16zM2519 393v168h25v-168h-25zM2527 1001v318h27l90 -213v213h39v-318h-31l-88 213v-213h-37zM2560 -287v162h23v-149h40v-13h-63zM2564 440l23 9q0 -10 4.5 -22
t11.5 -15q20 0 20 20q-1 6 0 8.5t-2.5 8t-5 7.5t-6.5 7l-7 7t-7.5 6.5t-7.5 6.5q-10 9 -16.5 21t-6 26t13.5 23q27 16 43 6q19 -11 23 -41l-21 -4q-2 21 -9 28.5t-14 3.5t-11 -14q-3 -3 -1.5 -8.5t1.5 -8t4 -8t6 -7t6.5 -6l5.5 -5.5q31 -25 33 -40q6 -22 -4.5 -39t-30.5 -17
q-37 0 -45 47zM2574 -72v400h156v-70h-90v-86h72v-72h-72v-106h90v-66h-156zM2615 -489v159h66v-14h-43v-49h35v-17h-35v-65h43v-14h-66zM2652 639v317h43v-288h76v-29h-119zM2664 393v168h25v-168h-25zM2681 -287l29 162h26l35 -162h-25l-4 41h-32l-11 -41h-18zM2697 -489
v159q6 0 20 1.5t25 1t19 -4.5q18 -12 16.5 -41t-22.5 -35l24 -81h-22l-21 79h-16v-79h-23zM2703 549v12h76v-12h-26v-156h-19v156h-31zM2710 -231h26l-12 75zM2714 1001l69 318h43l68 -318h-41l-17 76h-65l-16 -76h-41zM2720 -393q15 0 20 0.5t10 5.5t5 16q0 16 -8 21.5
t-27 5.5v-49zM2765 68l61 4q0 -48 13 -70q7 -22 24 -14q16 2 16 32q0 15 -8 31t-14 24t-22.5 25t-18.5 19q-6 9 -18 22t-15 19q-25 37 -18 94q1 44 43 66.5t82 3.5q53 -23 53 -127l-64 -4q0 71 -24 77q-19 1 -25.5 -19t0.5 -32q3 -8 7 -15.5t7.5 -11t10 -10.5t8.5 -10
l35 -35q55 -65 47 -133q-2 -28 -21 -51.5t-49 -30.5q-30 -3 -57.5 9t-40.5 40q-12 31 -12 97zM2779 1110h51l-24 143zM2787 -287v162h15l45 -106v106h20v-162h-14l-43 111v-111h-23zM2787 956h39l47 -153l49 153h44q-6 -19 -21 -64t-23 -71l-22 -63q-3 -6 -3.5 -13.5
t0.5 -17t1 -12.5v-76h-45v63q0 4 0.5 15t0.5 20t-1 15q-11 40 -23 59zM2798 -442l20 4q0 -26 12 -31q11 -6 20 0t9 16q0 20 -41 47q-17 17 -20 37.5t14 32.5q10 9 23 10.5t20 -4.5q18 -7 18 -37l-14 -8q-1 3 -3 11.5t-4 13t-7 6.5q-13 8 -25 -8q-3 -3 -1.5 -8.5t1.5 -7.5
t4.5 -6.5t6 -6.5t7 -6t7.5 -6q3 -4 11 -12.5t12.5 -16.5t4.5 -18q8 -20 -0.5 -36t-29.5 -16q-22 0 -33.5 14t-11.5 36zM2894 -287v162q2 0 11.5 0.5t15.5 0t14.5 -1.5t16 -3.5t14.5 -7.5t9 -16t0.5 -31t-1.5 -23q0 -4 1 -19t0 -21.5t-5 -15.5t-13 -13q-13 -11 -63 -11z
M2898 -489v159h20v-159h-20zM2916 -274q11 0 16 0.5t11.5 6.5t9.5 19v82q-1 17 -9.5 21t-27.5 4v-133zM2927 1001v318h45v-289h80v-29h-125zM2941 -406q0 28 1.5 42t13.5 26t36 8q10 0 17 -2t11.5 -8t7.5 -9.5t4 -14t1 -14v-16.5v-14v-23t-2 -21t-6.5 -21.5t-14 -12.5
t-22.5 -6q-17 0 -27.5 7t-14.5 21.5t-4.5 23.5t-0.5 27v7zM2963 258v70h183v-70h-56v-330h-69v330h-58zM2970 -393q0 -2 -2.5 -23.5t-1 -35.5t9.5 -17q7 -4 12.5 -4.5t9 1.5t6.5 5t4.5 9.5t2.5 11t1.5 11.5t0.5 11v10q0 63 -11 66q-32 14 -32 -23v-22zM2988 639v43h45v-43
h-45zM2988 956h45l-16 -251h-15zM3058 -489v159h12l49 -106v106h19v-159h-17l-51 112v-112h-12zM3178 -72v400h70v-400h-70zM3281 328h63l29 -277l33 277h67l-67 -400h-66zM3508 -72v400h156v-70h-90v-86h73v-72h-73v-106h90v-66h-156z" />
    <glyph glyph-name="uni0030" unicode="4" horiz-adv-x="4741" 
d="M2392 997q-71 0 -80 70q-4 20 -4 57q0 10 -0.5 35t-0.5 39t1.5 33t5.5 33q10 53 74 57q71 0 86 -45q7 -19 9 -40.5t0.5 -57t-1.5 -41.5q0 -54 -4 -74q-14 -66 -86 -66zM948 -70l6 400h64l49 -252l45 252h70v-400h-56l-6 166l-28 -166h-48l-32 162l-4 -162h-60zM1235 -70
v400h51l68 -193v193h61v-400h-49l-70 195v-195h-61zM1460 -70v72h70v-72h-70zM1468 -377q0 24 14 38.5t40 8.5q12 0 19 -4t9.5 -13t3 -15t0.5 -19h-20q0 24 -2 29q-4 10 -16.5 10.5t-18.5 -8.5t-6 -58q0 -46 8 -57q4 -9 16.5 -7.5t16.5 11.5q2 5 2 31h20q0 -62 -38 -62
q-12 0 -21 4t-14 12t-8.5 16t-4.5 21t-1 21t0.5 22t0.5 19zM1554 70l62 4q0 -49 16 -72q8 -20 25 -12q16 3 16 33q0 14 -7.5 30t-13.5 24.5t-21.5 25.5t-18.5 20q-2 2 -17.5 17t-19.5 24q-25 40 -16 92q2 43 42 66.5t82 3.5q52 -25 52 -127l-62 -4q-1 7 -1.5 22.5t-1.5 25
t-6.5 19t-14.5 10.5q-22 1 -27.5 -17t-1.5 -34q3 -8 8 -15.5t9 -11.5t11.5 -10.5t10.5 -9.5l31 -37q56 -53 47 -131q-2 -27 -20.5 -50t-49.5 -32q-31 -3 -57.5 9.5t-38.5 39.5q-17 41 -17 97zM1573 -406q0 28 1.5 42t12.5 26t33 8q13 0 22.5 -5.5t14 -11.5t6.5 -20t2 -19.5
v-21.5v-23t-2 -21t-6.5 -21.5t-14 -12.5t-22.5 -6q-11 0 -19.5 2.5t-13.5 9t-8.5 11.5t-4.5 15.5t-1.5 15.5t0 17t0.5 15zM1577 1001v318h68q59 0 77 -35q15 -28 12 -64t-28 -55q-18 -18 -86 -18v-146h-43zM1579 758v198h41v-213q0 -61 27 -75q32 -9 45.5 13t13.5 56v103
v116h43v-145q0 -4 1 -35.5t-0.5 -45t-5.5 -36.5t-16.5 -36t-31.5 -19q-27 -14 -62 -1t-47 44q-8 20 -8 76zM1593 -393q0 -2 -0.5 -13t0 -19t1.5 -18.5t4 -17t8 -8.5q32 -17 34 33v22q0 1 0.5 12t0 17.5t-1.5 15.5t-3.5 14.5t-7.5 6.5q-16 8 -25.5 0t-9.5 -23v-22zM1620 1182
q38 0 47 2q27 7 27 45q0 49 -27 55q-8 3 -16 3.5t-18 -0.5t-13 -1v-104zM1634 -287v162h62v-16h-37v-56h31v-14h-31v-76h-25zM1686 -489v159h24l31 -127l24 127h23l2 -159h-16v118l-25 -118h-18l-27 118v-118h-18zM1710 -201q0 26 1.5 39.5t13 27t34.5 13.5q7 -1 12.5 -3.5
t9.5 -5.5t7 -7.5t5 -8t3.5 -10t2 -10t1 -11t0.5 -10v-11v-9.5q0 -14 -0.5 -22t-2.5 -21t-6.5 -19.5t-13.5 -12t-22 -5.5q-16 0 -26 6.5t-14 20.5t-4.5 23t-0.5 28v8zM1733 -197q0 -2 -1 -16t-1 -23.5t4.5 -21t13.5 -14.5q10 -2 16.5 2.5t9 16t3 19.5t0.5 21q0 2 0.5 12.5
t0 17.5t-1.5 16.5t-4 15.5t-8 8q-11 9 -21.5 -1t-10.5 -26v-27zM1765 1001v318h121v-33h-78v-104h66v-35h-66v-117h82v-29h-125zM1767 131q0 97 2 115q11 63 58 84q56 11 90 -8q7 -4 12.5 -10t10 -11t7.5 -13t5.5 -13t4 -15t2 -14.5t1 -15.5t0.5 -14v-15v-13h-66q0 52 -3 65
t-17 19q-37 5 -37 -55v-143q0 -2 -0.5 -15t0 -21.5t2 -20t7 -18.5t14.5 -9q8 -1 14 -2.5t10 4t7.5 9t5 12.5t2.5 14.5t1.5 15t0.5 14.5v12.5v8.5h-41v59h104v-207h-53l-2 13q-18 -17 -48.5 -18t-50.5 12q-32 15 -41 81q-2 19 -2 113zM1784 725l45 12q5 -46 14 -55
q11 -11 25.5 -12.5t23.5 8.5q14 8 14 28t-10 33q-3 3 -7 9t-7 10t-8.5 8.5t-11.5 7.5q-1 1 -28.5 24t-35.5 38q-20 30 -10 69t47 51q41 7 78 -12q26 -21 26 -67l-34 -15q-4 53 -33 58q-16 6 -27.5 -2t-13.5 -21q-5 -7 -2 -16.5t4 -14.5t8.5 -13.5t12 -12.5t13.5 -11.5
t13 -11.5q3 -3 14 -12t15 -12.5t12 -12t11.5 -15t7 -15.5t4.5 -19q8 -38 -13 -67t-59 -29t-61.5 25.5t-26.5 64.5zM1819 -489v159h24l29 -127l26 127h21l4 -159h-14l-4 118l-25 -118h-18l-23 118l-4 -118h-16zM1825 -287v162q2 0 17 1t24.5 0t17.5 -5q19 -11 20 -40.5
t-20 -37.5l25 -80h-25l-22 76h-19v-76h-18zM1839 393v168q4 0 15 0.5t17.5 0.5t15.5 -1.5t15.5 -6t10.5 -11.5q5 -13 4 -33t-8 -29q-13 -10 -47 -10v-78h-23zM1843 -197q41 0 41 31q0 16 -10 20.5t-31 4.5v-56zM1862 485q18 0 22 4q12 6 12 33q0 19 -7 23t-27 4v-64z
M1923 1001v318q6 0 30.5 0.5t36 0t29 -3.5t29.5 -9q36 -21 37 -76.5t-37 -69.5l39 -160h-39l-45 148h-33v-148h-47zM1939 393v168h17v-149h43v-19h-60zM1950 -489v159h63v-14h-39v-49h31v-17h-31v-65h39v-14h-63zM1960 -141v16h84v-16h-31v-146h-24v146h-29zM1970 1182
q29 0 45 2q31 16 25 55q0 36 -25 43q-6 3 -12.5 4t-11.5 1t-11.5 -0.5t-9.5 -0.5v-104zM1976 -121l109 502h61l-112 -502h-58zM1982 639v317h123v-36h-80v-103h64v-33h-64v-116h80v-29h-123zM2015 393v168h62v-12h-41v-60h35v-18h-35v-59h41v-19h-62zM2030 -489v159
q7 0 21 1.5t23.5 1t16.5 -4.5q18 -13 18.5 -40.5t-20.5 -35.5l25 -81h-23l-18 79h-19v-79h-24zM2054 -393q11 0 14.5 0.5t10 2t8.5 6.5t2 13q0 27 -35 27v-49zM2054 -287v162h21v-72h45v72h22v-162h-22v76h-45v-76h-21zM2087 393l35 168h26l31 -168h-22l-9 47h-34l-7 -47
h-20zM2114 453h34l-16 79zM2114 1090l45 12q3 -43 16 -58q11 -11 26.5 -12t26.5 8q11 10 10.5 28.5t-10.5 33.5q-2 2 -8 9.5t-13 14.5t-16 13q-3 3 -26.5 24t-32.5 33q-22 33 -12 72.5t49 46.5q15 7 38 5t38 -13q23 -14 28 -66l-35 -12q-1 2 -4.5 16t-5.5 20t-8.5 14
t-15.5 11q-37 0 -43 -28q-7 -40 53 -80q4 -4 18.5 -19t20.5 -22t13.5 -20t10.5 -25q8 -39 -13 -69t-60 -30q-40 0 -63.5 26.5t-26.5 66.5zM2132 -377q0 24 13 38.5t38 8.5q14 0 22 -8.5t9.5 -17.5t1.5 -25h-23q0 1 1.5 7t1 12t-4.5 10q-1 10 -12.5 10.5t-17.5 -8.5
q-4 -4 -6 -12.5t-2 -15.5t0.5 -17.5t0.5 -12.5t-0.5 -11.5t-0.5 -16.5t2 -15.5t6 -13.5q6 -9 17.5 -7.5t12.5 11.5q4 4 4.5 9.5t-1 12t-1.5 9.5h23q0 -18 -2 -29t-11.5 -22t-27.5 -11q-16 0 -26 7t-13.5 22.5t-4.5 26.5t0 32.5t1 26.5zM2161 -72v400h114q27 0 50.5 -27
t23.5 -78q0 -70 -33 -88q37 -30 37 -102q0 -51 -23 -78t-51 -27h-118zM2165 -287v162h63v-16h-39v-56h31v-14h-31v-63h39v-13h-63zM2189 440l25 9q0 -33 10 -37q27 0 27 20q0 9 -6.5 18t-17 19t-13.5 14q-19 13 -23 33.5t13 36.5q19 16 45 6q22 -13 22 -41l-20 -4
q-9 35 -25 33q-11 -2 -12 -15q-7 -22 18 -43q3 -2 12 -8.5t13 -9.5t8.5 -9.5t5.5 -12.5q6 -22 -5 -39t-34 -17q-18 0 -29.5 13.5t-13.5 33.5zM2224 -12h33q16 0 23.5 19t5.5 46q-8 47 -35 47h-27v-112zM2224 158h27q28 0 28 51q0 61 -30 61h-25v-112zM2224 766q0 11 -0.5 34
t-0.5 37t1 33t4 33q17 53 78 53q69 0 82 -45q8 -18 10 -40t0 -56t-2 -41t0.5 -19t1 -20t-1 -18t-4.5 -19q-3 -30 -24 -46.5t-54 -16.5q-35 0 -59 17t-27 48q-4 23 -4 66zM2241 -489v159h22v-159h-22zM2271 737q0 -55 19 -65q23 -6 39 0q22 14 26 41q1 4 1 10.5t-0.5 14
t-0.5 10.5v114q0 39 -12 49q-29 17 -39 9q-24 0 -33 -25q-3 -15 -3 -32t1.5 -38t1.5 -32v-56zM2279 -489l35 159h23l37 -159h-21l-8 43h-33l-8 -43h-25zM2290 393v168h65v-12h-41v-60h31v-18h-31v-59h43v-19h-67zM2298 -287v162h61v-16h-45v-56h31v-14h-31v-76h-16z
M2314 -436h29l-14 80zM2355 1098q0 -53 23 -64q21 -8 37 0q22 11 22 43v144q0 41 -14 55q-12 17 -35 10q-23 -3 -31 -33q-5 -11 -5.5 -27.5t1.5 -39t2 -31.5v-57zM2374 -248v37v86h18v-72q0 -2 -0.5 -15t-0.5 -21t2 -19t7 -16.5t13 -5.5q9 0 14.5 5.5t7.5 16.5t2.5 18.5
t0 21.5t-0.5 15v72h21v-74v-11v-13.5t-0.5 -12.5t-2 -13.5t-3.5 -12t-5.5 -11.5t-8.5 -8t-11 -6q-46 -12 -53 39zM2388 -489v159h22v-145h44v-14h-66zM2388 -72v400h68v-334h84v-66h-152zM2410 561h25l23 -121l24 121h21l-35 -168h-23zM2443 639v317h31l90 -213v213h39v-317
h-31l-94 215v-215h-35zM2482 -287v162h25v-149h37v-13h-62zM2509 -330h18l25 -116l26 116h19l-37 -159h-16zM2519 393v168h25v-168h-25zM2527 1001v318h27l90 -213v213h39v-318h-31l-88 213v-213h-37zM2560 -287v162h23v-149h40v-13h-63zM2564 440l23 9q0 -10 4.5 -22
t11.5 -15q20 0 20 20q-1 6 0 8.5t-2.5 8t-5 7.5t-6.5 7l-7 7t-7.5 6.5t-7.5 6.5q-10 9 -16.5 21t-6 26t13.5 23q27 16 43 6q19 -11 23 -41l-21 -4q-2 21 -9 28.5t-14 3.5t-11 -14q-3 -3 -1.5 -8.5t1.5 -8t4 -8t6 -7t6.5 -6l5.5 -5.5q31 -25 33 -40q6 -22 -4.5 -39t-30.5 -17
q-37 0 -45 47zM2574 -72v400h156v-70h-90v-86h72v-72h-72v-106h90v-66h-156zM2615 -489v159h66v-14h-43v-49h35v-17h-35v-65h43v-14h-66zM2652 639v317h43v-288h76v-29h-119zM2664 393v168h25v-168h-25zM2681 -287l29 162h26l35 -162h-25l-4 41h-32l-11 -41h-18zM2697 -489
v159q6 0 20 1.5t25 1t19 -4.5q18 -12 16.5 -41t-22.5 -35l24 -81h-22l-21 79h-16v-79h-23zM2703 549v12h76v-12h-26v-156h-19v156h-31zM2710 -231h26l-12 75zM2714 1001l69 318h43l68 -318h-41l-17 76h-65l-16 -76h-41zM2720 -393q15 0 20 0.5t10 5.5t5 16q0 16 -8 21.5
t-27 5.5v-49zM2765 68l61 4q0 -48 13 -70q7 -22 24 -14q16 2 16 32q0 15 -8 31t-14 24t-22.5 25t-18.5 19q-6 9 -18 22t-15 19q-25 37 -18 94q1 44 43 66.5t82 3.5q53 -23 53 -127l-64 -4q0 71 -24 77q-19 1 -25.5 -19t0.5 -32q3 -8 7 -15.5t7.5 -11t10 -10.5t8.5 -10
l35 -35q55 -65 47 -133q-2 -28 -21 -51.5t-49 -30.5q-30 -3 -57.5 9t-40.5 40q-12 31 -12 97zM2779 1110h51l-24 143zM2787 -287v162h15l45 -106v106h20v-162h-14l-43 111v-111h-23zM2787 956h39l47 -153l49 153h44q-6 -19 -21 -64t-23 -71l-22 -63q-3 -6 -3.5 -13.5
t0.5 -17t1 -12.5v-76h-45v63q0 4 0.5 15t0.5 20t-1 15q-11 40 -23 59zM2798 -442l20 4q0 -26 12 -31q11 -6 20 0t9 16q0 20 -41 47q-17 17 -20 37.5t14 32.5q10 9 23 10.5t20 -4.5q18 -7 18 -37l-14 -8q-1 3 -3 11.5t-4 13t-7 6.5q-13 8 -25 -8q-3 -3 -1.5 -8.5t1.5 -7.5
t4.5 -6.5t6 -6.5t7 -6t7.5 -6q3 -4 11 -12.5t12.5 -16.5t4.5 -18q8 -20 -0.5 -36t-29.5 -16q-22 0 -33.5 14t-11.5 36zM2894 -287v162q2 0 11.5 0.5t15.5 0t14.5 -1.5t16 -3.5t14.5 -7.5t9 -16t0.5 -31t-1.5 -23q0 -4 1 -19t0 -21.5t-5 -15.5t-13 -13q-13 -11 -63 -11z
M2898 -489v159h20v-159h-20zM2916 -274q11 0 16 0.5t11.5 6.5t9.5 19v82q-1 17 -9.5 21t-27.5 4v-133zM2927 1001v318h45v-289h80v-29h-125zM2941 -406q0 28 1.5 42t13.5 26t36 8q10 0 17 -2t11.5 -8t7.5 -9.5t4 -14t1 -14v-16.5v-14v-23t-2 -21t-6.5 -21.5t-14 -12.5
t-22.5 -6q-17 0 -27.5 7t-14.5 21.5t-4.5 23.5t-0.5 27v7zM2963 258v70h183v-70h-56v-330h-69v330h-58zM2970 -393q0 -2 -2.5 -23.5t-1 -35.5t9.5 -17q7 -4 12.5 -4.5t9 1.5t6.5 5t4.5 9.5t2.5 11t1.5 11.5t0.5 11v10q0 63 -11 66q-32 14 -32 -23v-22zM2988 639v43h45v-43
h-45zM2988 956h45l-16 -251h-15zM3058 -489v159h12l49 -106v106h19v-159h-17l-51 112v-112h-12zM3178 -72v400h70v-400h-70zM3281 328h63l29 -277l33 277h67l-67 -400h-66zM3508 -72v400h156v-70h-90v-86h73v-72h-73v-106h90v-66h-156z" />
    <glyph glyph-name="uni0030" unicode="3" horiz-adv-x="4741" 
d="M2392 997q-71 0 -80 70q-4 20 -4 57q0 10 -0.5 35t-0.5 39t1.5 33t5.5 33q10 53 74 57q71 0 86 -45q7 -19 9 -40.5t0.5 -57t-1.5 -41.5q0 -54 -4 -74q-14 -66 -86 -66zM948 -70l6 400h64l49 -252l45 252h70v-400h-56l-6 166l-28 -166h-48l-32 162l-4 -162h-60zM1235 -70
v400h51l68 -193v193h61v-400h-49l-70 195v-195h-61zM1460 -70v72h70v-72h-70zM1468 -377q0 24 14 38.5t40 8.5q12 0 19 -4t9.5 -13t3 -15t0.5 -19h-20q0 24 -2 29q-4 10 -16.5 10.5t-18.5 -8.5t-6 -58q0 -46 8 -57q4 -9 16.5 -7.5t16.5 11.5q2 5 2 31h20q0 -62 -38 -62
q-12 0 -21 4t-14 12t-8.5 16t-4.5 21t-1 21t0.5 22t0.5 19zM1554 70l62 4q0 -49 16 -72q8 -20 25 -12q16 3 16 33q0 14 -7.5 30t-13.5 24.5t-21.5 25.5t-18.5 20q-2 2 -17.5 17t-19.5 24q-25 40 -16 92q2 43 42 66.5t82 3.5q52 -25 52 -127l-62 -4q-1 7 -1.5 22.5t-1.5 25
t-6.5 19t-14.5 10.5q-22 1 -27.5 -17t-1.5 -34q3 -8 8 -15.5t9 -11.5t11.5 -10.5t10.5 -9.5l31 -37q56 -53 47 -131q-2 -27 -20.5 -50t-49.5 -32q-31 -3 -57.5 9.5t-38.5 39.5q-17 41 -17 97zM1573 -406q0 28 1.5 42t12.5 26t33 8q13 0 22.5 -5.5t14 -11.5t6.5 -20t2 -19.5
v-21.5v-23t-2 -21t-6.5 -21.5t-14 -12.5t-22.5 -6q-11 0 -19.5 2.5t-13.5 9t-8.5 11.5t-4.5 15.5t-1.5 15.5t0 17t0.5 15zM1577 1001v318h68q59 0 77 -35q15 -28 12 -64t-28 -55q-18 -18 -86 -18v-146h-43zM1579 758v198h41v-213q0 -61 27 -75q32 -9 45.5 13t13.5 56v103
v116h43v-145q0 -4 1 -35.5t-0.5 -45t-5.5 -36.5t-16.5 -36t-31.5 -19q-27 -14 -62 -1t-47 44q-8 20 -8 76zM1593 -393q0 -2 -0.5 -13t0 -19t1.5 -18.5t4 -17t8 -8.5q32 -17 34 33v22q0 1 0.5 12t0 17.5t-1.5 15.5t-3.5 14.5t-7.5 6.5q-16 8 -25.5 0t-9.5 -23v-22zM1620 1182
q38 0 47 2q27 7 27 45q0 49 -27 55q-8 3 -16 3.5t-18 -0.5t-13 -1v-104zM1634 -287v162h62v-16h-37v-56h31v-14h-31v-76h-25zM1686 -489v159h24l31 -127l24 127h23l2 -159h-16v118l-25 -118h-18l-27 118v-118h-18zM1710 -201q0 26 1.5 39.5t13 27t34.5 13.5q7 -1 12.5 -3.5
t9.5 -5.5t7 -7.5t5 -8t3.5 -10t2 -10t1 -11t0.5 -10v-11v-9.5q0 -14 -0.5 -22t-2.5 -21t-6.5 -19.5t-13.5 -12t-22 -5.5q-16 0 -26 6.5t-14 20.5t-4.5 23t-0.5 28v8zM1733 -197q0 -2 -1 -16t-1 -23.5t4.5 -21t13.5 -14.5q10 -2 16.5 2.5t9 16t3 19.5t0.5 21q0 2 0.5 12.5
t0 17.5t-1.5 16.5t-4 15.5t-8 8q-11 9 -21.5 -1t-10.5 -26v-27zM1765 1001v318h121v-33h-78v-104h66v-35h-66v-117h82v-29h-125zM1767 131q0 97 2 115q11 63 58 84q56 11 90 -8q7 -4 12.5 -10t10 -11t7.5 -13t5.5 -13t4 -15t2 -14.5t1 -15.5t0.5 -14v-15v-13h-66q0 52 -3 65
t-17 19q-37 5 -37 -55v-143q0 -2 -0.5 -15t0 -21.5t2 -20t7 -18.5t14.5 -9q8 -1 14 -2.5t10 4t7.5 9t5 12.5t2.5 14.5t1.5 15t0.5 14.5v12.5v8.5h-41v59h104v-207h-53l-2 13q-18 -17 -48.5 -18t-50.5 12q-32 15 -41 81q-2 19 -2 113zM1784 725l45 12q5 -46 14 -55
q11 -11 25.5 -12.5t23.5 8.5q14 8 14 28t-10 33q-3 3 -7 9t-7 10t-8.5 8.5t-11.5 7.5q-1 1 -28.5 24t-35.5 38q-20 30 -10 69t47 51q41 7 78 -12q26 -21 26 -67l-34 -15q-4 53 -33 58q-16 6 -27.5 -2t-13.5 -21q-5 -7 -2 -16.5t4 -14.5t8.5 -13.5t12 -12.5t13.5 -11.5
t13 -11.5q3 -3 14 -12t15 -12.5t12 -12t11.5 -15t7 -15.5t4.5 -19q8 -38 -13 -67t-59 -29t-61.5 25.5t-26.5 64.5zM1819 -489v159h24l29 -127l26 127h21l4 -159h-14l-4 118l-25 -118h-18l-23 118l-4 -118h-16zM1825 -287v162q2 0 17 1t24.5 0t17.5 -5q19 -11 20 -40.5
t-20 -37.5l25 -80h-25l-22 76h-19v-76h-18zM1839 393v168q4 0 15 0.5t17.5 0.5t15.5 -1.5t15.5 -6t10.5 -11.5q5 -13 4 -33t-8 -29q-13 -10 -47 -10v-78h-23zM1843 -197q41 0 41 31q0 16 -10 20.5t-31 4.5v-56zM1862 485q18 0 22 4q12 6 12 33q0 19 -7 23t-27 4v-64z
M1923 1001v318q6 0 30.5 0.5t36 0t29 -3.5t29.5 -9q36 -21 37 -76.5t-37 -69.5l39 -160h-39l-45 148h-33v-148h-47zM1939 393v168h17v-149h43v-19h-60zM1950 -489v159h63v-14h-39v-49h31v-17h-31v-65h39v-14h-63zM1960 -141v16h84v-16h-31v-146h-24v146h-29zM1970 1182
q29 0 45 2q31 16 25 55q0 36 -25 43q-6 3 -12.5 4t-11.5 1t-11.5 -0.5t-9.5 -0.5v-104zM1976 -121l109 502h61l-112 -502h-58zM1982 639v317h123v-36h-80v-103h64v-33h-64v-116h80v-29h-123zM2015 393v168h62v-12h-41v-60h35v-18h-35v-59h41v-19h-62zM2030 -489v159
q7 0 21 1.5t23.5 1t16.5 -4.5q18 -13 18.5 -40.5t-20.5 -35.5l25 -81h-23l-18 79h-19v-79h-24zM2054 -393q11 0 14.5 0.5t10 2t8.5 6.5t2 13q0 27 -35 27v-49zM2054 -287v162h21v-72h45v72h22v-162h-22v76h-45v-76h-21zM2087 393l35 168h26l31 -168h-22l-9 47h-34l-7 -47
h-20zM2114 453h34l-16 79zM2114 1090l45 12q3 -43 16 -58q11 -11 26.5 -12t26.5 8q11 10 10.5 28.5t-10.5 33.5q-2 2 -8 9.5t-13 14.5t-16 13q-3 3 -26.5 24t-32.5 33q-22 33 -12 72.5t49 46.5q15 7 38 5t38 -13q23 -14 28 -66l-35 -12q-1 2 -4.5 16t-5.5 20t-8.5 14
t-15.5 11q-37 0 -43 -28q-7 -40 53 -80q4 -4 18.5 -19t20.5 -22t13.5 -20t10.5 -25q8 -39 -13 -69t-60 -30q-40 0 -63.5 26.5t-26.5 66.5zM2132 -377q0 24 13 38.5t38 8.5q14 0 22 -8.5t9.5 -17.5t1.5 -25h-23q0 1 1.5 7t1 12t-4.5 10q-1 10 -12.5 10.5t-17.5 -8.5
q-4 -4 -6 -12.5t-2 -15.5t0.5 -17.5t0.5 -12.5t-0.5 -11.5t-0.5 -16.5t2 -15.5t6 -13.5q6 -9 17.5 -7.5t12.5 11.5q4 4 4.5 9.5t-1 12t-1.5 9.5h23q0 -18 -2 -29t-11.5 -22t-27.5 -11q-16 0 -26 7t-13.5 22.5t-4.5 26.5t0 32.5t1 26.5zM2161 -72v400h114q27 0 50.5 -27
t23.5 -78q0 -70 -33 -88q37 -30 37 -102q0 -51 -23 -78t-51 -27h-118zM2165 -287v162h63v-16h-39v-56h31v-14h-31v-63h39v-13h-63zM2189 440l25 9q0 -33 10 -37q27 0 27 20q0 9 -6.5 18t-17 19t-13.5 14q-19 13 -23 33.5t13 36.5q19 16 45 6q22 -13 22 -41l-20 -4
q-9 35 -25 33q-11 -2 -12 -15q-7 -22 18 -43q3 -2 12 -8.5t13 -9.5t8.5 -9.5t5.5 -12.5q6 -22 -5 -39t-34 -17q-18 0 -29.5 13.5t-13.5 33.5zM2224 -12h33q16 0 23.5 19t5.5 46q-8 47 -35 47h-27v-112zM2224 158h27q28 0 28 51q0 61 -30 61h-25v-112zM2224 766q0 11 -0.5 34
t-0.5 37t1 33t4 33q17 53 78 53q69 0 82 -45q8 -18 10 -40t0 -56t-2 -41t0.5 -19t1 -20t-1 -18t-4.5 -19q-3 -30 -24 -46.5t-54 -16.5q-35 0 -59 17t-27 48q-4 23 -4 66zM2241 -489v159h22v-159h-22zM2271 737q0 -55 19 -65q23 -6 39 0q22 14 26 41q1 4 1 10.5t-0.5 14
t-0.5 10.5v114q0 39 -12 49q-29 17 -39 9q-24 0 -33 -25q-3 -15 -3 -32t1.5 -38t1.5 -32v-56zM2279 -489l35 159h23l37 -159h-21l-8 43h-33l-8 -43h-25zM2290 393v168h65v-12h-41v-60h31v-18h-31v-59h43v-19h-67zM2298 -287v162h61v-16h-45v-56h31v-14h-31v-76h-16z
M2314 -436h29l-14 80zM2355 1098q0 -53 23 -64q21 -8 37 0q22 11 22 43v144q0 41 -14 55q-12 17 -35 10q-23 -3 -31 -33q-5 -11 -5.5 -27.5t1.5 -39t2 -31.5v-57zM2374 -248v37v86h18v-72q0 -2 -0.5 -15t-0.5 -21t2 -19t7 -16.5t13 -5.5q9 0 14.5 5.5t7.5 16.5t2.5 18.5
t0 21.5t-0.5 15v72h21v-74v-11v-13.5t-0.5 -12.5t-2 -13.5t-3.5 -12t-5.5 -11.5t-8.5 -8t-11 -6q-46 -12 -53 39zM2388 -489v159h22v-145h44v-14h-66zM2388 -72v400h68v-334h84v-66h-152zM2410 561h25l23 -121l24 121h21l-35 -168h-23zM2443 639v317h31l90 -213v213h39v-317
h-31l-94 215v-215h-35zM2482 -287v162h25v-149h37v-13h-62zM2509 -330h18l25 -116l26 116h19l-37 -159h-16zM2519 393v168h25v-168h-25zM2527 1001v318h27l90 -213v213h39v-318h-31l-88 213v-213h-37zM2560 -287v162h23v-149h40v-13h-63zM2564 440l23 9q0 -10 4.5 -22
t11.5 -15q20 0 20 20q-1 6 0 8.5t-2.5 8t-5 7.5t-6.5 7l-7 7t-7.5 6.5t-7.5 6.5q-10 9 -16.5 21t-6 26t13.5 23q27 16 43 6q19 -11 23 -41l-21 -4q-2 21 -9 28.5t-14 3.5t-11 -14q-3 -3 -1.5 -8.5t1.5 -8t4 -8t6 -7t6.5 -6l5.5 -5.5q31 -25 33 -40q6 -22 -4.5 -39t-30.5 -17
q-37 0 -45 47zM2574 -72v400h156v-70h-90v-86h72v-72h-72v-106h90v-66h-156zM2615 -489v159h66v-14h-43v-49h35v-17h-35v-65h43v-14h-66zM2652 639v317h43v-288h76v-29h-119zM2664 393v168h25v-168h-25zM2681 -287l29 162h26l35 -162h-25l-4 41h-32l-11 -41h-18zM2697 -489
v159q6 0 20 1.5t25 1t19 -4.5q18 -12 16.5 -41t-22.5 -35l24 -81h-22l-21 79h-16v-79h-23zM2703 549v12h76v-12h-26v-156h-19v156h-31zM2710 -231h26l-12 75zM2714 1001l69 318h43l68 -318h-41l-17 76h-65l-16 -76h-41zM2720 -393q15 0 20 0.5t10 5.5t5 16q0 16 -8 21.5
t-27 5.5v-49zM2765 68l61 4q0 -48 13 -70q7 -22 24 -14q16 2 16 32q0 15 -8 31t-14 24t-22.5 25t-18.5 19q-6 9 -18 22t-15 19q-25 37 -18 94q1 44 43 66.5t82 3.5q53 -23 53 -127l-64 -4q0 71 -24 77q-19 1 -25.5 -19t0.5 -32q3 -8 7 -15.5t7.5 -11t10 -10.5t8.5 -10
l35 -35q55 -65 47 -133q-2 -28 -21 -51.5t-49 -30.5q-30 -3 -57.5 9t-40.5 40q-12 31 -12 97zM2779 1110h51l-24 143zM2787 -287v162h15l45 -106v106h20v-162h-14l-43 111v-111h-23zM2787 956h39l47 -153l49 153h44q-6 -19 -21 -64t-23 -71l-22 -63q-3 -6 -3.5 -13.5
t0.5 -17t1 -12.5v-76h-45v63q0 4 0.5 15t0.5 20t-1 15q-11 40 -23 59zM2798 -442l20 4q0 -26 12 -31q11 -6 20 0t9 16q0 20 -41 47q-17 17 -20 37.5t14 32.5q10 9 23 10.5t20 -4.5q18 -7 18 -37l-14 -8q-1 3 -3 11.5t-4 13t-7 6.5q-13 8 -25 -8q-3 -3 -1.5 -8.5t1.5 -7.5
t4.5 -6.5t6 -6.5t7 -6t7.5 -6q3 -4 11 -12.5t12.5 -16.5t4.5 -18q8 -20 -0.5 -36t-29.5 -16q-22 0 -33.5 14t-11.5 36zM2894 -287v162q2 0 11.5 0.5t15.5 0t14.5 -1.5t16 -3.5t14.5 -7.5t9 -16t0.5 -31t-1.5 -23q0 -4 1 -19t0 -21.5t-5 -15.5t-13 -13q-13 -11 -63 -11z
M2898 -489v159h20v-159h-20zM2916 -274q11 0 16 0.5t11.5 6.5t9.5 19v82q-1 17 -9.5 21t-27.5 4v-133zM2927 1001v318h45v-289h80v-29h-125zM2941 -406q0 28 1.5 42t13.5 26t36 8q10 0 17 -2t11.5 -8t7.5 -9.5t4 -14t1 -14v-16.5v-14v-23t-2 -21t-6.5 -21.5t-14 -12.5
t-22.5 -6q-17 0 -27.5 7t-14.5 21.5t-4.5 23.5t-0.5 27v7zM2963 258v70h183v-70h-56v-330h-69v330h-58zM2970 -393q0 -2 -2.5 -23.5t-1 -35.5t9.5 -17q7 -4 12.5 -4.5t9 1.5t6.5 5t4.5 9.5t2.5 11t1.5 11.5t0.5 11v10q0 63 -11 66q-32 14 -32 -23v-22zM2988 639v43h45v-43
h-45zM2988 956h45l-16 -251h-15zM3058 -489v159h12l49 -106v106h19v-159h-17l-51 112v-112h-12zM3178 -72v400h70v-400h-70zM3281 328h63l29 -277l33 277h67l-67 -400h-66zM3508 -72v400h156v-70h-90v-86h73v-72h-73v-106h90v-66h-156z" />
    <glyph glyph-name="uni0030" unicode="2" horiz-adv-x="4741" 
d="M2392 997q-71 0 -80 70q-4 20 -4 57q0 10 -0.5 35t-0.5 39t1.5 33t5.5 33q10 53 74 57q71 0 86 -45q7 -19 9 -40.5t0.5 -57t-1.5 -41.5q0 -54 -4 -74q-14 -66 -86 -66zM948 -70l6 400h64l49 -252l45 252h70v-400h-56l-6 166l-28 -166h-48l-32 162l-4 -162h-60zM1235 -70
v400h51l68 -193v193h61v-400h-49l-70 195v-195h-61zM1460 -70v72h70v-72h-70zM1468 -377q0 24 14 38.5t40 8.5q12 0 19 -4t9.5 -13t3 -15t0.5 -19h-20q0 24 -2 29q-4 10 -16.5 10.5t-18.5 -8.5t-6 -58q0 -46 8 -57q4 -9 16.5 -7.5t16.5 11.5q2 5 2 31h20q0 -62 -38 -62
q-12 0 -21 4t-14 12t-8.5 16t-4.5 21t-1 21t0.5 22t0.5 19zM1554 70l62 4q0 -49 16 -72q8 -20 25 -12q16 3 16 33q0 14 -7.5 30t-13.5 24.5t-21.5 25.5t-18.5 20q-2 2 -17.5 17t-19.5 24q-25 40 -16 92q2 43 42 66.5t82 3.5q52 -25 52 -127l-62 -4q-1 7 -1.5 22.5t-1.5 25
t-6.5 19t-14.5 10.5q-22 1 -27.5 -17t-1.5 -34q3 -8 8 -15.5t9 -11.5t11.5 -10.5t10.5 -9.5l31 -37q56 -53 47 -131q-2 -27 -20.5 -50t-49.5 -32q-31 -3 -57.5 9.5t-38.5 39.5q-17 41 -17 97zM1573 -406q0 28 1.5 42t12.5 26t33 8q13 0 22.5 -5.5t14 -11.5t6.5 -20t2 -19.5
v-21.5v-23t-2 -21t-6.5 -21.5t-14 -12.5t-22.5 -6q-11 0 -19.5 2.5t-13.5 9t-8.5 11.5t-4.5 15.5t-1.5 15.5t0 17t0.5 15zM1577 1001v318h68q59 0 77 -35q15 -28 12 -64t-28 -55q-18 -18 -86 -18v-146h-43zM1579 758v198h41v-213q0 -61 27 -75q32 -9 45.5 13t13.5 56v103
v116h43v-145q0 -4 1 -35.5t-0.5 -45t-5.5 -36.5t-16.5 -36t-31.5 -19q-27 -14 -62 -1t-47 44q-8 20 -8 76zM1593 -393q0 -2 -0.5 -13t0 -19t1.5 -18.5t4 -17t8 -8.5q32 -17 34 33v22q0 1 0.5 12t0 17.5t-1.5 15.5t-3.5 14.5t-7.5 6.5q-16 8 -25.5 0t-9.5 -23v-22zM1620 1182
q38 0 47 2q27 7 27 45q0 49 -27 55q-8 3 -16 3.5t-18 -0.5t-13 -1v-104zM1634 -287v162h62v-16h-37v-56h31v-14h-31v-76h-25zM1686 -489v159h24l31 -127l24 127h23l2 -159h-16v118l-25 -118h-18l-27 118v-118h-18zM1710 -201q0 26 1.5 39.5t13 27t34.5 13.5q7 -1 12.5 -3.5
t9.5 -5.5t7 -7.5t5 -8t3.5 -10t2 -10t1 -11t0.5 -10v-11v-9.5q0 -14 -0.5 -22t-2.5 -21t-6.5 -19.5t-13.5 -12t-22 -5.5q-16 0 -26 6.5t-14 20.5t-4.5 23t-0.5 28v8zM1733 -197q0 -2 -1 -16t-1 -23.5t4.5 -21t13.5 -14.5q10 -2 16.5 2.5t9 16t3 19.5t0.5 21q0 2 0.5 12.5
t0 17.5t-1.5 16.5t-4 15.5t-8 8q-11 9 -21.5 -1t-10.5 -26v-27zM1765 1001v318h121v-33h-78v-104h66v-35h-66v-117h82v-29h-125zM1767 131q0 97 2 115q11 63 58 84q56 11 90 -8q7 -4 12.5 -10t10 -11t7.5 -13t5.5 -13t4 -15t2 -14.5t1 -15.5t0.5 -14v-15v-13h-66q0 52 -3 65
t-17 19q-37 5 -37 -55v-143q0 -2 -0.5 -15t0 -21.5t2 -20t7 -18.5t14.5 -9q8 -1 14 -2.5t10 4t7.5 9t5 12.5t2.5 14.5t1.5 15t0.5 14.5v12.5v8.5h-41v59h104v-207h-53l-2 13q-18 -17 -48.5 -18t-50.5 12q-32 15 -41 81q-2 19 -2 113zM1784 725l45 12q5 -46 14 -55
q11 -11 25.5 -12.5t23.5 8.5q14 8 14 28t-10 33q-3 3 -7 9t-7 10t-8.5 8.5t-11.5 7.5q-1 1 -28.5 24t-35.5 38q-20 30 -10 69t47 51q41 7 78 -12q26 -21 26 -67l-34 -15q-4 53 -33 58q-16 6 -27.5 -2t-13.5 -21q-5 -7 -2 -16.5t4 -14.5t8.5 -13.5t12 -12.5t13.5 -11.5
t13 -11.5q3 -3 14 -12t15 -12.5t12 -12t11.5 -15t7 -15.5t4.5 -19q8 -38 -13 -67t-59 -29t-61.5 25.5t-26.5 64.5zM1819 -489v159h24l29 -127l26 127h21l4 -159h-14l-4 118l-25 -118h-18l-23 118l-4 -118h-16zM1825 -287v162q2 0 17 1t24.5 0t17.5 -5q19 -11 20 -40.5
t-20 -37.5l25 -80h-25l-22 76h-19v-76h-18zM1839 393v168q4 0 15 0.5t17.5 0.5t15.5 -1.5t15.5 -6t10.5 -11.5q5 -13 4 -33t-8 -29q-13 -10 -47 -10v-78h-23zM1843 -197q41 0 41 31q0 16 -10 20.5t-31 4.5v-56zM1862 485q18 0 22 4q12 6 12 33q0 19 -7 23t-27 4v-64z
M1923 1001v318q6 0 30.5 0.5t36 0t29 -3.5t29.5 -9q36 -21 37 -76.5t-37 -69.5l39 -160h-39l-45 148h-33v-148h-47zM1939 393v168h17v-149h43v-19h-60zM1950 -489v159h63v-14h-39v-49h31v-17h-31v-65h39v-14h-63zM1960 -141v16h84v-16h-31v-146h-24v146h-29zM1970 1182
q29 0 45 2q31 16 25 55q0 36 -25 43q-6 3 -12.5 4t-11.5 1t-11.5 -0.5t-9.5 -0.5v-104zM1976 -121l109 502h61l-112 -502h-58zM1982 639v317h123v-36h-80v-103h64v-33h-64v-116h80v-29h-123zM2015 393v168h62v-12h-41v-60h35v-18h-35v-59h41v-19h-62zM2030 -489v159
q7 0 21 1.5t23.5 1t16.5 -4.5q18 -13 18.5 -40.5t-20.5 -35.5l25 -81h-23l-18 79h-19v-79h-24zM2054 -393q11 0 14.5 0.5t10 2t8.5 6.5t2 13q0 27 -35 27v-49zM2054 -287v162h21v-72h45v72h22v-162h-22v76h-45v-76h-21zM2087 393l35 168h26l31 -168h-22l-9 47h-34l-7 -47
h-20zM2114 453h34l-16 79zM2114 1090l45 12q3 -43 16 -58q11 -11 26.5 -12t26.5 8q11 10 10.5 28.5t-10.5 33.5q-2 2 -8 9.5t-13 14.5t-16 13q-3 3 -26.5 24t-32.5 33q-22 33 -12 72.5t49 46.5q15 7 38 5t38 -13q23 -14 28 -66l-35 -12q-1 2 -4.5 16t-5.5 20t-8.5 14
t-15.5 11q-37 0 -43 -28q-7 -40 53 -80q4 -4 18.5 -19t20.5 -22t13.5 -20t10.5 -25q8 -39 -13 -69t-60 -30q-40 0 -63.5 26.5t-26.5 66.5zM2132 -377q0 24 13 38.5t38 8.5q14 0 22 -8.5t9.5 -17.5t1.5 -25h-23q0 1 1.5 7t1 12t-4.5 10q-1 10 -12.5 10.5t-17.5 -8.5
q-4 -4 -6 -12.5t-2 -15.5t0.5 -17.5t0.5 -12.5t-0.5 -11.5t-0.5 -16.5t2 -15.5t6 -13.5q6 -9 17.5 -7.5t12.5 11.5q4 4 4.5 9.5t-1 12t-1.5 9.5h23q0 -18 -2 -29t-11.5 -22t-27.5 -11q-16 0 -26 7t-13.5 22.5t-4.5 26.5t0 32.5t1 26.5zM2161 -72v400h114q27 0 50.5 -27
t23.5 -78q0 -70 -33 -88q37 -30 37 -102q0 -51 -23 -78t-51 -27h-118zM2165 -287v162h63v-16h-39v-56h31v-14h-31v-63h39v-13h-63zM2189 440l25 9q0 -33 10 -37q27 0 27 20q0 9 -6.5 18t-17 19t-13.5 14q-19 13 -23 33.5t13 36.5q19 16 45 6q22 -13 22 -41l-20 -4
q-9 35 -25 33q-11 -2 -12 -15q-7 -22 18 -43q3 -2 12 -8.5t13 -9.5t8.5 -9.5t5.5 -12.5q6 -22 -5 -39t-34 -17q-18 0 -29.5 13.5t-13.5 33.5zM2224 -12h33q16 0 23.5 19t5.5 46q-8 47 -35 47h-27v-112zM2224 158h27q28 0 28 51q0 61 -30 61h-25v-112zM2224 766q0 11 -0.5 34
t-0.5 37t1 33t4 33q17 53 78 53q69 0 82 -45q8 -18 10 -40t0 -56t-2 -41t0.5 -19t1 -20t-1 -18t-4.5 -19q-3 -30 -24 -46.5t-54 -16.5q-35 0 -59 17t-27 48q-4 23 -4 66zM2241 -489v159h22v-159h-22zM2271 737q0 -55 19 -65q23 -6 39 0q22 14 26 41q1 4 1 10.5t-0.5 14
t-0.5 10.5v114q0 39 -12 49q-29 17 -39 9q-24 0 -33 -25q-3 -15 -3 -32t1.5 -38t1.5 -32v-56zM2279 -489l35 159h23l37 -159h-21l-8 43h-33l-8 -43h-25zM2290 393v168h65v-12h-41v-60h31v-18h-31v-59h43v-19h-67zM2298 -287v162h61v-16h-45v-56h31v-14h-31v-76h-16z
M2314 -436h29l-14 80zM2355 1098q0 -53 23 -64q21 -8 37 0q22 11 22 43v144q0 41 -14 55q-12 17 -35 10q-23 -3 -31 -33q-5 -11 -5.5 -27.5t1.5 -39t2 -31.5v-57zM2374 -248v37v86h18v-72q0 -2 -0.5 -15t-0.5 -21t2 -19t7 -16.5t13 -5.5q9 0 14.5 5.5t7.5 16.5t2.5 18.5
t0 21.5t-0.5 15v72h21v-74v-11v-13.5t-0.5 -12.5t-2 -13.5t-3.5 -12t-5.5 -11.5t-8.5 -8t-11 -6q-46 -12 -53 39zM2388 -489v159h22v-145h44v-14h-66zM2388 -72v400h68v-334h84v-66h-152zM2410 561h25l23 -121l24 121h21l-35 -168h-23zM2443 639v317h31l90 -213v213h39v-317
h-31l-94 215v-215h-35zM2482 -287v162h25v-149h37v-13h-62zM2509 -330h18l25 -116l26 116h19l-37 -159h-16zM2519 393v168h25v-168h-25zM2527 1001v318h27l90 -213v213h39v-318h-31l-88 213v-213h-37zM2560 -287v162h23v-149h40v-13h-63zM2564 440l23 9q0 -10 4.5 -22
t11.5 -15q20 0 20 20q-1 6 0 8.5t-2.5 8t-5 7.5t-6.5 7l-7 7t-7.5 6.5t-7.5 6.5q-10 9 -16.5 21t-6 26t13.5 23q27 16 43 6q19 -11 23 -41l-21 -4q-2 21 -9 28.5t-14 3.5t-11 -14q-3 -3 -1.5 -8.5t1.5 -8t4 -8t6 -7t6.5 -6l5.5 -5.5q31 -25 33 -40q6 -22 -4.5 -39t-30.5 -17
q-37 0 -45 47zM2574 -72v400h156v-70h-90v-86h72v-72h-72v-106h90v-66h-156zM2615 -489v159h66v-14h-43v-49h35v-17h-35v-65h43v-14h-66zM2652 639v317h43v-288h76v-29h-119zM2664 393v168h25v-168h-25zM2681 -287l29 162h26l35 -162h-25l-4 41h-32l-11 -41h-18zM2697 -489
v159q6 0 20 1.5t25 1t19 -4.5q18 -12 16.5 -41t-22.5 -35l24 -81h-22l-21 79h-16v-79h-23zM2703 549v12h76v-12h-26v-156h-19v156h-31zM2710 -231h26l-12 75zM2714 1001l69 318h43l68 -318h-41l-17 76h-65l-16 -76h-41zM2720 -393q15 0 20 0.5t10 5.5t5 16q0 16 -8 21.5
t-27 5.5v-49zM2765 68l61 4q0 -48 13 -70q7 -22 24 -14q16 2 16 32q0 15 -8 31t-14 24t-22.5 25t-18.5 19q-6 9 -18 22t-15 19q-25 37 -18 94q1 44 43 66.5t82 3.5q53 -23 53 -127l-64 -4q0 71 -24 77q-19 1 -25.5 -19t0.5 -32q3 -8 7 -15.5t7.5 -11t10 -10.5t8.5 -10
l35 -35q55 -65 47 -133q-2 -28 -21 -51.5t-49 -30.5q-30 -3 -57.5 9t-40.5 40q-12 31 -12 97zM2779 1110h51l-24 143zM2787 -287v162h15l45 -106v106h20v-162h-14l-43 111v-111h-23zM2787 956h39l47 -153l49 153h44q-6 -19 -21 -64t-23 -71l-22 -63q-3 -6 -3.5 -13.5
t0.5 -17t1 -12.5v-76h-45v63q0 4 0.5 15t0.5 20t-1 15q-11 40 -23 59zM2798 -442l20 4q0 -26 12 -31q11 -6 20 0t9 16q0 20 -41 47q-17 17 -20 37.5t14 32.5q10 9 23 10.5t20 -4.5q18 -7 18 -37l-14 -8q-1 3 -3 11.5t-4 13t-7 6.5q-13 8 -25 -8q-3 -3 -1.5 -8.5t1.5 -7.5
t4.5 -6.5t6 -6.5t7 -6t7.5 -6q3 -4 11 -12.5t12.5 -16.5t4.5 -18q8 -20 -0.5 -36t-29.5 -16q-22 0 -33.5 14t-11.5 36zM2894 -287v162q2 0 11.5 0.5t15.5 0t14.5 -1.5t16 -3.5t14.5 -7.5t9 -16t0.5 -31t-1.5 -23q0 -4 1 -19t0 -21.5t-5 -15.5t-13 -13q-13 -11 -63 -11z
M2898 -489v159h20v-159h-20zM2916 -274q11 0 16 0.5t11.5 6.5t9.5 19v82q-1 17 -9.5 21t-27.5 4v-133zM2927 1001v318h45v-289h80v-29h-125zM2941 -406q0 28 1.5 42t13.5 26t36 8q10 0 17 -2t11.5 -8t7.5 -9.5t4 -14t1 -14v-16.5v-14v-23t-2 -21t-6.5 -21.5t-14 -12.5
t-22.5 -6q-17 0 -27.5 7t-14.5 21.5t-4.5 23.5t-0.5 27v7zM2963 258v70h183v-70h-56v-330h-69v330h-58zM2970 -393q0 -2 -2.5 -23.5t-1 -35.5t9.5 -17q7 -4 12.5 -4.5t9 1.5t6.5 5t4.5 9.5t2.5 11t1.5 11.5t0.5 11v10q0 63 -11 66q-32 14 -32 -23v-22zM2988 639v43h45v-43
h-45zM2988 956h45l-16 -251h-15zM3058 -489v159h12l49 -106v106h19v-159h-17l-51 112v-112h-12zM3178 -72v400h70v-400h-70zM3281 328h63l29 -277l33 277h67l-67 -400h-66zM3508 -72v400h156v-70h-90v-86h73v-72h-73v-106h90v-66h-156z" />
    <glyph glyph-name="uni0030" unicode="1" horiz-adv-x="4741" 
d="M2392 997q-71 0 -80 70q-4 20 -4 57q0 10 -0.5 35t-0.5 39t1.5 33t5.5 33q10 53 74 57q71 0 86 -45q7 -19 9 -40.5t0.5 -57t-1.5 -41.5q0 -54 -4 -74q-14 -66 -86 -66zM948 -70l6 400h64l49 -252l45 252h70v-400h-56l-6 166l-28 -166h-48l-32 162l-4 -162h-60zM1235 -70
v400h51l68 -193v193h61v-400h-49l-70 195v-195h-61zM1460 -70v72h70v-72h-70zM1468 -377q0 24 14 38.5t40 8.5q12 0 19 -4t9.5 -13t3 -15t0.5 -19h-20q0 24 -2 29q-4 10 -16.5 10.5t-18.5 -8.5t-6 -58q0 -46 8 -57q4 -9 16.5 -7.5t16.5 11.5q2 5 2 31h20q0 -62 -38 -62
q-12 0 -21 4t-14 12t-8.5 16t-4.5 21t-1 21t0.5 22t0.5 19zM1554 70l62 4q0 -49 16 -72q8 -20 25 -12q16 3 16 33q0 14 -7.5 30t-13.5 24.5t-21.5 25.5t-18.5 20q-2 2 -17.5 17t-19.5 24q-25 40 -16 92q2 43 42 66.5t82 3.5q52 -25 52 -127l-62 -4q-1 7 -1.5 22.5t-1.5 25
t-6.5 19t-14.5 10.5q-22 1 -27.5 -17t-1.5 -34q3 -8 8 -15.5t9 -11.5t11.5 -10.5t10.5 -9.5l31 -37q56 -53 47 -131q-2 -27 -20.5 -50t-49.5 -32q-31 -3 -57.5 9.5t-38.5 39.5q-17 41 -17 97zM1573 -406q0 28 1.5 42t12.5 26t33 8q13 0 22.5 -5.5t14 -11.5t6.5 -20t2 -19.5
v-21.5v-23t-2 -21t-6.5 -21.5t-14 -12.5t-22.5 -6q-11 0 -19.5 2.5t-13.5 9t-8.5 11.5t-4.5 15.5t-1.5 15.5t0 17t0.5 15zM1577 1001v318h68q59 0 77 -35q15 -28 12 -64t-28 -55q-18 -18 -86 -18v-146h-43zM1579 758v198h41v-213q0 -61 27 -75q32 -9 45.5 13t13.5 56v103
v116h43v-145q0 -4 1 -35.5t-0.5 -45t-5.5 -36.5t-16.5 -36t-31.5 -19q-27 -14 -62 -1t-47 44q-8 20 -8 76zM1593 -393q0 -2 -0.5 -13t0 -19t1.5 -18.5t4 -17t8 -8.5q32 -17 34 33v22q0 1 0.5 12t0 17.5t-1.5 15.5t-3.5 14.5t-7.5 6.5q-16 8 -25.5 0t-9.5 -23v-22zM1620 1182
q38 0 47 2q27 7 27 45q0 49 -27 55q-8 3 -16 3.5t-18 -0.5t-13 -1v-104zM1634 -287v162h62v-16h-37v-56h31v-14h-31v-76h-25zM1686 -489v159h24l31 -127l24 127h23l2 -159h-16v118l-25 -118h-18l-27 118v-118h-18zM1710 -201q0 26 1.5 39.5t13 27t34.5 13.5q7 -1 12.5 -3.5
t9.5 -5.5t7 -7.5t5 -8t3.5 -10t2 -10t1 -11t0.5 -10v-11v-9.5q0 -14 -0.5 -22t-2.5 -21t-6.5 -19.5t-13.5 -12t-22 -5.5q-16 0 -26 6.5t-14 20.5t-4.5 23t-0.5 28v8zM1733 -197q0 -2 -1 -16t-1 -23.5t4.5 -21t13.5 -14.5q10 -2 16.5 2.5t9 16t3 19.5t0.5 21q0 2 0.5 12.5
t0 17.5t-1.5 16.5t-4 15.5t-8 8q-11 9 -21.5 -1t-10.5 -26v-27zM1765 1001v318h121v-33h-78v-104h66v-35h-66v-117h82v-29h-125zM1767 131q0 97 2 115q11 63 58 84q56 11 90 -8q7 -4 12.5 -10t10 -11t7.5 -13t5.5 -13t4 -15t2 -14.5t1 -15.5t0.5 -14v-15v-13h-66q0 52 -3 65
t-17 19q-37 5 -37 -55v-143q0 -2 -0.5 -15t0 -21.5t2 -20t7 -18.5t14.5 -9q8 -1 14 -2.5t10 4t7.5 9t5 12.5t2.5 14.5t1.5 15t0.5 14.5v12.5v8.5h-41v59h104v-207h-53l-2 13q-18 -17 -48.5 -18t-50.5 12q-32 15 -41 81q-2 19 -2 113zM1784 725l45 12q5 -46 14 -55
q11 -11 25.5 -12.5t23.5 8.5q14 8 14 28t-10 33q-3 3 -7 9t-7 10t-8.5 8.5t-11.5 7.5q-1 1 -28.5 24t-35.5 38q-20 30 -10 69t47 51q41 7 78 -12q26 -21 26 -67l-34 -15q-4 53 -33 58q-16 6 -27.5 -2t-13.5 -21q-5 -7 -2 -16.5t4 -14.5t8.5 -13.5t12 -12.5t13.5 -11.5
t13 -11.5q3 -3 14 -12t15 -12.5t12 -12t11.5 -15t7 -15.5t4.5 -19q8 -38 -13 -67t-59 -29t-61.5 25.5t-26.5 64.5zM1819 -489v159h24l29 -127l26 127h21l4 -159h-14l-4 118l-25 -118h-18l-23 118l-4 -118h-16zM1825 -287v162q2 0 17 1t24.5 0t17.5 -5q19 -11 20 -40.5
t-20 -37.5l25 -80h-25l-22 76h-19v-76h-18zM1839 393v168q4 0 15 0.5t17.5 0.5t15.5 -1.5t15.5 -6t10.5 -11.5q5 -13 4 -33t-8 -29q-13 -10 -47 -10v-78h-23zM1843 -197q41 0 41 31q0 16 -10 20.5t-31 4.5v-56zM1862 485q18 0 22 4q12 6 12 33q0 19 -7 23t-27 4v-64z
M1923 1001v318q6 0 30.5 0.5t36 0t29 -3.5t29.5 -9q36 -21 37 -76.5t-37 -69.5l39 -160h-39l-45 148h-33v-148h-47zM1939 393v168h17v-149h43v-19h-60zM1950 -489v159h63v-14h-39v-49h31v-17h-31v-65h39v-14h-63zM1960 -141v16h84v-16h-31v-146h-24v146h-29zM1970 1182
q29 0 45 2q31 16 25 55q0 36 -25 43q-6 3 -12.5 4t-11.5 1t-11.5 -0.5t-9.5 -0.5v-104zM1976 -121l109 502h61l-112 -502h-58zM1982 639v317h123v-36h-80v-103h64v-33h-64v-116h80v-29h-123zM2015 393v168h62v-12h-41v-60h35v-18h-35v-59h41v-19h-62zM2030 -489v159
q7 0 21 1.5t23.5 1t16.5 -4.5q18 -13 18.5 -40.5t-20.5 -35.5l25 -81h-23l-18 79h-19v-79h-24zM2054 -393q11 0 14.5 0.5t10 2t8.5 6.5t2 13q0 27 -35 27v-49zM2054 -287v162h21v-72h45v72h22v-162h-22v76h-45v-76h-21zM2087 393l35 168h26l31 -168h-22l-9 47h-34l-7 -47
h-20zM2114 453h34l-16 79zM2114 1090l45 12q3 -43 16 -58q11 -11 26.5 -12t26.5 8q11 10 10.5 28.5t-10.5 33.5q-2 2 -8 9.5t-13 14.5t-16 13q-3 3 -26.5 24t-32.5 33q-22 33 -12 72.5t49 46.5q15 7 38 5t38 -13q23 -14 28 -66l-35 -12q-1 2 -4.5 16t-5.5 20t-8.5 14
t-15.5 11q-37 0 -43 -28q-7 -40 53 -80q4 -4 18.5 -19t20.5 -22t13.5 -20t10.5 -25q8 -39 -13 -69t-60 -30q-40 0 -63.5 26.5t-26.5 66.5zM2132 -377q0 24 13 38.5t38 8.5q14 0 22 -8.5t9.5 -17.5t1.5 -25h-23q0 1 1.5 7t1 12t-4.5 10q-1 10 -12.5 10.5t-17.5 -8.5
q-4 -4 -6 -12.5t-2 -15.5t0.5 -17.5t0.5 -12.5t-0.5 -11.5t-0.5 -16.5t2 -15.5t6 -13.5q6 -9 17.5 -7.5t12.5 11.5q4 4 4.5 9.5t-1 12t-1.5 9.5h23q0 -18 -2 -29t-11.5 -22t-27.5 -11q-16 0 -26 7t-13.5 22.5t-4.5 26.5t0 32.5t1 26.5zM2161 -72v400h114q27 0 50.5 -27
t23.5 -78q0 -70 -33 -88q37 -30 37 -102q0 -51 -23 -78t-51 -27h-118zM2165 -287v162h63v-16h-39v-56h31v-14h-31v-63h39v-13h-63zM2189 440l25 9q0 -33 10 -37q27 0 27 20q0 9 -6.5 18t-17 19t-13.5 14q-19 13 -23 33.5t13 36.5q19 16 45 6q22 -13 22 -41l-20 -4
q-9 35 -25 33q-11 -2 -12 -15q-7 -22 18 -43q3 -2 12 -8.5t13 -9.5t8.5 -9.5t5.5 -12.5q6 -22 -5 -39t-34 -17q-18 0 -29.5 13.5t-13.5 33.5zM2224 -12h33q16 0 23.5 19t5.5 46q-8 47 -35 47h-27v-112zM2224 158h27q28 0 28 51q0 61 -30 61h-25v-112zM2224 766q0 11 -0.5 34
t-0.5 37t1 33t4 33q17 53 78 53q69 0 82 -45q8 -18 10 -40t0 -56t-2 -41t0.5 -19t1 -20t-1 -18t-4.5 -19q-3 -30 -24 -46.5t-54 -16.5q-35 0 -59 17t-27 48q-4 23 -4 66zM2241 -489v159h22v-159h-22zM2271 737q0 -55 19 -65q23 -6 39 0q22 14 26 41q1 4 1 10.5t-0.5 14
t-0.5 10.5v114q0 39 -12 49q-29 17 -39 9q-24 0 -33 -25q-3 -15 -3 -32t1.5 -38t1.5 -32v-56zM2279 -489l35 159h23l37 -159h-21l-8 43h-33l-8 -43h-25zM2290 393v168h65v-12h-41v-60h31v-18h-31v-59h43v-19h-67zM2298 -287v162h61v-16h-45v-56h31v-14h-31v-76h-16z
M2314 -436h29l-14 80zM2355 1098q0 -53 23 -64q21 -8 37 0q22 11 22 43v144q0 41 -14 55q-12 17 -35 10q-23 -3 -31 -33q-5 -11 -5.5 -27.5t1.5 -39t2 -31.5v-57zM2374 -248v37v86h18v-72q0 -2 -0.5 -15t-0.5 -21t2 -19t7 -16.5t13 -5.5q9 0 14.5 5.5t7.5 16.5t2.5 18.5
t0 21.5t-0.5 15v72h21v-74v-11v-13.5t-0.5 -12.5t-2 -13.5t-3.5 -12t-5.5 -11.5t-8.5 -8t-11 -6q-46 -12 -53 39zM2388 -489v159h22v-145h44v-14h-66zM2388 -72v400h68v-334h84v-66h-152zM2410 561h25l23 -121l24 121h21l-35 -168h-23zM2443 639v317h31l90 -213v213h39v-317
h-31l-94 215v-215h-35zM2482 -287v162h25v-149h37v-13h-62zM2509 -330h18l25 -116l26 116h19l-37 -159h-16zM2519 393v168h25v-168h-25zM2527 1001v318h27l90 -213v213h39v-318h-31l-88 213v-213h-37zM2560 -287v162h23v-149h40v-13h-63zM2564 440l23 9q0 -10 4.5 -22
t11.5 -15q20 0 20 20q-1 6 0 8.5t-2.5 8t-5 7.5t-6.5 7l-7 7t-7.5 6.5t-7.5 6.5q-10 9 -16.5 21t-6 26t13.5 23q27 16 43 6q19 -11 23 -41l-21 -4q-2 21 -9 28.5t-14 3.5t-11 -14q-3 -3 -1.5 -8.5t1.5 -8t4 -8t6 -7t6.5 -6l5.5 -5.5q31 -25 33 -40q6 -22 -4.5 -39t-30.5 -17
q-37 0 -45 47zM2574 -72v400h156v-70h-90v-86h72v-72h-72v-106h90v-66h-156zM2615 -489v159h66v-14h-43v-49h35v-17h-35v-65h43v-14h-66zM2652 639v317h43v-288h76v-29h-119zM2664 393v168h25v-168h-25zM2681 -287l29 162h26l35 -162h-25l-4 41h-32l-11 -41h-18zM2697 -489
v159q6 0 20 1.5t25 1t19 -4.5q18 -12 16.5 -41t-22.5 -35l24 -81h-22l-21 79h-16v-79h-23zM2703 549v12h76v-12h-26v-156h-19v156h-31zM2710 -231h26l-12 75zM2714 1001l69 318h43l68 -318h-41l-17 76h-65l-16 -76h-41zM2720 -393q15 0 20 0.5t10 5.5t5 16q0 16 -8 21.5
t-27 5.5v-49zM2765 68l61 4q0 -48 13 -70q7 -22 24 -14q16 2 16 32q0 15 -8 31t-14 24t-22.5 25t-18.5 19q-6 9 -18 22t-15 19q-25 37 -18 94q1 44 43 66.5t82 3.5q53 -23 53 -127l-64 -4q0 71 -24 77q-19 1 -25.5 -19t0.5 -32q3 -8 7 -15.5t7.5 -11t10 -10.5t8.5 -10
l35 -35q55 -65 47 -133q-2 -28 -21 -51.5t-49 -30.5q-30 -3 -57.5 9t-40.5 40q-12 31 -12 97zM2779 1110h51l-24 143zM2787 -287v162h15l45 -106v106h20v-162h-14l-43 111v-111h-23zM2787 956h39l47 -153l49 153h44q-6 -19 -21 -64t-23 -71l-22 -63q-3 -6 -3.5 -13.5
t0.5 -17t1 -12.5v-76h-45v63q0 4 0.5 15t0.5 20t-1 15q-11 40 -23 59zM2798 -442l20 4q0 -26 12 -31q11 -6 20 0t9 16q0 20 -41 47q-17 17 -20 37.5t14 32.5q10 9 23 10.5t20 -4.5q18 -7 18 -37l-14 -8q-1 3 -3 11.5t-4 13t-7 6.5q-13 8 -25 -8q-3 -3 -1.5 -8.5t1.5 -7.5
t4.5 -6.5t6 -6.5t7 -6t7.5 -6q3 -4 11 -12.5t12.5 -16.5t4.5 -18q8 -20 -0.5 -36t-29.5 -16q-22 0 -33.5 14t-11.5 36zM2894 -287v162q2 0 11.5 0.5t15.5 0t14.5 -1.5t16 -3.5t14.5 -7.5t9 -16t0.5 -31t-1.5 -23q0 -4 1 -19t0 -21.5t-5 -15.5t-13 -13q-13 -11 -63 -11z
M2898 -489v159h20v-159h-20zM2916 -274q11 0 16 0.5t11.5 6.5t9.5 19v82q-1 17 -9.5 21t-27.5 4v-133zM2927 1001v318h45v-289h80v-29h-125zM2941 -406q0 28 1.5 42t13.5 26t36 8q10 0 17 -2t11.5 -8t7.5 -9.5t4 -14t1 -14v-16.5v-14v-23t-2 -21t-6.5 -21.5t-14 -12.5
t-22.5 -6q-17 0 -27.5 7t-14.5 21.5t-4.5 23.5t-0.5 27v7zM2963 258v70h183v-70h-56v-330h-69v330h-58zM2970 -393q0 -2 -2.5 -23.5t-1 -35.5t9.5 -17q7 -4 12.5 -4.5t9 1.5t6.5 5t4.5 9.5t2.5 11t1.5 11.5t0.5 11v10q0 63 -11 66q-32 14 -32 -23v-22zM2988 639v43h45v-43
h-45zM2988 956h45l-16 -251h-15zM3058 -489v159h12l49 -106v106h19v-159h-17l-51 112v-112h-12zM3178 -72v400h70v-400h-70zM3281 328h63l29 -277l33 277h67l-67 -400h-66zM3508 -72v400h156v-70h-90v-86h73v-72h-73v-106h90v-66h-156z" />
    <glyph glyph-name="colon" unicode=":" horiz-adv-x="403" 
d="M301 717q2 -5 -3 -19.5t-12.5 -33t-9.5 -29.5q-1 -2 -3 -14t-7 -15q-23 -10 -58.5 -2.5t-57.5 21.5q-10 6 -12.5 12.5t0.5 12.5t9.5 21t10.5 31q3 15 2.5 20.5t-2.5 11t-2 7.5q-2 9 9.5 14t26.5 5t29 -2q68 -9 80 -41zM117 180q-10 7 -12.5 13.5t0 12.5t8.5 21.5t10 32.5
q2 14 1.5 20t-2 10.5t-1.5 6.5q-2 11 9.5 16t26.5 4.5t29 -2.5q68 -9 80 -39q2 -5 -2.5 -19.5t-12 -34t-9.5 -29.5q0 -2 -1 -9t-2.5 -11.5t-5.5 -6.5q-23 -12 -59.5 -6t-56.5 20z" />
    <glyph glyph-name="semicolon" unicode=";" horiz-adv-x="444" 
d="M223 336q12 14 52 -16t49 -62q5 -13 0 -57q-7 -97 -54 -154q-20 -23 -48.5 -32.5t-47 -8t-29.5 5.5q-19 10 -32 29q-6 9 -8.5 15t-1 9t3.5 4t5.5 2t4.5 1q43 13 73 84q32 78 29 161q0 15 4 19zM190 625q-8 5 -11 9.5t-1.5 10.5t5 12t8.5 18.5t8 26.5q3 15 2.5 20.5
t-2.5 11t-2 7.5q-1 9 10.5 14t26 5t28.5 -2q68 -9 80 -41q2 -5 -3 -19.5t-12.5 -33t-9.5 -29.5q0 -1 -1.5 -9t-3 -12.5t-5.5 -7.5q-23 -10 -59 -2.5t-58 21.5z" />
    <glyph glyph-name="less" unicode="&#x3c;" horiz-adv-x="581" 
d="M377 877q23 8 65 -34t35 -67q-1 -3 -6.5 -8.5l-7.5 -7.5q-37 -36 -83 -78.5t-69 -64.5t-45.5 -45.5t-30 -39t-4.5 -28.5q5 -5 55.5 -49.5t114.5 -112.5q48 -54 27 -72q-16 -4 -37.5 7.5t-36.5 25.5t-39.5 39.5t-31.5 32.5q-8 8 -38.5 35t-52 48t-46 49t-36 53t-6.5 44
q2 9 9.5 20t26 29t38 36t57 53t72.5 69q13 12 24 22.5t17.5 17l11.5 11.5t7 7.5t4 4t3 2.5t3 1z" />
    <glyph glyph-name="equal" unicode="=" horiz-adv-x="722" 
d="M561 715q15 -5 32 -21.5t23.5 -31t-0.5 -21.5q-2 -1 -3.5 -1.5t-5 0t-7.5 1t-13 2t-20 2.5q-92 8 -177.5 5t-156 -9t-71.5 -6q-18 4 -45 31q-19 25 -13 34q5 7 27 7q166 18 285 18t145 -10zM104 524q2 2 26 5q13 1 22 2t29.5 3t43.5 5q153 19 246 10q48 -4 68 -14
q25 -11 46.5 -40t8.5 -38q-8 -1 -8.5 -1t-14 4t-26.5 7q-85 15 -160 10.5t-145 -13.5t-78 -7q-22 5 -45 32q-19 25 -13 35z" />
    <glyph glyph-name="greater" unicode="&#x3e;" horiz-adv-x="581" 
d="M299 770q7 -7 48.5 -45.5t66.5 -63.5t47 -60.5t16 -59.5q-2 -9 -9.5 -20t-26 -29t-38 -36t-57 -53t-72.5 -69q-15 -14 -27 -25.5t-18.5 -18l-11 -11t-6 -6.5t-3 -3t-3.5 -2q-23 -6 -66 36t-37 65q2 6 17 16q36 35 82.5 78.5t68.5 64.5t44.5 45.5t29.5 39.5t4 28
q-8 9 -56.5 52.5t-111.5 109.5q-11 11 -19.5 23.5t-13 27.5t6.5 23q20 5 44 -11t59.5 -53.5t41.5 -42.5z" />
    <glyph glyph-name="question" unicode="?" horiz-adv-x="874" 
d="M328 4q68 -9 80 -41q2 -5 -3 -19.5t-12.5 -33t-9.5 -29.5q-6 -25 -10 -28q-23 -10 -59 -3t-58 21q-10 7 -12.5 13.5t0.5 12.5t9.5 21t10.5 31q3 15 2.5 20.5t-2.5 11t-2 7.5q-1 9 10.5 14t26.5 4.5t29 -2.5zM209 719q12 -25 30 -38.5t33 -15t28.5 -4t16 -3.5t-3.5 -15
q-12 -12 -49 -12q-79 0 -127 83q-49 86 -30 195q23 132 138 201q92 55 228 55q67 0 123.5 -18t100 -53t63 -93.5t8.5 -134.5q-10 -65 -68 -174t-122 -205.5t-120 -199t-63 -156.5q-1 -3 -1 -9t-0.5 -10t-2.5 -6q-13 -11 -51 15q-12 9 -20.5 17.5t-14 15.5t-9 15t-5 12.5
t-2 13t0 12t2 12.5t1.5 12q4 33 43 109t91 167.5t103.5 187t87 187.5t35.5 148q0 142 -229 68q-75 -25 -130.5 -94t-77 -146.5t-7.5 -138.5z" />
    <glyph glyph-name="at" unicode="@" horiz-adv-x="1282" 
d="M1120 883q97 -170 39 -410q-45 -182 -154 -318q-96 -120 -184 -127q-97 -8 -138 135q-1 6 -3 13q-9 37 -6 107q-18 -36 -38.5 -70.5t-51 -77.5t-64.5 -69t-65 -25q-137 1 -153.5 147.5t62 304.5t179.5 191q83 30 182 -45l33 -31q20 56 55 133q5 9 10 11q14 5 43 -17.5
t41 -46.5q4 -8 5 -12t0.5 -9t-5 -14t-9.5 -21.5t-16 -38.5t-22 -58q-138 -374 -96 -428q23 -31 93 55q89 111 159 286q100 251 58 400q-49 169 -281 149q-89 -7 -171 -48t-147.5 -105t-116 -143.5t-84.5 -168.5q-43 -112 -52.5 -227.5t12 -208.5t74 -160.5t126.5 -87.5
q50 -14 51 -30q0 -15 -35 -11l-16 3q-118 24 -197 105.5t-109.5 191t-22 241t55 253.5t135 229.5t204.5 168.5q101 53 223 60.5t232.5 -37.5t164.5 -139zM424 303q-46 -135 -13 -179q28 -36 90 18q103 89 209 342q20 50 40 104q-38 39 -75.5 40.5t-69.5 -24t-70 -76.5
q-64 -88 -111 -225z" />
    <glyph glyph-name="A" unicode="A" horiz-adv-x="1300" 
d="M1100 1286q10 7 35 -6t45.5 -41t17.5 -57q-38 -482 -117 -867q37 -25 45 -56q5 -18 -10 -19q-17 -3 -45 20l-22.5 -105t-23 -112t-18 -97t-18.5 -118t-12 -117q0 -10 -2 -14q-11 -16 -53 14q-15 12 -25.5 23.5t-15.5 19t-7 18t-2.5 14.5t1 16t1.5 14q13 139 76 446
q-129 -5 -332 -41q-13 -16 -38 -45.5t-38 -44.5t-34 -40.5t-33 -39.5t-28.5 -34t-26 -33t-20.5 -27.5t-18.5 -25t-12.5 -19.5q-5 -7 -7.5 -8.5t-19.5 2.5q-18 6 -38.5 24.5t-27.5 36.5q-6 16 -5 21t10 14q44 61 176 217q-29 29 -19 39q2 5 70 18q149 179 242 306
q39 53 79.5 114.5t85.5 145.5t70 154t20.5 131t-49.5 85q-52 25 -114 25q-102 0 -202 -39.5t-175.5 -100.5t-134 -132t-88 -137t-27.5 -111q2 -48 41 -60.5t74 29.5q10 13 19.5 8.5t6.5 -18.5q-9 -44 -64 -56q-63 -14 -120 28q-67 49 -70 147q-1 57 22 121t72.5 129
t118 119.5t168 94.5t213.5 54q187 24 297 -66q63 -51 90 -110q13 145 17 149zM692 311q158 24 275 27l6 31q50 237 76 450q-34 -73 -138 -223q-95 -135 -219 -285z" />
    <glyph glyph-name="B" unicode="B" horiz-adv-x="1232" 
d="M1227 1149q77 -75 72 -162t-59 -167t-136.5 -160t-160.5 -142t-129.5 -112.5t-45.5 -71.5q42 -18 96 -51q38 14 63.5 11.5t39.5 -11.5t10 -15q-2 -3 -5 -3.5t-14 -2.5t-24 -6q166 -71 166 -178q0 -70 -64 -146q-85 -104 -245.5 -165t-296.5 -46q-34 4 -69 16t-52 32
q-34 41 1.5 116.5t121.5 157.5q-42 -6 -71.5 8.5t-25.5 63.5q5 47 23 118q117 469 344 787q19 19 55.5 15.5t72 -18.5t34.5 -24q0 -1 -21.5 -33t-58 -89.5t-77.5 -129.5t-87 -170t-80 -194q19 27 63 69t96.5 85.5t112.5 96.5t113.5 104.5t96.5 107.5t65 106.5t15.5 101.5
t-48.5 93q-67 67 -209 67q-294 0 -500 -175q-126 -108 -175 -239q-38 -101 -6 -146q15 -21 44 -21q35 0 60 32q10 13 19.5 8.5t6.5 -18.5q-6 -30 -36.5 -46t-69.5 -13q-66 7 -105.5 55.5t-44.5 120.5q-4 64 18.5 132.5t78 137t136 122.5t204.5 88t272 34q132 0 242 -33.5
t174 -97.5zM481 -174q27 -27 75.5 -28t102 19t110 54t101 74t73 83.5t28.5 77.5q0 36 -26.5 69.5t-70.5 57.5q-98 -55 -174.5 -107t-126.5 -96.5t-79 -83.5t-31 -68.5t18 -51.5zM535 80q124 108 276 178q-47 15 -112.5 28t-90.5 25q-17 6 -20 19q-2 -8 -12 -38.5t-13 -47.5
q-28 -103 -28 -164z" />
    <glyph glyph-name="C" unicode="C" horiz-adv-x="1116" 
d="M1147 444q18 -12 19 -20.5t-5 -17.5q-86 -302 -229 -461t-303 -178q-57 -7 -118.5 5.5t-124 46.5t-115.5 85.5t-94.5 129.5t-59.5 171q-43 227 39.5 462t249.5 400q84 83 172 126t158.5 43.5t128.5 -23t91.5 -68.5t38.5 -98q26 -104 -15 -246t-115.5 -257t-149.5 -167
q-34 -26 -64 -26.5t-61 20.5q-52 31 -70.5 62t-27.5 97q-4 29 13 28q14 -1 18 -16q1 -1 1 -3q3 -50 10 -63q28 -58 136 79q62 80 116 190.5t80 212.5q46 185 -31 219q-64 29 -182 -56q-135 -97 -244 -274q-141 -228 -159 -468q-9 -123 16.5 -230t80.5 -178t137.5 -99
t187.5 5q69 22 131.5 65.5t106.5 95.5t80.5 109.5t60.5 110.5t40.5 96t25 69.5t9.5 27.5q8 6 21 -7z" />
    <glyph glyph-name="D" unicode="D" horiz-adv-x="1298" 
d="M909 1163q206 -78 293.5 -265t22.5 -441q-37 -140 -119.5 -268.5t-181.5 -214.5t-205.5 -134t-192.5 -39q-54 5 -96 28t-62 61t-17 84t41 102.5t108 111.5l6 23q16 68 98 351t125 450q8 37 12 41q15 14 67.5 3t59.5 -30q3 -7 -23.5 -91t-81 -268.5t-99.5 -373.5
q84 43 149 63q43 14 47 13q20 -1 41.5 -27t13.5 -37q-2 -1 -7 -2t-7 -2q-117 -23 -262 -104q0 -7 -4 -19q-8 -41 -12 -43q-19 -16 -80 0q-55 -39 -84.5 -77.5t-30.5 -90.5q-3 -66 61 -80q82 -17 210 60q61 37 120 90q147 132 224.5 304t80.5 339q6 284 -151 380
q-121 74 -298 17q-160 -51 -283 -180q-140 -149 -148 -316q-1 -17 0 -34q3 -68 37 -115t69 -45q16 1 38.5 22t27.5 19q14 -5 14 -14q1 0 -2 -5.5t-10.5 -13.5t-18 -16t-28 -13.5t-37.5 -5.5q-165 0 -214 125q-45 114 20 280q67 170 207 291q183 156 397 144q82 -5 165 -37z
" />
    <glyph glyph-name="E" unicode="E" horiz-adv-x="1347" 
d="M1544 1116q17 -17 6 -22q-3 -2 -15 1t-52 10t-92 13q-170 17 -338 2q-171 -223 -273 -444q146 31 362 64t238 28t50 -33q19 -26 12 -33q-1 -1 -2 -1.5t-2.5 -0.5t-4.5 -0.5t-6.5 -0.5t-10.5 -1t-16 -2l-22.5 -2.5t-29.5 -3.5q-95 -13 -301.5 -52.5t-311.5 -68.5
q-64 -163 -100 -380q-44 -259 10 -307q42 -38 141 75q43 50 99 130.5t59 84.5q14 22 30.5 27t72.5 -4q45 -10 49.5 -23.5t-15.5 -32.5q-3 -4 -4 -6q-47 -70 -78.5 -113.5t-80.5 -96t-97 -83.5q-45 -27 -82 -37q-76 -30 -168 -2q-56 18 -90 55t-41 97.5t-6 112.5t23.5 138.5
t36.5 133t44 135.5q7 22 11 33q-18 -8 -31 -15t-17 -10t-7.5 -5t-6.5 -3q-20 -1 -49 22.5t-39 43.5q-2 5 -2.5 9t-0.5 6t2.5 4t3 2.5t4.5 2.5l4 2q83 37 186 66q98 231 272 463q-49 -13 -63 -17v2q-299 -80 -461 -290q-103 -135 -116 -272q-9 -99 35 -131q20 -15 48 -9
q31 6 51 45q5 9 12 11.5t12 -2t5 -13.5q0 -31 -25.5 -53.5t-64.5 -28.5q-66 -9 -115 29.5t-71 109.5q-13 43 -13.5 89.5t12 96t36.5 99t63.5 98t89.5 92.5t117.5 83.5t145.5 70t175.5 52.5t204.5 32q17 20 19 20q20 7 52.5 2t55.5 -16q188 3 377 -33q2 0 18 -3t18.5 -4
t14 -4.5t16 -7.5t12.5 -10.5t15 -15.5zM803 1077h2h-2z" />
    <glyph glyph-name="F" unicode="F" horiz-adv-x="1470" 
d="M1417 592q35 -10 59 -43q18 -24 3 -29q-10 -1 -13.5 0t-20.5 4.5t-38 5.5q-68 3 -170 -14q-44 -140 -150.5 -396.5t-113.5 -281.5q-11 -27 -37.5 -21t-54.5 29t-31 39q-1 4 23.5 70.5t37.5 97.5q-16 4 -16 10q0 2 3 6t8.5 15t8.5 27q15 71 -33.5 143t-140.5 82
q-5 7 -8 24q-4 36 82 86q128 72 299 117q96 313 41 463q-46 126 -221 88q-161 -35 -358 -184q-185 -141 -284 -295q-84 -131 -67 -223q9 -48 49.5 -55.5t69.5 38.5q6 11 13.5 13t12 -3.5t3.5 -13.5q-1 -33 -32 -53.5t-73 -20.5q-33 0 -63 13t-52.5 37.5t-36.5 58.5t-14 79
t13 95.5t47 111t86 122.5q107 127 249.5 214.5t311.5 120.5q133 22 211.5 8t144.5 -61q85 -61 112.5 -145.5t16.5 -198.5q-9 -81 -34 -178q4 0 11 1t11 1q94 11 135 -4zM799 350q26 -6 51 -20q43 -24 72.5 -67.5t38.5 -94.5q68 157 122 307q-89 -26 -190 -74q-14 -7 -94 -51
z" />
    <glyph glyph-name="G" unicode="G" horiz-adv-x="1046" 
d="M750 1217q155 0 239.5 -73.5t87.5 -178t-30.5 -209.5t-107.5 -178.5t-151 -73.5q-80 0 -143 80q-35 45 -15 69q13 17 32 3q6 -4 10 -11q1 -3 0.5 -6t0 -10.5t3.5 -16.5q11 -39 41 -40.5t63 28.5q52 46 88 120t47.5 150.5t6.5 145t-35 112t-78 43.5q-32 0 -76 -14
q-200 -58 -334 -285q-111 -188 -136 -412q-22 -195 35 -294q35 -61 95 -62q53 -1 102.5 17t96 54.5t74.5 63.5t70 72q8 9 12 13q5 15 10 32t7 24.5t3 8.5q17 19 49.5 12.5t65.5 -23.5t37 -28q-3 -14 -9 -38t-26.5 -90.5t-44.5 -125.5t-64 -127t-84 -110q-88 -84 -180 -74
q-104 10 -109 82q-4 42 27 83t76 68t89.5 42.5t68.5 13.5q28 65 45 116q-198 -191 -414 -98q-85 38 -132.5 111.5t-56 161t7.5 186t52 189t84 167.5q98 155 231.5 232.5t268.5 77.5zM461 -170q48 21 93.5 73.5t78.5 110.5q-34 -13 -68.5 -32.5t-66.5 -45.5t-42.5 -52.5
t5.5 -53.5z" />
    <glyph glyph-name="H" unicode="H" horiz-adv-x="1767" 
d="M1632 471v-2q2 -9 -4 -12q-54 -169 -91.5 -301.5t-52.5 -200.5t-22 -111.5t-8 -57t-2 -15.5q-2 -3 -16 -7q-41 -6 -93 21q-16 10 -18.5 17t0.5 18q14 150 164 631q-195 -4 -299 -2q-36 -117 -100 -289t-72 -205q-9 -39 -54 -8q-36 25 -48 54q-3 5 -3 9q-3 12 18.5 70.5
t63 169t70.5 199.5q-106 3 -107 4q-23 6 -44.5 34t-10.5 37q3 2 21 2q94 -4 166 -4q109 376 59 547q-31 100 -162 100q-83 0 -192.5 -50.5t-212 -131.5t-189 -174t-133.5 -188.5t-35 -163.5q6 -30 27 -45t47 -7.5t45 37.5q9 14 20 11t9 -17q-1 -33 -31.5 -53t-73.5 -20
q-47 0 -86 24.5t-60 71.5t-20.5 108.5t37.5 143.5t109 168q227 271 561 336q74 15 130 17t115 -15.5t105 -59.5q131 -121 107 -364q-11 -116 -54 -275q215 0 301 4q76 236 136 394l2 2q4 6 24 8q50 0 86 -25q11 -11 11 -18q-123 -363 -140 -416z" />
    <glyph glyph-name="I" unicode="I" horiz-adv-x="1048" 
d="M719 1296q148 0 234 -116.5t67 -331.5q-12 -137 -77 -341t-135 -380.5t-77 -206.5q-11 -40 -61 -3q-37 27 -50 57l-2 6q-2 12 32 100.5t81.5 216t92 268t65.5 282.5t0 234q-37 165 -169 138q-115 -23 -259 -174q-136 -145 -206 -305q-57 -130 -36 -208q8 -29 30 -42
t47.5 -3.5t41.5 41.5q6 11 13 13.5t11.5 -2t4.5 -13.5q1 -33 -27.5 -56t-69.5 -26q-47 -4 -88 16.5t-66 65.5t-30 106t25 146.5t94 177.5q47 70 112 138l-2 2q90 90 196 144.5t208 55.5z" />
    <glyph glyph-name="J" unicode="J" horiz-adv-x="1460" 
d="M1286 426q36 2 63 -15q11 -8 7 -14q-4 -4 -11 -5t-33.5 -6t-64.5 -15q-70 -167 -243 -383q-149 -183 -271 -207q-59 -11 -106 6q-61 23 -42 114q22 111 137 236q150 163 370 246q31 72 54 146t39 155.5t14.5 162.5t-21.5 148q-53 178 -236 156q-160 -19 -361 -175
q-173 -135 -277 -291q-95 -143 -79 -234q6 -30 27 -45t47 -7.5t45 37.5q9 14 20 11t9 -17q-1 -33 -32 -53.5t-73 -20.5q-47 0 -86 24.5t-60 72t-20.5 108.5t37.5 144t109 169q83 99 199 178.5t241 122.5t242.5 49t216 -44.5t149.5 -155.5q40 -80 45 -191.5t-14.5 -213
t-56.5 -195.5q4 2 16 2zM791 -90q140 129 270 403q-221 -104 -331 -259q-67 -94 -61 -156q4 -43 42 -37q33 5 80 49z" />
    <glyph glyph-name="K" unicode="K" horiz-adv-x="1740" 
d="M1911 1229q37 -26 20 -78q-13 -41 -47 -106.5t-92.5 -153.5t-129 -173t-165.5 -168t-192 -136q97 -78 172 -267q34 -86 48.5 -190t8.5 -190q0 -9 -3.5 -13.5t-17.5 -5.5q-27 -5 -65 5.5t-47 25.5q-1 2 -1.5 4.5t0 6t1 14t0.5 24.5q0 97 -13.5 208.5t-41.5 190.5
q-57 158 -108 158q-42 0 -99 -117q-21 -43 -120 -287q-26 -65 -48 -116q-17 -39 -62 -2q-33 27 -42 57q-1 3 -1 6q-1 13 39.5 102t96.5 216t109 267.5t79.5 282t5.5 232.5q-41 173 -215 162q-156 -11 -363 -158q-181 -129 -296 -287q-115 -159 -97 -264q6 -30 27 -45t47 -7
t45 38q9 14 20 11t9 -17q-1 -32 -32 -52t-73 -20q-33 0 -63 12.5t-52.5 37t-36.5 58.5t-14 79t13 95t47 111t86 123q108 127 250.5 215t310.5 121q69 14 133 14q193 1 292.5 -145.5t65.5 -359.5q-17 -108 -65 -248q112 65 221.5 172t183 209.5t119 188t45.5 122.5
q0 16 -4.5 26.5t-7 15t-0.5 7.5q7 12 51 8.5t68 -20.5z" />
    <glyph glyph-name="L" unicode="L" horiz-adv-x="1556" 
d="M1495 -41q0 -10 -4 -12q-26 -4 -83 0t-174.5 2.5t-203.5 -15.5q-3 -8 -7 -22t-5 -18q-4 -15 -13.5 -19.5t-21.5 0.5t-25 14.5t-24 22.5l-35 -12q-62 -30 -80 -62q0 -1 -0.5 -3.5t-1 -4t-1.5 -3t-2.5 -2t-4 0t-6 2.5t-8.5 6q-15 10 -15 23q-4 8 15 41q33 59 125 88
q8 24 27.5 77t41 109t47.5 130.5t48.5 145.5t41.5 151t29 150t9.5 138.5t-15.5 120.5q-31 100 -162 100q-69 0 -158 -36.5t-176 -95t-170 -135t-143.5 -154t-92.5 -154.5t-22 -134q6 -30 27 -45t47 -7t45 38q9 14 20 11t9 -17q-1 -33 -32 -53.5t-73 -20.5q-47 0 -86 24.5
t-60 71.5t-20.5 108.5t37.5 143.5t109 168q227 271 561 336q75 15 130 17.5t114.5 -14.5t105.5 -60q131 -121 107 -365q-6 -61 -20.5 -132.5t-27.5 -123t-41 -135.5t-39 -115t-44.5 -119.5t-36.5 -95.5q29 3 62.5 5t58.5 3t62.5 1t55 -0.5t55.5 -1.5t46 -1h16t17.5 -1
t15 -4.5t18.5 -11.5t19 -21q10 -15 12 -23z" />
    <glyph glyph-name="M" unicode="M" horiz-adv-x="2113" 
d="M1839 -18q-1 -46 3.5 -79t8 -45t2.5 -16q-4 -21 -42 1q-41 24 -56 59q-20 41 -20.5 116.5t12 157t38 190.5t48 191t51.5 185t41 149q-50 -71 -103 -159t-130.5 -226.5t-94.5 -167.5q-96 -164 -117 -190q-30 -37 -55 -24q-14 8 -39 38q-22 28 -25.5 58.5t7.5 103.5
q39 253 148 600q-92 -134 -179 -295t-132.5 -263t-104 -243.5t-68.5 -163.5q-9 -21 -22 -50q-16 -36 -22 -38q-4 -1 -18 9l-5 3q-41 25 -56 62q-3 8 -4 17.5t-1 17t2.5 20t4 18t6 19l5.5 16.5q23 81 63.5 191.5t74.5 197t65 185.5t44.5 173.5t3.5 143.5t-49 113
q-38 41 -100.5 48t-135 -16t-153.5 -68t-157.5 -105t-145 -129.5t-118 -138t-74 -135.5t-15.5 -118q6 -31 27 -46t47 -7.5t45 37.5q6 11 13.5 13t12 -3.5t3.5 -13.5q-1 -33 -32 -53.5t-73 -20.5q-47 0 -86 24.5t-60 71.5t-20.5 108.5t37.5 143.5t109 168q108 127 250.5 215
t310.5 121q133 22 211.5 8t144.5 -61q36 -25 62 -55.5t41.5 -60t22.5 -65.5t8 -67t-4.5 -70.5t-13 -69.5t-20.5 -70t-23 -65.5t-24.5 -63t-21.5 -56.5q66 142 163.5 310t163.5 269t78 111q12 9 48.5 -24t35.5 -60q-1 -16 -31.5 -111t-77 -261t-77.5 -326q-16 -82 -22 -123
q10 14 137 227t248.5 417.5t123.5 203.5q21 -5 48.5 -30t33.5 -48q9 -33 -43.5 -222t-114.5 -432t-67 -376z" />
    <glyph glyph-name="N" unicode="N" horiz-adv-x="1843" 
d="M1604 319q-14 -132 -11.5 -208.5t22 -124.5t39 -67.5t40.5 -38t26 -34.5q4 -18 -12 -18q-80 7 -133.5 81.5t-71 187.5t-11 241.5t42.5 255t93 215.5q-122 -92 -223 -195t-163.5 -192t-111 -176t-74 -153t-43.5 -116.5t-28 -73t-20 -16.5q-29 18 -71 56.5t-34 54.5
q24 46 43.5 85t66.5 140.5t80 185t68.5 194t48.5 193.5t3 158t-52 111q-41 36 -105 39.5t-136.5 -20.5t-152.5 -69.5t-155 -104t-142 -127t-115 -136t-72 -133t-15 -115.5q9 -48 49.5 -54.5t69.5 38.5q6 11 13.5 13t12 -3.5t3.5 -13.5q-1 -33 -32 -53.5t-73 -20.5
q-47 0 -86 24.5t-60 71.5t-20.5 108.5t37.5 143.5t109 168q108 127 250.5 215t310.5 121q134 23 212 9t144 -62q71 -49 94 -152.5t7 -218.5t-58 -254q149 175 328.5 351t243.5 202q13 5 46 -25t34 -53q1 -8 -29.5 -56.5t-71.5 -113.5t-57 -102q-71 -154 -98 -363z" />
    <glyph glyph-name="O" unicode="O" horiz-adv-x="1492" 
d="M1350 1032q66 -78 81.5 -184t-10 -212.5t-80.5 -224t-118 -214t-136 -187.5q-17 -23 -63 -73q-57 -67 -111 -105t-116 -39q-96 -15 -171.5 58.5t-93 212.5t61.5 337q29 69 61 129l-8 -6q-30 -19 -52 -22t-54 10q-49 24 -64 70q-2 9 3.5 14t15.5 2q7 -2 21 -11t30 -12
q28 -4 65 14t67.5 43t69 66.5t58 65.5t47.5 59q2 2 4.5 5.5t4 5.5t4 4t5.5 2t7 -1t10 -3q19 -7 58 -38.5t46 -49.5q3 -7 4 -11.5t-1 -9t-3.5 -7t-7 -8.5t-8.5 -10q-103 -134 -180 -278q-90 -171 -129 -348q-41 -189 22 -220q36 -18 107 27q55 35 125 117.5t136.5 189
t127 228.5t96.5 234.5t44.5 208t-28.5 149.5q-56 83 -161.5 112t-221 8t-228.5 -72.5t-193 -121.5q-96 -83 -164.5 -193.5t-92 -203t-4.5 -144.5q16 -32 37.5 -36t81.5 24q7 3 13.5 -11t1.5 -22q-17 -38 -76 -28q-72 8 -113.5 63t-64.5 143q-47 178 110 363q101 118 229 194
t253 101.5t239.5 21t210.5 -38.5q110 -39 195 -137z" />
    <glyph glyph-name="P" unicode="P" horiz-adv-x="1296" 
d="M1231 1100q87 -69 124 -160.5t3 -181.5q-50 -127 -207.5 -258.5t-364.5 -223.5l-4 -4q-29 -3 -63 -16q-37 -11 -80 -35q-10 -5 -31 -63.5t-56 -169t-54 -164.5q-4 -11 -9 -14q-32 -13 -83 13.5t-35 86.5q1 7 48 135.5t123 327t136 340.5q18 43 35.5 89t28 70.5t22.5 47.5
q11 24 29 27t35 -10t32.5 -29.5t25.5 -31.5l9 -14q0 -2 -3.5 -9l-4.5 -9q-84 -184 -207 -496q236 117 416 291q152 152 159 270q4 101 -56 150t-165 49q-336 0 -562 -210q-149 -139 -208 -325q-46 -147 -11 -237q25 -66 87 -66q41 0 94 45q19 16 20 -10q1 -24 -8 -31
q-44 -35 -102.5 -35t-110 32.5t-89.5 94.5t-41 150t36 199q35 95 110.5 179.5t171 145.5t207.5 100.5t220 50t209.5 -11.5t173.5 -79z" />
    <glyph glyph-name="Q" unicode="Q" horiz-adv-x="1492" 
d="M1468 -143q1 -4 2 -6.5t1 -7.5t-2 -5.5t-7 0.5l-4 2q-16 11 -21 29.5t-30 32.5q-107 59 -356 63l-27 -28q-57 -67 -111 -105t-116 -39q-96 -15 -171.5 58.5t-93 212.5t61.5 337q29 69 61 129l-8 -6q-30 -19 -52 -22t-54 10q-49 24 -64 70q-2 9 3.5 14t15.5 2q7 -2 21 -11
t30 -12q28 -4 65 14t67.5 43t69 66.5t58 65.5t47.5 59q2 2 4.5 5.5t4 5.5t4 4t5.5 2t7 -1t10 -3q19 -7 58 -38.5t46 -49.5q3 -7 4 -11.5t-1 -9t-3.5 -7t-7 -8.5t-8.5 -10q-103 -134 -180 -278q-90 -171 -129 -348q-41 -189 22 -220q36 -18 107 27q37 22 84 72
q-86 -13 -105 -41q-19 -9 -55 27q-31 37 -25 49q3 6 11 6q82 31 237 31q114 144 215 339t147.5 373t-8.5 271q-56 83 -161.5 112t-221 8t-228.5 -72.5t-193 -121.5q-96 -83 -164.5 -193.5t-92 -203t-4.5 -144.5q16 -32 37.5 -36t81.5 24q7 3 13.5 -11t1.5 -22
q-17 -38 -76 -28q-72 8 -113.5 63t-64.5 143q-47 178 110 363q101 118 229 194t253 101.5t239.5 21t210.5 -38.5q110 -39 195 -137q65 -77 80.5 -181.5t-8.5 -209.5t-77.5 -221.5t-115 -212.5t-133.5 -187q143 -15 246 -56t126 -107z" />
    <glyph glyph-name="R" unicode="R" horiz-adv-x="1343" 
d="M1358 829q-50 -127 -207.5 -258t-364.5 -223q-19 -9 -24 -33.5t4 -58.5t27 -73.5t45 -80.5t56.5 -77.5t63 -66.5t64.5 -46q33 -17 65.5 -27.5t69.5 -9.5t62 19q12 12 14 12q0 -2 2 -4q0 30 11 28q16 -4 27 -47q8 -32 5 -65q-3 -44 -41.5 -69t-101.5 -9q-166 41 -312 200
t-190 349q-2 -2 -4 -2q-23 -62 -71 -209t-60 -182q-6 -12 -9 -15q-32 -13 -83 14t-35 87q1 7 48 135.5t123 326.5t136 340q18 43 35.5 89t28 70.5t22.5 47.5q11 24 29 27t35 -10t32.5 -29.5t25.5 -30.5l9 -14l-8 -16q-85 -190 -207 -498q238 118 416 293q152 148 159 268
q4 101 -56 150t-165 49q-336 0 -562 -210q-149 -139 -208 -325q-46 -147 -11 -237q25 -66 87 -66q41 0 94 45q19 16 20 -10q1 -24 -8 -31q-44 -35 -102.5 -35.5t-110 32.5t-89.5 94.5t-41 149.5t36 199q35 95 110.5 179.5t171 145.5t207.5 100.5t220 50t209.5 -11.5
t173.5 -79q87 -69 124 -160.5t3 -181.5z" />
    <glyph glyph-name="S" unicode="S" horiz-adv-x="987" 
d="M678 256q99 -56 139 -127q20 -43 20 -66.5t-14 -60.5q-44 -110 -160 -171.5t-247 -61.5q-241 0 -298 135q-40 93 18 214q45 96 116 141q79 50 129 -5q29 -33 41 -98q2 -9 -5 -8q-12 1 -23 18l-3 4q-19 51 -68 11q-50 -40 -83 -127q-43 -114 1 -176q33 -48 115 -48
q67 0 139.5 28.5t136.5 87.5t89 134q5 16 7.5 26.5t5 20t-0.5 17.5t-5 14t-12 13t-17 12.5t-25.5 14.5t-32.5 16t-42 20t-50 24q-276 130 -324 297q-26 88 19.5 195.5t131.5 199t191 165t197 102.5q98 28 164 -3q73 -35 89.5 -116.5t-16.5 -179.5t-98.5 -201.5
t-150.5 -188.5q-30 -30 -46 -45t-40.5 -36t-41.5 -29.5t-39.5 -16t-44 -6t-46.5 10.5q-33 11 -55 36.5t-28.5 44t-4.5 23.5q3 3 9 0.5t13 -9t10 -12.5q2 -4 4 -13q6 -21 17 -21q23 0 106 71t167 185t135.5 231.5t37.5 183.5q-12 53 -117 2q-118 -56 -249 -186
q-142 -139 -191 -264q-20 -50 -26 -91.5t-0.5 -72t25 -57.5t43 -45.5t60 -39.5t69 -36t78.5 -37.5t81 -42.5z" />
    <glyph glyph-name="T" unicode="T" horiz-adv-x="1105" 
d="M1276 1073q15 -36 8 -66.5t-17 -47.5t-14 -19t-7 7q-5 18 3 30q2 4 7 12q13 19 3 28q-18 16 -122 32q-57 8 -80 10q8 -2 22 -10t15 -9q6 -3 9 -6t3.5 -6.5t0 -5l-2 -6t-2.5 -6.5q-56 -159 -145.5 -545t-120.5 -600q-8 -50 -11 -53q-12 -15 -65 -6t-64 28q-4 7 4 53
q32 208 134 603t159 550q7 18 17 21q-176 3 -356 -45.5t-305.5 -131.5t-147.5 -175q-11 -47 23 -70t79 8q13 10 21 2.5t2 -18.5q-14 -30 -51.5 -36.5t-73.5 9.5q-96 43 -99 139q-3 104 102 211q142 146 401 208q153 36 329 36q132 0 224.5 -31t117.5 -94z" />
    <glyph glyph-name="U" unicode="U" horiz-adv-x="2019" 
d="M1978 860q0 -7 -12 -37q-74 -225 -100.5 -309.5t-68 -251t-75.5 -360.5q0 -25 -6 -31q-15 -12 -55.5 20t-44.5 62q-1 8 14 89.5t45.5 215.5t63.5 250q-82 -124 -226 -305q-84 -106 -159.5 -179t-165.5 -118q-30 -15 -63 -21t-65 -1.5t-59.5 20t-45.5 48.5t-23.5 79
t7.5 115.5t46 154.5q24 61 60 151t51.5 129t37 99t27.5 90t11.5 70t0 71t-17.5 64q-46 124 -220 87q-161 -35 -357 -184q-186 -141 -285 -295q-85 -132 -68 -225q6 -30 27 -45t47 -7t45 38q9 14 20 11t9 -17q-1 -33 -32 -53.5t-73 -20.5q-47 0 -86 24.5t-60 72t-20.5 108.5
t37.5 144t109 169q108 127 250.5 215t310.5 121q81 18 150 13t114.5 -20.5t91.5 -45.5q54 -35 83.5 -83t33.5 -105t-4.5 -111t-28.5 -119q-17 -56 -112 -289q-106 -263 -109 -351q-3 -72 52 -68q57 4 180 94q46 35 94 83t78 83.5t79 95.5q194 244 293 422q7 26 28 85.5
t28 84.5q5 14 11 33q7 21 11 22q17 9 55 -23.5t41 -58.5z" />
    <glyph glyph-name="V" unicode="V" horiz-adv-x="1701" 
d="M1956 1331q7 0 29.5 -17.5t34 -37.5t-12.5 -35q-85 -43 -212.5 -210.5t-243 -372t-207 -419.5t-111.5 -348l-3 -3q-4 -4 -7.5 -4.5t-14.5 1.5q-16 2 -37 19q-2 1 -10 6.5t-12.5 9t-12.5 9.5t-13 11t-10.5 11.5t-8 12t-2.5 11.5l6 55q7 56 17.5 150t20.5 202t17.5 233
t7.5 223q0 203 -32.5 274.5t-137.5 71.5q-104 0 -247 -78.5t-263.5 -188t-198.5 -234.5t-63 -210q9 -48 49.5 -54.5t69.5 38.5q9 16 19 12.5t10 -16.5q-3 -33 -33.5 -53.5t-71.5 -20.5q-70 0 -118 52.5t-48 139.5q0 107 62.5 216t161.5 194.5t222.5 151t243 94.5t227 15.5
t169.5 -75.5q77 -74 94 -241q22 -245 -20 -731q59 149 139 315t171.5 330t189.5 296.5t178 188.5z" />
    <glyph glyph-name="W" unicode="W" horiz-adv-x="2037" 
d="M2343 1223q6 1 29 -16t34.5 -36.5t-12.5 -35.5q-85 -43 -212.5 -210.5t-243 -372t-207 -419.5t-111.5 -348l-4 -3q-3 -4 -6.5 -4.5t-14.5 1.5q-16 2 -36 18q-1 1 -10 7t-13 9t-12.5 9.5t-13.5 11.5t-10.5 11t-8 12t-2.5 12l12 101q12 100 29 273.5t24 317.5
q-124 -218 -214 -430t-111 -346l-3 -3q-4 -4 -7.5 -4.5t-14.5 1.5q-13 2 -37 18q-1 1 -8.5 6t-11 7.5t-11 8t-11.5 9.5l-10 10t-9 10.5t-5.5 10t-2.5 10.5l16 137q17 138 35 354t18 371q0 203 -32.5 274.5t-137.5 71.5q-104 0 -247 -78.5t-263.5 -187.5t-198.5 -234
t-63 -210q9 -48 49.5 -55.5t69.5 38.5q6 11 13.5 13t12 -3.5t3.5 -13.5q-1 -33 -32 -53.5t-73 -20.5q-69 0 -117.5 52.5t-48.5 140.5q0 107 62.5 216t161.5 194.5t222.5 151t243 94.5t227 15.5t169.5 -75.5q77 -77 94 -242q23 -247 -20 -731q125 314 297 623q11 18 23 28.5
t23.5 12.5t22.5 0.5t20 -6.5t15.5 -10t10.5 -9l5 -4q11 -212 -26 -635q79 202 190 424.5t247 427.5t241 279q8 4 12 4z" />
    <glyph glyph-name="X" unicode="X" horiz-adv-x="1708" 
d="M1714 1206q10 23 36 3q23 -18 20 -36q0 -2 -1 -4q-49 -111 -139.5 -233.5t-232.5 -288.5q10 -59 43 -229q63 -320 104 -436q17 -45 -28 -58q-42 -11 -82 11q-19 11 -25 26q-9 24 -21 72t-19.5 86.5t-18.5 95.5t-13 68q-37 165 -49 237q-94 -111 -158 -193.5t-132.5 -185
t-110 -199.5t-56.5 -188q-3 -23 -31 -16q-30 7 -41 34q-2 4 -3 9q-12 48 12 119t64 138.5t107 156.5t118 149t122 141.5t95 110.5q-9 45 -21.5 112.5t-19.5 102t-17 79t-20 79.5q-12 42 -18.5 63.5t-19.5 53.5t-26 48.5t-32 34t-45 24.5t-58 7q-83 0 -194 -50.5t-215 -132.5
t-192 -175.5t-135.5 -189.5t-35.5 -165q6 -30 27 -45t47 -7t45 38q9 14 20 11t9 -17q-1 -33 -32 -53.5t-73 -20.5q-69 0 -117.5 53.5t-48.5 141.5q0 85 39.5 171.5t105 159.5t152.5 138t181 110t191.5 71t182.5 26q71 0 143 -20t120 -68q61 -61 95 -164t70 -289
q225 264 332 483z" />
    <glyph glyph-name="Y" unicode="Y" horiz-adv-x="2062" 
d="M1958 1141q23 8 68 -19t38 -51q-26 -82 -84 -277q-134 -457 -216 -663q-181 -455 -365 -490q-83 -15 -168 50q-28 21 -42.5 52.5t-13.5 70t32.5 84.5t92.5 88q41 28 86.5 46.5t121 39.5t108.5 32q50 114 72 177q-45 -64 -99 -108.5t-105.5 -66t-93 -30t-79.5 -8.5
q-81 0 -145.5 55t-78.5 129q-12 63 5 139t50 148t68.5 141.5t63.5 138.5t31 119q8 133 -56 188q-39 33 -102.5 36t-137 -20.5t-154.5 -67.5t-157.5 -100.5t-145 -124t-117.5 -135t-73 -135t-14 -122.5q6 -31 27 -46t47 -7t45 38q9 14 20 10.5t9 -16.5q-1 -33 -32 -53.5
t-73 -20.5q-33 0 -63 13t-52.5 37.5t-36.5 58.5t-14 79t13 95.5t47 111t86 122.5q226 270 561 335q134 23 211.5 9t144.5 -60q158 -114 146 -256q-5 -64 -35 -138t-67 -137.5t-72.5 -127t-56 -126.5t-13.5 -116q8 -60 44 -96.5t93 -36.5q118 0 216.5 80.5t150.5 183.5
q45 90 109.5 277.5t108 328.5t46.5 142zM1255 -174q-36 -50 -5 -81q32 -32 98 -12q99 29 177 154q28 45 50 99q-159 -49 -217 -78q-71 -37 -103 -82z" />
    <glyph glyph-name="Z" unicode="Z" horiz-adv-x="1302" 
d="M1298 811q-17 -77 -91 -178.5t-167.5 -193.5t-215 -193t-211 -168t-177.5 -129q68 2 206 15.5t204 15.5q151 6 225 -86q37 -46 35 -84q-2 -21 -18 -13q-1 1 -3 2q-17 12 -34 39q-35 13 -110 15t-160 -3.5t-184.5 -8.5t-182.5 1q-104 8 -129 23l-14 15q-14 14 -31 34.5
t-31 43t-14 42.5t20 29q70 33 171.5 92.5t236 153.5t248.5 193.5t199.5 218t98.5 220.5q14 97 -35 164.5t-137 67.5q-83 0 -194 -50.5t-215 -132.5t-192 -175.5t-135.5 -189.5t-35.5 -165q6 -30 27 -45t47 -7t45 38q9 14 20 11t9 -17q-1 -33 -31.5 -52.5t-73.5 -19.5
q-69 0 -117.5 52.5t-48.5 139.5q0 107 68.5 220.5t175 205t240 157t260.5 88t240 -15t174 -139.5q64 -107 38 -231z" />
    <glyph glyph-name="bracketleft" unicode="[" horiz-adv-x="788" 
d="M686 1120q1 -7 -2 -11.5t-12 -6t-14.5 -2t-16.5 -0.5q-75 0 -123 6q2 -13 -63.5 -240t-139.5 -490.5t-86 -344.5q-3 -19 -7 -57.5t-7 -57.5q68 33 80 33q16 -1 34 -19.5t21 -33.5q0 -4 1 -6.5t-2 -4t-3.5 -2t-4.5 -1.5t-5 -1q-36 -7 -90 -33q-2 -1 -6.5 -3.5t-7 -3.5
t-7 -2.5t-8.5 -0.5t-9.5 3t-12 7t-13.5 13q0 2 -4 6q-22 8 -47.5 33t-28.5 47q0 4 1 8t3 15.5t5 29.5q4 29 8.5 65.5t8 56t17 76t39.5 150.5q34 128 91.5 328t96.5 335.5t44 164.5q0 8 4 10q11 11 43 -10q20 6 129 -2h12h11t9.5 -0.5t10 -2t8.5 -3.5t9.5 -5.5t9 -8
t10.5 -11.5q11 -11 14 -23z" />
    <glyph glyph-name="backslash" unicode="\" horiz-adv-x="493" 
d="M387 14q6 -29 4 -34q-4 -11 -16 -7q-9 0 -31 13q-15 11 -26 22.5t-17.5 19t-10.5 20.5t-5.5 17.5t-3.5 20t-2 18.5q-104 634 -166 968q-11 61 -9 67q3 8 15 8q12 -2 31 -14q15 -10 26 -21t17.5 -19t10.5 -20t5.5 -17.5t3 -18.5t2.5 -17q10 -57 22 -120t23 -122.5
t43.5 -254.5t83.5 -509z" />
    <glyph glyph-name="bracketright" unicode="]" horiz-adv-x="788" 
d="M686 1090q6 -51 -72.5 -361t-160.5 -595l-82 -284q-3 -2 -15 0q-45 7 -159 13q-4 0 -13 0.5t-12.5 1l-10.5 1.5t-11 3l-10 5t-11.5 8t-11.5 12q-13 13 -15 24q-1 6 2.5 10.5t11.5 6t14.5 2t16.5 0.5q67 0 123 -7q-2 16 55.5 209t135.5 483.5t114 499.5q-77 -35 -81 -35
q-16 3 -34.5 21.5t-21.5 32.5q-3 5 -0.5 8t3.5 3.5t6 1.5t6 1q36 7 90 33q29 13 83.5 -25.5t59.5 -72.5z" />
    <glyph glyph-name="asciicircum" unicode="^" horiz-adv-x="497" 
d="M383 887q2 -23 4.5 -42t4 -27t2 -14t0.5 -8.5t-1 -4.5q-3 -7 -14 -7q-19 2 -47.5 26t-38.5 50q-13 35 -25 201l-118 -203q-7 -14 -11 -14q-7 -2 -20 10q-7 6 -10.5 10.5t-5 7.5t-1 6.5t1.5 5.5t3.5 5.5t3.5 5.5q138 239 149 254v2q-6 22 -2 29q7 10 18 6q18 -4 29 -12
q9 -6 16 -12t12.5 -11.5t10 -11.5l7.5 -10t5.5 -10t3.5 -9t2 -8.5t1.5 -7.5t1 -7t0.5 -6q4 -31 9 -97t9 -97z" />
    <glyph glyph-name="underscore" unicode="_" 
d="M-1034 -369q-1 -1 -5.5 -3.5t-6.5 -3.5t-7 -3t-8.5 -2h-9.5t-11.5 2t-13 6t-15.5 9.5t-17.5 14t-20.5 19.5q-44 44 -37 72q2 5 8.5 8.5t18.5 6t14 3.5q156 52 388 83.5t485 31.5q698 0 1026 -61q55 -11 90 -39q28 -23 -7 -25q-15 -1 -40 2q-110 15 -190.5 24t-215.5 19.5
t-245 9t-279 -7.5q-377 -21 -575 -62t-326 -104z" />
    <glyph glyph-name="grave" unicode="`" horiz-adv-x="651" 
d="M489 870q1 -2 4 -8.5t4 -8.5t1.5 -8t-2 -10.5t-7 -11t-12.5 -14.5q-2 -1 -8 -5t-8.5 -5.5t-9 -4t-9.5 0.5q-6 6 -6 8q-44 64 -117 116.5t-147 65.5q-12 0 -14 6q-12 14 20.5 51.5t61.5 40.5q30 2 117.5 -63.5t131.5 -149.5z" />
    <glyph glyph-name="a" unicode="a" horiz-adv-x="690" 
d="M723 426q19 -4 20.5 -11t-4.5 -12q-2 -4 -14 -31.5t-18 -41.5t-21 -45.5t-24.5 -51t-25.5 -50t-28.5 -51t-28.5 -44.5t-29 -39.5t-28 -28.5t-28 -18q-11 -4 -31.5 -5.5t-48 3.5t-52.5 16.5t-45 38t-26 64.5q-8 58 22 172q-93 -159 -136 -220t-70 -77t-70 -8
q-54 8 -78 32.5t-31 63.5q-6 39 3 103.5t34 140.5t61 144t91.5 116.5t118.5 56.5q118 14 167 -76q19 59 21 76q0 1 0.5 4.5t1 4.5t1.5 3.5t3.5 3.5t6 2.5t9.5 2.5q22 3 50 -2.5t45 -16.5q22 -9 18 -24q-5 -24 -43 -132t-68 -215t-26 -163q0 -26 8.5 -48t26.5 -22
q67 0 229 362q1 2 2.5 8t2.5 7.5t3.5 5t5.5 3.5h9t14 -1zM72 31q7 5 14.5 11.5t12.5 11.5t13 15t10.5 13.5t11 16t9.5 14.5q60 89 140 226.5t100 178.5q-17 51 -43 70.5t-53.5 11t-57.5 -40.5q-90 -95 -141 -287q-42 -160 -16 -241z" />
    <glyph glyph-name="b" unicode="b" horiz-adv-x="555" 
d="M473 586q22 -52 22.5 -120.5t-17 -136.5t-49.5 -134t-72 -117t-87.5 -82t-93.5 -31q-61 0 -113 90q-9 -78 -16 -82q-12 -14 -65.5 -4.5t-63.5 29.5q-4 4 4 51q32 208 126.5 567.5t152.5 516.5q4 16 11 19q6 2 19 3q37 3 78 -22q12 -8 12.5 -15t-4.5 -16
q-70 -191 -165 -606q46 84 92 127q31 30 68 38.5t69 -1.5t57 -30t35 -44zM84 193q0 -6 1 -16t5 -35.5t9.5 -45t16 -35.5t23.5 -16q63 0 148 150q53 95 71 236q17 134 -20 164q-30 24 -90 -46q-51 -59 -104 -181t-60 -175z" />
    <glyph glyph-name="c" unicode="c" horiz-adv-x="518" 
d="M518 430q4 3 15 -2t17.5 -17.5t0.5 -25.5q-27 -50 -55.5 -97.5t-71 -105t-84 -99.5t-92 -70.5t-96.5 -28.5q-154 0 -186 152t47 319.5t202 210.5q35 14 74 8t70.5 -22t48.5 -50t8 -76q-19 -83 -71 -85q-30 -1 -46 19q-5 7 -2 11q85 114 61 140q-5 5 -14 5
q-71 0 -143 -124q-70 -121 -89 -256q-20 -136 35 -164q14 -8 33 -6q28 2 57.5 15.5t55.5 35t51.5 48.5t47.5 57t41.5 59.5t35 56t26 47t17.5 33.5z" />
    <glyph glyph-name="d" unicode="d" horiz-adv-x="716" 
d="M748 426q19 -4 21 -11t-3 -12q-136 -352 -240 -409q-18 -11 -48.5 -12.5t-67 11t-61.5 50.5t-32.5 107.5t19.5 181.5q-115 -197 -178 -285q-30 -44 -55.5 -58t-67.5 -7q-34 8 -51 16q-52 24 -60 80q-7 56 13 147q14 69 37.5 134t59 128.5t86.5 105t111 48.5
q112 14 164 -68q37 133 83.5 272.5t80.5 225.5t43 92q13 8 51.5 3t59.5 -19q5 -4 8 -6.5t3 -6t-1 -5.5l-4 -8t-4 -9q-44 -103 -110 -301.5t-118.5 -423.5t-33.5 -307q24 -109 118 33q74 113 140 285q1 2 2 5q2 4 3.5 10t2.5 7.5t4.5 5t9 2t15.5 -1.5zM68 29q7 5 14.5 11.5
t12.5 11.5t13 15t10.5 13.5t11 16t9.5 14.5q25 37 56 86t60.5 100t52 90t45.5 79.5t26 45.5v6q-17 50 -43 69t-53.5 10t-57.5 -40q-91 -99 -141 -287q-42 -163 -16 -241z" />
    <glyph glyph-name="e" unicode="e" horiz-adv-x="507" 
d="M535 418q15 -13 15 -22t-5 -13q-59 -112 -127 -203q-155 -209 -283 -198q-135 7 -171 136q-33 117 24 275q54 148 148 226q37 30 75 43q94 33 152 -14q55 -45 36 -131q-27 -122 -190 -242q-49 -35 -107 -68q-5 -67 12.5 -107t59.5 -39q49 3 102.5 42t88.5 81t74.5 109
t48 84.5t23.5 49.5q1 0 1 1q8 5 23 -10zM119 299q111 69 188 184q58 85 48 119q-4 12 -17 12q-64 0 -126.5 -96.5t-92.5 -218.5z" />
    <glyph glyph-name="f" unicode="f" horiz-adv-x="339" 
d="M367 426q19 -4 20.5 -10.5t-4.5 -16.5q-17 -52 -47.5 -87t-65.5 -48.5t-75 -17.5t-74 6q41 -138 23.5 -261.5t-66 -208t-92.5 -79.5q-46 7 -80.5 71t-24.5 158q26 258 334 1127q5 17 10 18q11 5 39.5 -1t50 -28t9.5 -55q-195 -554 -230 -663q4 -10 8 -16t15.5 -16
t26.5 -11t42 0q35 5 63.5 21t44.5 35.5t27 38t16 31.5l5 13q7 5 25 0zM-16 -190q0 -13 11.5 -18.5t20.5 3.5q54 53 71.5 177t-21.5 255q-84 -282 -82 -417z" />
    <glyph glyph-name="g" unicode="g" horiz-adv-x="614" 
d="M651 422q9 -3 14.5 -5.5t6 -6t0 -5.5t-3.5 -6.5t-4 -5.5q-24 -34 -77.5 -112.5t-81.5 -118t-73 -94.5t-86 -95q-42 -121 -92 -227q-19 -37 -34.5 -63t-38.5 -56t-50 -48.5t-57 -24.5q-20 -5 -41 -5q-66 1 -96 29.5t-25 68t23.5 77t44.5 63.5q17 17 41.5 35.5t43.5 30.5
t60.5 37t62.5 38q66 173 134 377q-103 -179 -160 -256q-32 -44 -57 -57t-68 -6q-23 3 -49 14q-52 24 -60 82q-6 46 11 147q15 69 39 133t59.5 127.5t87 105t111.5 48.5q111 14 163 -68q1 2 2 7t2 8l7 35q0 1 0.5 6.5t2 6.5t6 3.5t13.5 3.5q46 7 94 -16q19 -12 19 -21
q-1 -5 -162 -518q98 119 229 320q0 1 2.5 5t3 4.5t3.5 3t6.5 2.5t9.5 -0.5t14 -2.5zM-43 -354q-9 -44 4 -60q8 -4 14 -4q29 0 80.5 68.5t102.5 195.5q-3 -2 -26.5 -16t-28 -16.5t-24.5 -15.5t-25 -17.5t-21 -16.5t-21.5 -19.5t-17 -20.5t-16.5 -24t-11 -25t-10 -29zM72 31
q7 5 14.5 11.5t12.5 11.5t13 15t10.5 13.5t11 16t9.5 14.5q60 89 140 226.5t100 178.5q-17 51 -43 70.5t-53.5 11t-57.5 -40.5q-90 -95 -141 -287q-42 -160 -16 -241z" />
    <glyph glyph-name="h" unicode="h" horiz-adv-x="690" 
d="M719 426q19 -4 21 -11t-3 -12q-77 -237 -164 -352q-39 -56 -71.5 -73t-89.5 -3q-49 12 -73.5 42t-27 72t3.5 95q12 86 50 229t38 173q0 16 -8 16q-14 0 -65 -65q-95 -122 -173.5 -263.5t-99.5 -257.5q-1 -2 -1 -5.5t-1 -6t-4 -4.5q-2 -19 -4 -20q-12 -15 -65 -6t-64 28
q-4 7 4 53q32 205 129 564t158 520q5 16 12 19q6 2 17 3q21 2 48.5 -4t41.5 -16q13 -8 13.5 -14.5t-5.5 -16.5q-45 -131 -113.5 -372.5t-116.5 -448.5q57 107 173 270q38 52 71 76q48 40 109 29q56 -9 73 -37q12 -19 -34 -222q-59 -254 -63 -324q-3 -68 22 -65q23 2 67 56
q85 107 162 329q1 3 2.5 9l2 8t2.5 5t5 3.5t8 0.5t13 -1z" />
    <glyph glyph-name="i" unicode="i" horiz-adv-x="335" 
d="M242 770q-15 -12 -67.5 -1.5t-59.5 28.5q-2 3 5.5 26t18.5 60.5t15 66.5q1 2 2 7t2 6q11 10 49 6.5t63 -17.5q14 -8 16.5 -12.5t0.5 -13.5q-5 -23 -17.5 -64.5t-15.5 -54.5q-11 -36 -12 -37zM-63 119q-9 59 21.5 167.5t69 216t42.5 140.5q0 1 0.5 6.5t1.5 6.5t6 4t14 4
q48 7 94 -19q20 -10 17 -24q-5 -26 -42.5 -132.5t-68 -214t-26.5 -163.5q0 -5 2 -5q6 -73 39 -66q71 15 223 363q1 3 3 8l3 7.5t3 5t5.5 3.5t9 0.5t13.5 -1.5q11 -2 16 -5.5t5.5 -5t-1.5 -7.5l-2 -5q-93 -210 -147 -295q-57 -90 -99 -106q-11 -4 -31.5 -5.5t-48 3.5
t-52.5 16.5t-44.5 38t-25.5 64.5z" />
    <glyph glyph-name="j" unicode="j" horiz-adv-x="253" 
d="M225 770q-15 -12 -68 -1.5t-59 28.5q-2 3 5.5 26t18.5 60.5t15 66.5q0 11 4 13q11 10 49.5 6.5t63.5 -17.5q14 -8 16.5 -13.5t-0.5 -12.5q-5 -24 -17 -66.5t-15 -52.5q-10 -34 -13 -37zM-375 -207q21 20 50.5 39.5t77 48t77.5 47.5q198 528 221 697q0 1 0.5 3.5t0.5 3.5
t0.5 3t1.5 3l2.5 2.5t3.5 2t5.5 1.5t8.5 1q46 7 94 -16q18 -10 18 -19q0 -6 -161 -520q124 157 227 322q8 11 11 12t30 -2q12 -4 16.5 -7.5t4.5 -5.5t-4 -8t-5 -8q-25 -36 -77.5 -113t-81 -117.5t-73 -95t-85.5 -94.5q-44 -127 -94 -227q-100 -203 -224 -199q-63 1 -92 29.5
t-25.5 68.5t23.5 80.5t49 67.5zM-338 -387q70 66 137 233q-154 -93 -194 -183q-22 -49 -1 -67t56 15z" />
    <glyph glyph-name="k" unicode="k" horiz-adv-x="516" 
d="M428 725q24 -11 44 -37t13 -39q0 -1 -67 -47t-140.5 -107.5t-91.5 -101.5q19 -43 113.5 -173t134.5 -142q10 3 14.5 -8t4.5 -19q-5 -27 -42 -59.5t-55 -16.5q-27 25 -56 62t-60 85t-49.5 78t-47.5 81t-30 53q-41 -191 -58 -301q-7 -55 -8 -56q-12 -14 -65.5 -4t-63.5 29
q-4 7 4 53q32 205 129 564t158 520q5 16 12 19q6 2 17 3q25 2 71 -22q12 -8 12.5 -16t-4.5 -17q-64 -173 -161 -582q59 64 231 189q3 2 10.5 7.5t9.5 6.5t8 1t13 -3z" />
    <glyph glyph-name="l" unicode="l" horiz-adv-x="376" 
d="M403 424q19 -5 21 -11.5t-2 -11.5q-92 -237 -170 -333q-16 -19 -25 -28.5t-26 -22t-33 -17.5q-12 -4 -29.5 -5t-41.5 4t-46.5 16t-42 35.5t-31.5 60t-12 92t15 127.5q38 186 127 447t141 366q1 1 3 5l2.5 5t2.5 3.5t4 3.5t5 2t7 2t9 1q51 4 90 -20q5 -4 7 -6.5t2 -6
t-0.5 -5.5t-3 -7t-3.5 -8q-75 -166 -169 -461.5t-108 -455.5q-4 -46 2 -76.5t18 -41.5t26.5 -13.5t27 3t20.5 13.5q47 46 92 130.5t70.5 147.5t26.5 64q3 2 24 2z" />
    <glyph glyph-name="m" unicode="m" horiz-adv-x="940" 
d="M973 428q20 -4 22 -10.5t-4 -11.5q-86 -201 -130 -273q-106 -174 -216 -133q-34 12 -70 45q-38 35 -38 94q0 100 80 333q37 108 31 112q-2 2 -9 -4q-35 -33 -70.5 -76t-82.5 -114t-80 -166t-41 -195q0 -4 -16 -11.5t-40.5 -7t-42.5 18.5q-16 16 -17 56t9 105
q10 74 69 280q36 124 22 127q-4 1 -11 -5q-64 -54 -121 -143t-92.5 -178.5t-56 -154.5t-27.5 -102q-5 -19 -62.5 -8t-68.5 31q-4 6 13.5 88t58.5 230.5t92 293.5q3 7 4 9.5t7 5.5t17 4q56 0 91 -21q5 -3 8 -6t4 -5t0.5 -5t-1 -4.5t-2.5 -6t-3 -6.5q-23 -58 -37.5 -102.5
t-29 -96.5t-21.5 -75q68 130 143 233q63 83 102 95q30 8 62.5 -2.5t44.5 -34.5q3 -20 2.5 -35t-10 -54.5t-18 -69t-22 -78t-22.5 -81.5q63 123 156 254q64 85 106 95q32 6 68 4.5t63 -14t23 -29.5q-6 -27 -61.5 -189.5t-71.5 -269.5q-15 -109 19 -121q39 -13 118 118
q56 93 123 247q1 3 3.5 8.5t3.5 7.5t4.5 4t9.5 2t16 -2z" />
    <glyph glyph-name="n" unicode="n" horiz-adv-x="686" 
d="M717 428q19 -4 21 -10.5t-3 -11.5q-78 -237 -162 -353q-41 -56 -73 -73t-88 -3q-72 17 -91.5 69t-7.5 142q12 86 50 228t38 172q0 16 -8 16q-14 0 -65 -65q-76 -97 -132.5 -188t-83.5 -152.5t-42 -108.5t-20 -71.5t-7 -26.5q-12 -15 -66 -6t-63 28q-1 2 6 43
q10 65 21.5 123t27.5 122t26.5 103t33.5 121t34 121q1 7 2 9.5t7 5.5t18 4q46 7 92 -15q12 -7 12.5 -13.5t-4.5 -16.5q-15 -42 -34 -115.5t-35 -140.5t-17 -72q56 105 172 268q44 55 72 76q48 40 109 29q56 -9 73 -37q12 -19 -34 -224q-58 -254 -62 -323q-3 -63 20 -63
q22 0 68 57q82 97 162 330q1 3 2.5 8t2 7t2.5 5t5 3.5t8 0t13 -1.5z" />
    <glyph glyph-name="o" unicode="o" horiz-adv-x="622" 
d="M651 430q26 -9 21 -24q-44 -132 -135.5 -216.5t-192.5 -72.5q-100 -125 -222.5 -147t-182 61t1.5 223q24 52 57 94q-3 35 2 62v12q1 69 36 127.5t91 91.5q78 47 184 23q122 -27 154 -115q18 -74 4 -154.5t-49 -154.5q-14 -32 -41 -76q73 14 142.5 85t101.5 169q3 7 12 11
t16 1zM55 426q-1 -2 1 -3.5t5 -2t5 1.5l36 33q32 19 37 20q23 3 40.5 -2t26 -14.5t12.5 -20t3.5 -19.5t-4.5 -13q-60 -53 -121 -154q50 -54 119 -74q34 65 59.5 140.5t30.5 115.5q20 177 -51 195q-50 13 -115 -51q-67 -66 -82 -143q-1 -4 -2 -9zM74 211q-75 -147 6 -180
q4 0 6 2q53 14 109 108q-67 23 -121 70z" />
    <glyph glyph-name="p" unicode="p" horiz-adv-x="589" 
d="M506 569q19 -61 0 -158.5t-74.5 -197t-132.5 -152.5q-99 -69 -182 -59q-44 4 -107 31q-120 -445 -133 -496q0 -1 -1 -4.5t-1 -4t-2 -4t-4 -3t-6.5 -1t-9.5 0.5q-22 7 -49.5 34t-30.5 50q-1 9 65.5 252t122.5 434l41 139q6 23 27 104.5t30 114.5q1 6 2.5 9t8 6.5t18.5 5.5
q55 4 90 -17q7 -4 10 -7.5t3.5 -5.5t-2 -8.5t-3.5 -8.5q-19 -58 -41 -152q63 102 136 160q34 26 59.5 31t65.5 -7q36 -10 63 -32t37 -54zM33 53q59 -10 80 0q55 25 92 60t71 88q62 95 88.5 209.5t10.5 185.5q-2 9 -12 13.5t-19 -1.5q-33 -16 -68 -51q-63 -60 -124 -176
q-40 -77 -76.5 -175t-42.5 -153z" />
    <glyph glyph-name="q" unicode="q" horiz-adv-x="585" 
d="M414 659q4 20 66.5 7t62.5 -35q-1 -97 -122.5 -543t-172.5 -547q-5 -8 -7.5 -11t-9 -5t-18.5 -2q-52 0 -86 24q-5 4 -7.5 6.5t-2.5 6v5t2.5 7.5t3.5 8q135 353 229 780q-131 -227 -190 -309q-30 -43 -55.5 -56.5t-67.5 -6.5q-19 2 -51 14q-52 24 -60 82q-7 53 13 147
q14 68 38 133t59 128t86.5 104.5t111.5 48.5q108 13 163 -65q2 14 7.5 40t7.5 39zM72 35q31 20 71 82q60 88 139 223t103 182q-18 51 -44.5 70t-54 10t-57.5 -41q-91 -98 -141 -285q-42 -164 -16 -241z" />
    <glyph glyph-name="r" unicode="r" horiz-adv-x="485" 
d="M522 395q8 -8 12.5 -14t3 -11.5t-2.5 -7.5t-8 -8t-9 -8q-37 -34 -63 -47q-36 -24 -56 -28.5t-51 10.5q-32 19 -57 51q-38 54 -15 153q-90 -98 -167 -250t-78 -278q0 -12 -2 -18q-6 -9 -17 -5q-14 0 -35 17q-29 22 -41.5 41.5t-11 32t1.5 26.5q4 80 23 175t37.5 158.5
t46.5 151.5t35 113q1 6 2.5 9t7 6.5t16.5 5.5q57 4 92 -17q12 -7 13 -13.5t-4 -16.5q-35 -107 -86 -281q99 184 215 276q9 23 14 31q1 3 4 10t4 9t4.5 6.5t7 3t11.5 -1.5q25 -7 51 -36t26 -48q0 -5 -2 -10t-5.5 -12.5t-12.5 -28.5t-20 -49q-22 -63 -29 -98t-1 -43.5t21 -2.5
t31.5 19.5t36 27.5t29.5 17q9 2 28 -17z" />
    <glyph glyph-name="s" unicode="s" horiz-adv-x="579" 
d="M639 422q5 -2 9 -3.5t8 -5t3 -7.5t-61.5 -34.5t-151.5 -74t-131 -64.5q120 -59 80 -141q-31 -66 -124.5 -116t-172.5 -48q-41 2 -68 23t-30 55q-5 44 34.5 97t127.5 104q-186 70 -166 203q10 57 67 122q98 110 234 181q41 23 64 29.5t55 0.5q30 -5 39 -12q30 -9 39 -14
q18 -12 6 -27q-37 -61 -53.5 -104t-18 -59.5t-2.5 -18.5q-15 -14 -68.5 -4.5t-62.5 28.5v15q8 33 39 98q-215 -156 -203 -280q1 -12 3.5 -22t5.5 -18t9 -15t10 -12t13 -10l13.5 -7.5t15.5 -6.5t16 -5.5t17.5 -5.5t17.5 -5q49 26 150.5 74.5t150.5 73.5q5 3 16 9t15.5 8
t13.5 4t18.5 0.5t22.5 -5.5zM43 0q0 -50 61 -29q61 20 118 79q36 37 44 67q4 22 -11 40t-40 21q-172 -96 -172 -178z" />
    <glyph glyph-name="t" unicode="t" horiz-adv-x="370" 
d="M856 922q7 -10 8 -16t-3.5 -7.5t-9 -1.5t-11.5 1t-9 1q-245 30 -534 27q-75 -202 -134 -405.5t-69 -325.5q-4 -46 2 -76.5t18 -41.5t26.5 -13.5t27 3t20.5 13.5q47 46 92 130.5t70.5 147.5t26.5 64q3 2 24 2q19 -5 21 -11.5t-2 -11.5q-92 -237 -170 -333
q-16 -19 -25 -28.5t-26 -22t-33 -17.5q-12 -4 -29.5 -4.5t-42 3.5t-46 16.5t-42.5 35t-31.5 60t-12.5 91.5t15 128q52 248 179 594q-299 -14 -408 -70q-1 0 -5.5 -2.5t-7 -3t-8.5 -0.5t-11.5 3.5t-14 10t-18.5 17.5q-25 25 -21 41q1 3 23 10q161 54 495 57q44 110 66 156
q1 1 3 5l2.5 5t2.5 3.5t4 3.5t5 2t7 2t9 1q51 4 90 -20q5 -4 7 -6.5t2 -6t-0.5 -5.5t-3 -7t-3.5 -8q-45 -107 -52 -125q238 -3 453 -26q6 -1 19 -2.5t18.5 -3t15 -5.5t16.5 -10.5t15 -17.5z" />
    <glyph glyph-name="u" unicode="u" horiz-adv-x="673" 
d="M705 426q20 -4 22 -11t-4 -12q-93 -210 -147 -295q-57 -90 -99 -106q-11 -4 -31.5 -5.5t-48 3.5t-52.5 16.5t-45 38t-26 64.5q-3 21 0 49q-82 -146 -135 -166q-11 -4 -31.5 -5.5t-48 3.5t-52.5 16.5t-44.5 38t-25.5 64.5q-9 59 21.5 167.5t69 216t42.5 140.5q0 1 0.5 6.5
t1.5 6.5t6 4t14 4q48 7 94 -19q20 -10 17 -24q-5 -26 -42.5 -132.5t-68 -214t-26.5 -163.5q0 -5 2 -5q6 -73 39 -66q71 15 223 363l8 19q8 23 22.5 65.5t22.5 65t15.5 49t9.5 41.5q0 1 0.5 4.5t1 4.5t1.5 3.5t3.5 3.5t6 2.5t9.5 2.5q48 7 94 -19q6 -2 9.5 -4.5t5.5 -4t3 -4
t1 -3.5v-4v-4q-5 -24 -43 -132t-68 -215t-26 -163v-5q9 -96 62 -55q71 56 202 352q1 3 3 10t2.5 7.5t4.5 5t9 2t16 -1.5z" />
    <glyph glyph-name="v" unicode="v" horiz-adv-x="423" 
d="M455 698q28 -22 26 -32v-2l-368 -652q-29 -51 -136 -16q-8 3 -14 5.5t-10 4t-6 5.5t-3.5 5.5t-1 7t0.5 7.5t1.5 10.5t2.5 11.5q32 170 47.5 333.5t5.5 244.5q-3 23 29 30.5t65.5 -4.5t34.5 -36q4 -47 -8 -189t-15 -248q70 115 101.5 170.5t41 76t44.5 90.5t94 181
q18 29 68 -4z" />
    <glyph glyph-name="w" unicode="w" horiz-adv-x="811" 
d="M840 418q20 -5 20 -12q0 -21 -16.5 -51t-43.5 -54.5t-57 -38.5t-61.5 -0.5t-52.5 57.5q-85 -196 -113 -243q-29 -48 -44 -59q-25 -20 -73 -13q-46 7 -74.5 30t-39 56.5t-13.5 76.5t2 91q-118 -239 -222 -255q-55 -9 -86 44q-10 19 -13 39q-9 74 19.5 216t65.5 253t52 119
q20 12 70 1t51 -28l-13 -37q-13 -37 -32 -98t-38 -130.5t-31.5 -147.5t-10.5 -136q0 -12 11 -15.5t18 5.5q62 81 180 330q13 63 25.5 104.5t30 81t18.5 41.5q10 23 27.5 32.5t36 7t35 -10t27 -17.5t9.5 -18l-4 -10q-4 -10 -11 -28t-16 -42.5t-18 -57.5t-17.5 -69.5
t-15.5 -81t-10 -88.5q-16 -202 51 -127q52 58 153 283q17 95 70 250q5 12 29.5 13.5t46 -16t18.5 -51.5q-7 -18 -17.5 -48t-30 -93.5t-18 -106t28.5 -42.5q19 0 36.5 23t25.5 46l8 23q5 5 27 2z" />
    <glyph glyph-name="x" unicode="x" horiz-adv-x="645" 
d="M682 434q8 -2 13.5 -4t8 -4t3 -4.5t0 -3.5t-2.5 -4t-2 -4q-168 -377 -260 -426q-93 -51 -167.5 8t-106.5 209q-13 -14 -180 -215q-7 -7 -11 -8t-36 2q-23 6 -27 14q-1 3 10 14q32 37 113 133t115 135q-47 245 -50 271q-8 -18 -32 -83.5t-35 -88.5q-9 -21 -28 -9t-14 31
q1 1 1 2q42 98 100 279q9 18 45 20q54 7 84 -8q9 -4 15 -9.5t7 -9t2 -9.5t1 -7q3 -73 33 -239q83 85 231 223q4 4 11 10t10.5 8.5t10.5 4.5t16.5 1.5t23.5 -4.5q12 -3 19 -6t6.5 -7t-0.5 -5t-7 -5l-6 -5q-152 -136 -299 -289q36 -176 56.5 -233t49.5 -66q33 -10 84 70
t152 299q1 3 3.5 10t4 8.5t5.5 4t11.5 2t18.5 -2.5z" />
    <glyph glyph-name="y" unicode="y" horiz-adv-x="583" 
d="M618 422q10 -3 15 -5.5t5.5 -5.5t0 -5t-3.5 -6.5t-4 -6.5q-24 -34 -77.5 -112.5t-81.5 -118t-73 -94.5t-86 -95q-44 -127 -94 -227q-100 -203 -223 -199q-63 1 -92 29.5t-25.5 68.5t23.5 80.5t49 67.5q21 20 50.5 39.5t77 48t77.5 47.5q10 26 45 125q-27 -36 -60 -51
q-11 -4 -31.5 -5.5t-48 3.5t-52.5 16.5t-44.5 38t-25.5 64.5q-9 59 21.5 167.5t69 216t42.5 140.5q0 1 0.5 4.5t1 4.5t1.5 3.5t3.5 3.5t6 2.5t9.5 2.5q48 7 94 -19q15 -7 18 -13t-1 -11q-5 -25 -42 -132t-67 -214.5t-26 -163.5v-5q6 -71 38 -66q60 9 183 269q72 218 86 316
q0 1 0.5 6.5t1.5 7t6 3.5t14 3q47 7 95 -16q18 -10 18 -19q0 -7 -33 -111q-63 -197 -129 -409q129 164 228 322q1 1 4 5.5t4 5t5.5 2t10.5 0.5t16 -3zM-12 -387q70 66 137 233q-154 -93 -194 -183q-22 -49 -1 -67t56 15z" />
    <glyph glyph-name="z" unicode="z" horiz-adv-x="679" 
d="M713 414q8 -8 12 -13.5t3.5 -10t-1.5 -6.5t-5 -5.5t-5 -5.5q-27 -28 -174 -169t-238 -233q45 -58 53 -130t-16 -134.5t-76 -112.5t-119 -67q-107 -27 -161 22q-70 66 34 215q24 35 58 71t81 80.5t66 64.5q-55 19 -82.5 16t-34 -12t-8.5 -22.5t-6 -14.5q-23 -1 -48.5 19.5
t-39.5 45.5q-12 24 -6 37q7 14 38 52t86.5 100.5t95.5 106.5t111 121.5t87 94.5q-28 -11 -74.5 -31t-84 -36t-82.5 -33.5t-79 -25t-64.5 -8.5t-47.5 14t-19 45q-3 47 25 91.5t61 67.5q6 5 19 6t27 -11t14 -40q-11 -37 43 -43q79 -10 205 47q106 47 188 121q14 14 21 22.5
t8 11t2 3.5q19 8 55.5 -26t32.5 -56q0 -4 -23 -29q-51 -61 -242.5 -275.5t-242.5 -277.5q52 -3 100 -45q91 93 250.5 245.5t161.5 154.5q1 1 3 4.5t3.5 4.5t4 3t5 1.5t6 -1.5t8.5 -4.5t11 -9.5zM115 -383q75 51 112 133t25 168q-249 -242 -258 -319q-3 -29 33 -23
q35 6 88 41z" />
    <glyph glyph-name="braceleft" unicode="{" horiz-adv-x="735" 
d="M627 1149q4 -4 6 -10.5t-2 -10.5q-2 0 -10 -1t-18 0t-24.5 -6.5t-28.5 -20t-30.5 -41.5t-30.5 -70q-13 -40 -27.5 -101.5t-26 -108t-28.5 -94.5t-44.5 -81t-65.5 -47q20 -24 28 -48.5t3 -52.5t-11 -46.5t-21 -51.5t-20 -47q-35 -84 -55 -178t-8 -162q15 -1 31 1l16 3
q20 0 39 -24q7 -8 11 -14t4.5 -10t0.5 -7t-3.5 -5t-4.5 -3t-7 -2l-5 -2q-35 -14 -64 -8q-39 8 -79.5 53t-47.5 102q-8 61 11.5 150t50.5 164q4 8 18.5 41.5t20 48t12 40.5t6.5 48h-2q-19 5 -41 31q-20 20 -10 30q2 2 9 3t19.5 6.5t26.5 17.5q24 20 44 51.5t34.5 74.5
t23.5 77.5t21.5 87.5t18.5 78q14 49 27.5 80t34.5 59t52.5 39t73.5 6q30 -5 44 -12t28 -27z" />
    <glyph glyph-name="bar" unicode="|" horiz-adv-x="585" 
d="M383 1210q8 11 31.5 -1t45 -36t23.5 -43q0 -3 -65.5 -289.5t-135 -612.5t-73.5 -414q0 -11 -2 -15q-4 -6 -17 -6q-15 2 -36 19q-16 12 -27 24.5t-16.5 20.5t-6.5 20.5t-1 17.5t2.5 20t3.5 19q17 125 86 444.5t127 570.5t61 261z" />
    <glyph glyph-name="braceright" unicode="}" horiz-adv-x="735" 
d="M631 1032q8 -62 -11.5 -149.5t-50.5 -165.5q-5 -13 -18 -41.5t-20 -45.5t-13 -42.5t-6 -48.5h4q19 -6 39 -29q18 -24 12 -31q-2 -3 -9.5 -4t-20.5 -6t-27 -18q-30 -25 -54.5 -73.5t-35.5 -86.5t-28 -111.5t-23 -95.5q-13 -49 -26.5 -80.5t-34.5 -59.5t-53 -39t-75 -5
q-29 3 -43 10t-28 27q0 1 -3.5 7t-3.5 8t2 7q2 0 10 1t18 -0.5t24.5 6t28.5 19.5t30.5 41t30.5 70q14 40 28.5 102t26 108.5t28.5 94.5t45 80.5t66 46.5q-21 24 -29 49t-3 53t11 46.5t21.5 51.5t20.5 46q84 213 61 340q-15 1 -30 -1.5t-17 -2.5q-14 2 -39 27q-9 11 -13.5 18
t-2.5 11.5t4 6t9.5 4t8.5 3.5q40 12 64 8q39 -10 78.5 -54.5t46.5 -101.5z" />
    <glyph glyph-name="asciitilde" unicode="~" horiz-adv-x="935" 
d="M819 680q9 -10 13 -16.5t2.5 -11t-3 -6.5t-8 -6t-8.5 -5q-234 -159 -323 -193q-28 -11 -54 2q-23 14 -43.5 38.5t-21.5 47.5q-2 20 16 60q10 19 27 47q-182 -105 -238 -135q-2 -1 -7.5 -5t-8 -5t-7.5 -2.5t-9.5 1t-11.5 7.5t-15 14q-19 19 -17 31q1 1 25 14
q54 26 184 101.5t187 103.5l6 8q2 10 0 10t-2 -2q0 24 35 7q39 -19 61 -57q2 -3 4 -7q4 -8 5 -13.5t1 -7.5t-4.5 -6.5l-5.5 -5.5q-15 -18 -23 -35q-51 -72 -79 -127q54 22 124.5 65t116.5 74.5t49 32.5q13 2 33 -18z" />
    <glyph glyph-name="uni00A0" unicode="&#xa0;" horiz-adv-x="770" 
 />
    <glyph glyph-name="exclamdown" unicode="&#xa1;" horiz-adv-x="737" 
d="M434 975q8 10 31 -1t44.5 -34t25.5 -43q8 -37 -129 -457.5t-201 -574.5q-4 -10 -7.5 -12.5t-21.5 0.5q-18 6 -37 23.5t-30 37.5q-9 16 -3 35q60 150 188 539t138 475q0 10 2 12zM518 1270q-1 5 4 26l6 52q1 2 2 8.5t2 7.5t4 5.5t7 2.5t12 -2q22 -7 49 -32t31 -50
q2 -8 -2 -24q-4 -36 -8 -52q-1 -2 -2 -7t-1.5 -6t-2 -4.5t-2.5 -4.5t-3 -2.5t-4.5 -1.5t-6 0.5t-7.5 1.5q-22 5 -49.5 32t-28.5 50z" />
    <glyph glyph-name="cent" unicode="&#xa2;" horiz-adv-x="821" 
d="M682 594q4 3 15 -3.5t17.5 -20.5t0.5 -29q-33 -73 -70 -140.5t-87.5 -144.5t-108.5 -129.5t-113 -65.5q-4 -20 -11.5 -58t-11.5 -58q0 -7 -0.5 -11t-4.5 -7.5t-11 -0.5q-15 7 -34.5 33t-22.5 49q0 11 8 55q-65 17 -101.5 78t-42.5 142.5t11 175.5t52 177t88.5 148.5
t113.5 89.5q43 18 90 9q18 61 49 145q2 10 5 12.5t15 -2.5q29 -15 47 -59q6 -18 0 -33q-22 -65 -34 -106q49 -49 34 -129q-8 -40 -21.5 -65t-28.5 -32t-28.5 -6.5t-25.5 8.5q-67 -225 -117 -456q46 12 95.5 59t86 101t71 118t50.5 98.5t24 54.5zM272 190q57 271 152 584
q-86 -89 -139.5 -293.5t-12.5 -290.5z" />
    <glyph glyph-name="sterling" unicode="&#xa3;" horiz-adv-x="987" 
d="M680 780l6 4q6 5 15.5 13.5t21 21t22 31.5t19 41.5t12.5 53.5t2 65q-5 53 -32 73.5t-59.5 12.5t-63.5 -33q-27 -22 -48.5 -58t-34 -70.5t-24 -92t-17 -95t-14.5 -109t-14 -106.5q49 0 74 -2q56 -2 74 -12q21 -11 40 -37q22 -30 3 -32q-6 -1 -33 4q-78 11 -170 8
q-41 -231 -142 -340q118 6 213.5 2t147 -9.5t65.5 -9.5q31 -10 53 -44q14 -23 3 -29q-2 -1 -37 4q-115 19 -244 22t-203 -2t-110 -12q-30 -15 -42 -13q-17 3 -40 27q-26 26 -21 41q1 2 19 11q159 89 217 344q-20 -2 -39 -2q-23 6 -43 30q-10 12 -14 19.5t0 11.5t6.5 5.5
t11.5 2.5h8q13 1 42 4t44 4q10 53 20 131.5t16.5 133t20 118t30 105.5t46 76.5t68.5 48.5q21 8 52 10t67 -2.5t73.5 -21.5t65.5 -44q72 -60 72 -168q0 -91 -48 -147t-98 -51q-21 1 -44 27.5t-15 35.5z" />
    <glyph glyph-name="currency" unicode="&#xa4;" horiz-adv-x="815" 
d="M694 930q24 -16 19 -27q0 -2 -5 -7q-12 -12 -28 -30q-59 -75 -88 -106q32 -53 29 -111q-1 -16 -3.5 -31.5t-7.5 -34.5t-7.5 -29t-11 -33.5t-10.5 -28.5t-12.5 -33t-11.5 -29q-17 -44 -20 -51q15 -24 38.5 -57t37.5 -53t14 -23q2 -10 -21 -27q-18 -18 -31 -12q-2 1 -5 7
q-8 15 -21 36q-8 10 -27 37t-28 39q-42 -37 -121 -23q-20 0 -33 8q-4 1 -18 15q-30 9 -60 39q-4 -4 -4 -7q-100 -119 -102 -120q-13 -4 -35 12q-7 6 -11.5 11.5t-6 9t-0.5 7t2.5 5t4 3.5t3.5 3q17 17 38.5 42t42.5 51.5t29 35.5q-7 14 -10 26q-21 69 9 185.5t85 185.5
q-10 16 -33.5 48.5t-39 55t-15.5 25.5q0 12 23 29q7 5 12.5 8t9 3.5t6.5 0.5t4.5 -2t2.5 -3.5t2.5 -4.5t1.5 -4q28 -49 75 -111q23 16 87 3t108 -52q19 22 46.5 55.5t44.5 54t20 21.5q10 4 32 -12zM362 375q19 0 48 41.5t53 103t40.5 124t10.5 111t-37 58.5q-31 11 -86 -77
q-65 -105 -87 -217q-26 -130 43 -143q7 -1 15 -1z" />
    <glyph glyph-name="yen" unicode="&#xa5;" horiz-adv-x="919" 
d="M811 1083q4 -7 5.5 -12t0 -10.5t-2.5 -8t-5.5 -10.5t-7.5 -12q-55 -105 -178.5 -286.5t-155.5 -233.5q47 3 59 0q36 -10 62 -50q23 -35 4 -41q-2 -1 -4 -1q-17 -3 -43 18q-42 5 -123 -6q4 -8 4 -12q0 -3 -3.5 -17t-10.5 -42.5t-13 -51.5q0 2 4 2q77 11 101 8
q35 -6 64 -48q24 -36 10 -46q-7 -6 -27 2q-4 3 -13.5 8.5t-13.5 8.5q-43 2 -145 -13q-18 -66 -33 -157q0 -3 -0.5 -11t-1 -10t-3 -7.5t-7 -4t-12.5 1.5q-20 5 -48 31t-34 49q-1 5 12 82v4q-87 -17 -92 -17q-16 1 -33.5 19t-22.5 33q-1 4 -1 7.5t0.5 5t4 2.5t5 1.5t7 1
t7.5 0.5q62 14 143 27l31 119q-6 -2 -17 -5.5t-19.5 -6t-14.5 -5.5q-12 -8 -28.5 -7.5t-37.5 24.5q-8 8 -12 14.5t-5 10.5t2 7t5 3.5t7.5 2.5t6.5 2q71 28 134 43q4 26 6 31q-26 23 -35 49q-6 18 -78 516q-6 41 -4 45q2 9 16 9q12 -2 29 -15q13 -9 23 -17.5t16.5 -17.5
t10.5 -15.5t6.5 -16t3.5 -13.5t2 -14.5t1 -13.5q52 -348 60 -412q34 53 110 163.5t131 198.5t97 173q4 8 10 10q15 3 43.5 -18.5t40.5 -47.5z" />
    <glyph glyph-name="brokenbar" unicode="&#xa6;" horiz-adv-x="612" 
d="M592 1534q8 13 26 16q34 6 44.5 -6t17.5 -47q0 -14 -6 -18q-66 -107 -171.5 -388t-94.5 -358q3 -10 -5 -17t-22 -9q-39 -11 -61 -0.5t-29 51.5q-7 48 52.5 216t134 332.5t114.5 227.5zM-76 -324q-11 70 110.5 369t188.5 404q12 15 29 18q33 7 43.5 -5t15.5 -46
q3 -13 -4 -23q-66 -105 -172 -386.5t-94 -356.5q5 -19 -27 -27q-43 -8 -63.5 1.5t-26.5 51.5z" />
    </font>
</defs>
</svg>
